<svg width="196" height="53" viewBox="0 0 196 53" fill="none" xmlns="http://www.w3.org/2000/svg">
<path d="M37.3121 25.1645C40.1921 26.0765 42.4481 27.6125 44.0801 29.7725C45.7121 31.8845 46.5281 34.5005 46.5281 37.6205C46.5281 42.0365 44.8001 45.4445 41.3441 47.8445C37.9361 50.1965 32.9441 51.3725 26.3681 51.3725H0.304125V0.972525H24.9281C31.0721 0.972525 35.7761 2.14853 39.0401 4.50053C42.3521 6.85252 44.0081 10.0445 44.0081 14.0765C44.0081 16.5245 43.4081 18.7085 42.2081 20.6285C41.0561 22.5485 39.4241 24.0605 37.3121 25.1645ZM11.8961 9.75653V21.6365H23.4881C26.3681 21.6365 28.5521 21.1325 30.0401 20.1245C31.5281 19.1165 32.2721 17.6285 32.2721 15.6605C32.2721 13.6925 31.5281 12.2285 30.0401 11.2685C28.5521 10.2605 26.3681 9.75653 23.4881 9.75653H11.8961ZM25.5041 42.5885C28.5761 42.5885 30.8801 42.0845 32.4161 41.0765C34.0001 40.0685 34.7921 38.5085 34.7921 36.3965C34.7921 32.2205 31.6961 30.1325 25.5041 30.1325H11.8961V42.5885H25.5041ZM88.5508 40.5725H65.1508L60.6868 51.3725H48.7348L71.1988 0.972525H82.7188L105.255 51.3725H93.0148L88.5508 40.5725ZM84.8788 31.7165L76.8868 12.4205L68.8948 31.7165H84.8788ZM127.044 52.2365C123.06 52.2365 119.196 51.7085 115.452 50.6525C111.756 49.5485 108.78 48.1325 106.524 46.4045L110.484 37.6205C112.644 39.2045 115.212 40.4765 118.188 41.4365C121.164 42.3965 124.14 42.8765 127.116 42.8765C130.428 42.8765 132.876 42.3965 134.46 41.4365C136.044 40.4285 136.836 39.1085 136.836 37.4765C136.836 36.2765 136.356 35.2925 135.396 34.5245C134.484 33.7085 133.284 33.0605 131.796 32.5805C130.356 32.1005 128.388 31.5725 125.892 30.9965C122.052 30.0845 118.908 29.1725 116.46 28.2605C114.012 27.3485 111.9 25.8845 110.124 23.8685C108.396 21.8525 107.532 19.1645 107.532 15.8045C107.532 12.8765 108.324 10.2365 109.908 7.88453C111.492 5.48453 113.868 3.58853 117.036 2.19653C120.252 0.804527 124.164 0.108527 128.772 0.108527C131.988 0.108527 135.132 0.492527 138.204 1.26053C141.276 2.02853 143.964 3.13253 146.268 4.57253L142.668 13.4285C138.012 10.7885 133.356 9.46853 128.7 9.46853C125.436 9.46853 123.012 9.99653 121.428 11.0525C119.892 12.1085 119.124 13.5005 119.124 15.2285C119.124 16.9565 120.012 18.2525 121.788 19.1165C123.612 19.9325 126.372 20.7485 130.068 21.5645C133.908 22.4765 137.052 23.3885 139.5 24.3005C141.948 25.2125 144.036 26.6525 145.764 28.6205C147.54 30.5885 148.428 33.2525 148.428 36.6125C148.428 39.4925 147.612 42.1325 145.98 44.5325C144.396 46.8845 141.996 48.7565 138.78 50.1485C135.564 51.5405 131.652 52.2365 127.044 52.2365ZM195.422 42.0125V51.3725H156.398V0.972525H194.486V10.3325H167.99V21.2765H191.39V30.3485H167.99V42.0125H195.422Z" fill="white"/>
</svg>
