<svg width="218" height="1046" viewBox="0 0 218 1046" fill="none" xmlns="http://www.w3.org/2000/svg">
<rect y="-1" width="218" height="1047" fill="white"/>
<path opacity="0.5" d="M74.04 559.045C73.2293 559.045 72.456 558.933 71.72 558.709C70.9947 558.485 70.4133 558.176 69.976 557.781C69.7733 557.61 69.672 557.392 69.672 557.125C69.672 556.933 69.7253 556.773 69.832 556.645C69.9387 556.506 70.0667 556.437 70.216 556.437C70.3653 556.437 70.5467 556.506 70.76 556.645C71.7093 557.349 72.792 557.701 74.008 557.701C74.8613 557.701 75.5173 557.541 75.976 557.221C76.4347 556.901 76.664 556.442 76.664 555.845C76.664 555.376 76.4507 555.024 76.024 554.789C75.5973 554.554 74.9147 554.33 73.976 554.117C73.08 553.925 72.344 553.706 71.768 553.461C71.192 553.216 70.7387 552.885 70.408 552.469C70.088 552.042 69.928 551.504 69.928 550.853C69.928 550.202 70.104 549.626 70.456 549.125C70.8187 548.613 71.32 548.218 71.96 547.941C72.6 547.653 73.3307 547.509 74.152 547.509C74.9093 547.509 75.608 547.616 76.248 547.829C76.888 548.042 77.432 548.357 77.88 548.773C78.0933 548.954 78.2 549.173 78.2 549.429C78.2 549.61 78.1413 549.77 78.024 549.909C77.9173 550.048 77.7893 550.117 77.64 550.117C77.5013 550.117 77.3253 550.048 77.112 549.909C76.6213 549.536 76.1573 549.269 75.72 549.109C75.2933 548.938 74.776 548.853 74.168 548.853C73.3467 548.853 72.7067 549.024 72.248 549.365C71.7893 549.696 71.56 550.16 71.56 550.757C71.56 551.269 71.7627 551.658 72.168 551.925C72.5733 552.181 73.224 552.416 74.12 552.629C75.0587 552.842 75.816 553.066 76.392 553.301C76.9787 553.525 77.4427 553.84 77.784 554.245C78.136 554.64 78.312 555.152 78.312 555.781C78.312 556.421 78.1307 556.992 77.768 557.493C77.416 557.984 76.9147 558.368 76.264 558.645C75.624 558.912 74.8827 559.045 74.04 559.045ZM86.2633 556.949C86.4126 556.949 86.5353 557.008 86.6313 557.125C86.7273 557.242 86.7753 557.392 86.7753 557.573C86.7753 557.882 86.5833 558.144 86.1993 558.357C85.8259 558.57 85.4153 558.736 84.9673 558.853C84.5299 558.97 84.1086 559.029 83.7033 559.029C82.4659 559.029 81.4899 558.672 80.7753 557.957C80.0606 557.232 79.7033 556.245 79.7033 554.997C79.7033 554.197 79.8579 553.488 80.1673 552.869C80.4873 552.25 80.9299 551.77 81.4953 551.429C82.0713 551.088 82.7219 550.917 83.4473 550.917C84.4926 550.917 85.3193 551.253 85.9273 551.925C86.5353 552.597 86.8393 553.504 86.8393 554.645C86.8393 555.072 86.6473 555.285 86.2633 555.285H81.3193C81.4259 556.938 82.2206 557.765 83.7033 557.765C84.0979 557.765 84.4393 557.712 84.7273 557.605C85.0153 557.498 85.3193 557.36 85.6393 557.189C85.6713 557.168 85.7566 557.125 85.8953 557.061C86.0446 556.986 86.1673 556.949 86.2633 556.949ZM83.4793 552.101C82.8606 552.101 82.3646 552.298 81.9913 552.693C81.6179 553.088 81.3939 553.642 81.3193 554.357H85.4473C85.4153 553.632 85.2286 553.077 84.8873 552.693C84.5566 552.298 84.0873 552.101 83.4793 552.101ZM92.3659 557.765C92.6005 557.786 92.7659 557.85 92.8619 557.957C92.9685 558.053 93.0219 558.192 93.0219 558.373C93.0219 558.586 92.9365 558.752 92.7659 558.869C92.6059 558.976 92.3659 559.018 92.0459 558.997L91.6139 558.965C90.7499 558.901 90.1045 558.64 89.6779 558.181C89.2512 557.712 89.0379 557.024 89.0379 556.117V552.357H88.0779C87.6085 552.357 87.3739 552.149 87.3739 551.733C87.3739 551.541 87.4325 551.392 87.5499 551.285C87.6779 551.168 87.8539 551.109 88.0779 551.109H89.0379V549.461C89.0379 549.216 89.1072 549.024 89.2459 548.885C89.3952 548.746 89.5925 548.677 89.8379 548.677C90.0832 548.677 90.2805 548.746 90.4299 548.885C90.5792 549.024 90.6539 549.216 90.6539 549.461V551.109H92.2379C92.4619 551.109 92.6325 551.168 92.7499 551.285C92.8779 551.392 92.9419 551.541 92.9419 551.733C92.9419 551.936 92.8779 552.09 92.7499 552.197C92.6325 552.304 92.4619 552.357 92.2379 552.357H90.6539V556.229C90.6539 556.73 90.7552 557.098 90.9579 557.333C91.1712 557.568 91.4912 557.701 91.9179 557.733L92.3659 557.765ZM97.9753 557.765C98.2099 557.786 98.3753 557.85 98.4713 557.957C98.5779 558.053 98.6313 558.192 98.6313 558.373C98.6313 558.586 98.5459 558.752 98.3753 558.869C98.2153 558.976 97.9753 559.018 97.6553 558.997L97.2233 558.965C96.3593 558.901 95.7139 558.64 95.2873 558.181C94.8606 557.712 94.6473 557.024 94.6473 556.117V552.357H93.6873C93.2179 552.357 92.9832 552.149 92.9832 551.733C92.9832 551.541 93.0419 551.392 93.1593 551.285C93.2873 551.168 93.4633 551.109 93.6873 551.109H94.6473V549.461C94.6473 549.216 94.7166 549.024 94.8553 548.885C95.0046 548.746 95.2019 548.677 95.4473 548.677C95.6926 548.677 95.8899 548.746 96.0393 548.885C96.1886 549.024 96.2633 549.216 96.2633 549.461V551.109H97.8473C98.0713 551.109 98.2419 551.168 98.3593 551.285C98.4873 551.392 98.5513 551.541 98.5513 551.733C98.5513 551.936 98.4873 552.09 98.3593 552.197C98.2419 552.304 98.0713 552.357 97.8473 552.357H96.2633V556.229C96.2633 556.73 96.3646 557.098 96.5673 557.333C96.7806 557.568 97.1006 557.701 97.5273 557.733L97.9753 557.765ZM100.608 558.997C100.373 558.997 100.176 558.933 100.016 558.805C99.8665 558.677 99.7919 558.485 99.7919 558.229V551.733C99.7919 551.477 99.8665 551.285 100.016 551.157C100.176 551.018 100.373 550.949 100.608 550.949C100.843 550.949 101.035 551.018 101.184 551.157C101.333 551.285 101.408 551.477 101.408 551.733V558.229C101.408 558.485 101.333 558.677 101.184 558.805C101.035 558.933 100.843 558.997 100.608 558.997ZM100.608 549.381C100.299 549.381 100.053 549.296 99.8719 549.125C99.6905 548.954 99.5999 548.73 99.5999 548.453C99.5999 548.176 99.6905 547.957 99.8719 547.797C100.053 547.626 100.299 547.541 100.608 547.541C100.907 547.541 101.147 547.626 101.328 547.797C101.52 547.957 101.616 548.176 101.616 548.453C101.616 548.73 101.525 548.954 101.344 549.125C101.163 549.296 100.917 549.381 100.608 549.381ZM107.875 550.917C109.742 550.917 110.675 551.968 110.675 554.069V558.229C110.675 558.474 110.6 558.666 110.451 558.805C110.312 558.933 110.115 558.997 109.859 558.997C109.614 558.997 109.416 558.928 109.267 558.789C109.128 558.65 109.059 558.464 109.059 558.229V554.149C109.059 553.488 108.926 553.002 108.659 552.693C108.403 552.384 107.998 552.229 107.443 552.229C106.792 552.229 106.27 552.432 105.875 552.837C105.48 553.242 105.283 553.786 105.283 554.469V558.229C105.283 558.464 105.208 558.65 105.059 558.789C104.92 558.928 104.728 558.997 104.483 558.997C104.238 558.997 104.04 558.928 103.891 558.789C103.742 558.65 103.667 558.464 103.667 558.229V551.717C103.667 551.493 103.742 551.312 103.891 551.173C104.051 551.024 104.248 550.949 104.483 550.949C104.718 550.949 104.904 551.018 105.043 551.157C105.182 551.296 105.251 551.477 105.251 551.701V552.357C105.507 551.888 105.864 551.53 106.323 551.285C106.782 551.04 107.299 550.917 107.875 550.917ZM119.35 550.949C119.595 550.949 119.787 551.024 119.926 551.173C120.075 551.312 120.15 551.498 120.15 551.733V558.293C120.15 559.488 119.83 560.389 119.19 560.997C118.56 561.605 117.627 561.909 116.39 561.909C115.238 561.909 114.278 561.69 113.51 561.253C113.115 561.029 112.918 560.762 112.918 560.453C112.918 560.272 112.966 560.122 113.062 560.005C113.168 559.888 113.296 559.829 113.446 559.829C113.584 559.829 113.803 559.909 114.102 560.069C114.486 560.25 114.843 560.389 115.174 560.485C115.504 560.592 115.899 560.645 116.358 560.645C117.83 560.645 118.566 559.904 118.566 558.421V557.189C118.342 557.658 118 558.026 117.542 558.293C117.083 558.549 116.55 558.677 115.942 558.677C115.259 558.677 114.651 558.517 114.118 558.197C113.584 557.877 113.168 557.424 112.87 556.837C112.582 556.25 112.438 555.573 112.438 554.805C112.438 554.037 112.587 553.36 112.886 552.773C113.184 552.186 113.595 551.733 114.118 551.413C114.651 551.082 115.259 550.917 115.942 550.917C116.539 550.917 117.062 551.045 117.51 551.301C117.968 551.557 118.315 551.92 118.55 552.389V551.717C118.55 551.482 118.619 551.296 118.758 551.157C118.907 551.018 119.104 550.949 119.35 550.949ZM116.326 557.397C117.019 557.397 117.563 557.168 117.958 556.709C118.352 556.25 118.55 555.616 118.55 554.805C118.55 554.005 118.352 553.376 117.958 552.917C117.574 552.448 117.03 552.213 116.326 552.213C115.622 552.213 115.067 552.442 114.662 552.901C114.267 553.36 114.07 553.994 114.07 554.805C114.07 555.616 114.272 556.25 114.678 556.709C115.083 557.168 115.632 557.397 116.326 557.397ZM125.121 559.029C124.033 559.029 123.143 558.805 122.449 558.357C122.257 558.24 122.119 558.117 122.033 557.989C121.959 557.861 121.921 557.717 121.921 557.557C121.921 557.386 121.969 557.242 122.065 557.125C122.161 557.008 122.284 556.949 122.433 556.949C122.572 556.949 122.791 557.034 123.089 557.205C123.409 557.376 123.719 557.514 124.017 557.621C124.327 557.728 124.711 557.781 125.169 557.781C125.681 557.781 126.081 557.69 126.369 557.509C126.657 557.328 126.801 557.072 126.801 556.741C126.801 556.528 126.743 556.357 126.625 556.229C126.519 556.101 126.327 555.989 126.049 555.893C125.772 555.786 125.361 555.674 124.817 555.557C123.879 555.354 123.201 555.082 122.785 554.741C122.38 554.389 122.177 553.914 122.177 553.317C122.177 552.858 122.311 552.448 122.577 552.085C122.844 551.712 123.212 551.424 123.681 551.221C124.151 551.018 124.684 550.917 125.281 550.917C125.708 550.917 126.124 550.976 126.529 551.093C126.935 551.2 127.292 551.36 127.601 551.573C127.953 551.808 128.129 552.08 128.129 552.389C128.129 552.56 128.076 552.704 127.969 552.821C127.873 552.938 127.756 552.997 127.617 552.997C127.521 552.997 127.425 552.976 127.329 552.933C127.233 552.89 127.105 552.821 126.945 552.725C126.657 552.554 126.385 552.421 126.129 552.325C125.884 552.229 125.575 552.181 125.201 552.181C124.753 552.181 124.391 552.277 124.113 552.469C123.847 552.661 123.713 552.922 123.713 553.253C123.713 553.552 123.836 553.786 124.081 553.957C124.337 554.117 124.812 554.272 125.505 554.421C126.22 554.57 126.78 554.741 127.185 554.933C127.591 555.125 127.879 555.365 128.049 555.653C128.231 555.93 128.321 556.288 128.321 556.725C128.321 557.418 128.028 557.978 127.441 558.405C126.865 558.821 126.092 559.029 125.121 559.029Z" fill="#030229"/>
<g opacity="0.4">
<path fill-rule="evenodd" clip-rule="evenodd" d="M51.4023 555.518C51.76 555.727 52.036 556.057 52.2301 556.388C52.6083 557.07 52.5776 557.907 52.2097 558.645L51.4943 559.967C51.1162 560.671 50.411 561.112 49.6855 561.112C49.3278 561.112 48.9292 561.002 48.6022 560.781C48.3365 560.594 48.0299 560.528 47.7029 560.528C46.6911 560.528 45.8429 561.442 45.8122 562.532C45.8122 563.799 44.872 564.79 43.6968 564.79H42.3069C41.1215 564.79 40.1813 563.799 40.1813 562.532C40.1608 561.442 39.3126 560.528 38.3009 560.528C37.9636 560.528 37.657 560.594 37.4015 560.781C37.0745 561.002 36.6657 561.112 36.3183 561.112C35.5824 561.112 34.8773 560.671 34.4992 559.967L33.794 558.645C33.4159 557.929 33.3955 557.07 33.7736 556.388C33.9371 556.057 34.2437 555.727 34.5911 555.518C34.8773 555.363 35.0612 555.11 35.235 554.813C35.746 553.866 35.4394 552.621 34.5707 552.06C33.559 551.432 33.2319 550.033 33.8145 548.943L34.4992 547.644C35.0919 546.553 36.3591 546.168 37.3811 546.807C38.2702 547.335 39.425 546.983 39.9462 546.047C40.1097 545.739 40.2017 545.408 40.1813 545.078C40.1608 544.648 40.2732 544.241 40.4674 543.91C40.8455 543.228 41.5302 542.787 42.2763 542.765H43.7172C44.4735 542.765 45.1582 543.228 45.5363 543.91C45.7203 544.241 45.8429 544.648 45.8122 545.078C45.7918 545.408 45.8838 545.739 46.0473 546.047C46.5685 546.983 47.7233 547.335 48.6226 546.807C49.6344 546.168 50.9118 546.553 51.4943 547.644L52.179 548.943C52.7718 550.033 52.4447 551.432 51.4228 552.06C50.5541 552.621 50.2475 553.866 50.7687 554.813C50.9322 555.11 51.1162 555.363 51.4023 555.518ZM40.1097 553.789C40.1097 555.518 41.4076 556.894 43.0121 556.894C44.6165 556.894 45.8838 555.518 45.8838 553.789C45.8838 552.06 44.6165 550.672 43.0121 550.672C41.4076 550.672 40.1097 552.06 40.1097 553.789Z" fill="#030229"/>
</g>
<path opacity="0.5" d="M78.792 480.594C79.0267 480.594 79.2133 480.674 79.352 480.834C79.5013 480.983 79.576 481.181 79.576 481.426V491.202C79.576 491.447 79.5013 491.65 79.352 491.81C79.2027 491.959 79.0107 492.034 78.776 492.034C78.4987 492.034 78.2853 491.927 78.136 491.714L71.864 483.442V491.202C71.864 491.447 71.7893 491.65 71.64 491.81C71.5013 491.959 71.3147 492.034 71.08 492.034C70.8453 492.034 70.6587 491.959 70.52 491.81C70.3813 491.661 70.312 491.458 70.312 491.202V481.426C70.312 481.181 70.3867 480.983 70.536 480.834C70.6853 480.674 70.8773 480.594 71.112 480.594C71.3893 480.594 71.6027 480.701 71.752 480.914L78.024 489.202V481.426C78.024 481.181 78.0933 480.983 78.232 480.834C78.3707 480.674 78.5573 480.594 78.792 480.594ZM85.4026 492.066C84.6346 492.066 83.9573 491.901 83.3706 491.57C82.7946 491.239 82.3466 490.77 82.0266 490.162C81.7173 489.543 81.5626 488.829 81.5626 488.018C81.5626 487.197 81.7173 486.482 82.0266 485.874C82.3466 485.255 82.7946 484.781 83.3706 484.45C83.9573 484.119 84.6346 483.954 85.4026 483.954C86.1706 483.954 86.8426 484.119 87.4186 484.45C88.0053 484.781 88.4533 485.255 88.7626 485.874C89.0826 486.482 89.2426 487.197 89.2426 488.018C89.2426 488.829 89.0826 489.543 88.7626 490.162C88.4533 490.77 88.0053 491.239 87.4186 491.57C86.8426 491.901 86.1706 492.066 85.4026 492.066ZM85.4026 490.786C86.1173 490.786 86.6613 490.551 87.0346 490.082C87.4186 489.613 87.6106 488.925 87.6106 488.018C87.6106 487.122 87.4186 486.439 87.0346 485.97C86.6506 485.49 86.1066 485.25 85.4026 485.25C84.6986 485.25 84.1546 485.49 83.7706 485.97C83.3866 486.439 83.1946 487.122 83.1946 488.018C83.1946 488.925 83.3813 489.613 83.7546 490.082C84.1386 490.551 84.688 490.786 85.4026 490.786ZM94.8346 490.802C95.0693 490.823 95.2346 490.887 95.3306 490.994C95.4373 491.09 95.4906 491.229 95.4906 491.41C95.4906 491.623 95.4053 491.789 95.2346 491.906C95.0746 492.013 94.8346 492.055 94.5146 492.034L94.0826 492.002C93.2186 491.938 92.5733 491.677 92.1466 491.218C91.72 490.749 91.5066 490.061 91.5066 489.154V485.394H90.5466C90.0773 485.394 89.8426 485.186 89.8426 484.77C89.8426 484.578 89.9013 484.429 90.0186 484.322C90.1466 484.205 90.3226 484.146 90.5466 484.146H91.5066V482.498C91.5066 482.253 91.576 482.061 91.7146 481.922C91.864 481.783 92.0613 481.714 92.3066 481.714C92.552 481.714 92.7493 481.783 92.8986 481.922C93.048 482.061 93.1226 482.253 93.1226 482.498V484.146H94.7066C94.9306 484.146 95.1013 484.205 95.2186 484.322C95.3466 484.429 95.4106 484.578 95.4106 484.77C95.4106 484.973 95.3466 485.127 95.2186 485.234C95.1013 485.341 94.9306 485.394 94.7066 485.394H93.1226V489.266C93.1226 489.767 93.224 490.135 93.4266 490.37C93.64 490.605 93.96 490.738 94.3866 490.77L94.8346 490.802ZM97.4673 492.034C97.2326 492.034 97.0353 491.97 96.8753 491.842C96.7259 491.714 96.6513 491.522 96.6513 491.266V484.77C96.6513 484.514 96.7259 484.322 96.8753 484.194C97.0353 484.055 97.2326 483.986 97.4673 483.986C97.7019 483.986 97.8939 484.055 98.0433 484.194C98.1926 484.322 98.2673 484.514 98.2673 484.77V491.266C98.2673 491.522 98.1926 491.714 98.0433 491.842C97.8939 491.97 97.7019 492.034 97.4673 492.034ZM97.4673 482.418C97.1579 482.418 96.9126 482.333 96.7313 482.162C96.5499 481.991 96.4593 481.767 96.4593 481.49C96.4593 481.213 96.5499 480.994 96.7313 480.834C96.9126 480.663 97.1579 480.578 97.4673 480.578C97.7659 480.578 98.0059 480.663 98.1873 480.834C98.3793 480.994 98.4753 481.213 98.4753 481.49C98.4753 481.767 98.3846 481.991 98.2033 482.162C98.0219 482.333 97.7766 482.418 97.4673 482.418ZM106.798 482.418C106.489 482.418 106.244 482.333 106.062 482.162C105.881 481.991 105.79 481.767 105.79 481.49C105.79 481.213 105.881 480.994 106.062 480.834C106.244 480.663 106.489 480.578 106.798 480.578C107.097 480.578 107.337 480.663 107.518 480.834C107.71 480.994 107.806 481.213 107.806 481.49C107.806 481.767 107.716 481.991 107.534 482.162C107.353 482.333 107.108 482.418 106.798 482.418ZM106.894 484.146C107.118 484.146 107.289 484.205 107.406 484.322C107.534 484.429 107.598 484.578 107.598 484.77V491.266C107.598 491.522 107.524 491.714 107.374 491.842C107.225 491.97 107.033 492.034 106.798 492.034C106.564 492.034 106.366 491.97 106.206 491.842C106.057 491.714 105.982 491.522 105.982 491.266V485.394H102.638V491.25C102.638 491.506 102.558 491.703 102.398 491.842C102.249 491.97 102.057 492.034 101.822 492.034C101.588 492.034 101.396 491.97 101.246 491.842C101.097 491.703 101.022 491.506 101.022 491.25V485.394H100.062C99.8383 485.394 99.6623 485.341 99.5343 485.234C99.4169 485.117 99.3582 484.962 99.3582 484.77C99.3582 484.578 99.4169 484.429 99.5343 484.322C99.6623 484.205 99.8383 484.146 100.062 484.146H101.022V483.97C101.022 482.989 101.273 482.221 101.774 481.666C102.276 481.101 102.985 480.775 103.902 480.69L104.286 480.658L104.494 480.642C104.964 480.642 105.198 480.839 105.198 481.234C105.198 481.607 104.99 481.821 104.574 481.874L104.206 481.906C103.673 481.949 103.278 482.119 103.022 482.418C102.766 482.706 102.638 483.133 102.638 483.698V484.146H106.894ZM113.198 492.066C112.441 492.066 111.774 491.901 111.198 491.57C110.633 491.239 110.19 490.77 109.87 490.162C109.561 489.554 109.406 488.85 109.406 488.05C109.406 487.239 109.566 486.525 109.886 485.906C110.217 485.287 110.676 484.807 111.262 484.466C111.849 484.125 112.521 483.954 113.278 483.954C113.684 483.954 114.089 484.013 114.494 484.13C114.91 484.247 115.278 484.407 115.598 484.61C115.94 484.845 116.11 485.117 116.11 485.426C116.11 485.607 116.062 485.762 115.966 485.89C115.87 486.007 115.748 486.066 115.598 486.066C115.502 486.066 115.406 486.045 115.31 486.002C115.214 485.949 115.092 485.874 114.942 485.778C114.676 485.607 114.425 485.479 114.19 485.394C113.966 485.298 113.694 485.25 113.374 485.25C112.649 485.25 112.084 485.495 111.678 485.986C111.284 486.477 111.086 487.159 111.086 488.034C111.086 488.909 111.284 489.586 111.678 490.066C112.073 490.535 112.633 490.77 113.358 490.77C113.678 490.77 113.961 490.722 114.206 490.626C114.452 490.53 114.702 490.402 114.958 490.242C115.076 490.167 115.193 490.103 115.31 490.05C115.428 489.997 115.534 489.97 115.63 489.97C115.78 489.97 115.902 490.034 115.998 490.162C116.094 490.279 116.142 490.429 116.142 490.61C116.142 490.759 116.1 490.898 116.014 491.026C115.94 491.143 115.806 491.266 115.614 491.394C115.294 491.607 114.921 491.773 114.494 491.89C114.068 492.007 113.636 492.066 113.198 492.066ZM120.869 483.954C121.903 483.954 122.671 484.215 123.173 484.738C123.685 485.261 123.941 486.055 123.941 487.122V491.266C123.941 491.511 123.871 491.703 123.733 491.842C123.594 491.97 123.402 492.034 123.157 492.034C122.922 492.034 122.735 491.965 122.597 491.826C122.458 491.687 122.389 491.501 122.389 491.266V490.674C122.186 491.122 121.882 491.469 121.477 491.714C121.082 491.949 120.618 492.066 120.085 492.066C119.573 492.066 119.103 491.965 118.677 491.762C118.261 491.549 117.93 491.261 117.685 490.898C117.439 490.535 117.317 490.125 117.317 489.666C117.306 489.09 117.45 488.642 117.749 488.322C118.047 487.991 118.533 487.757 119.205 487.618C119.877 487.469 120.81 487.394 122.005 487.394H122.373V486.93C122.373 486.333 122.25 485.901 122.005 485.634C121.759 485.367 121.365 485.234 120.821 485.234C120.447 485.234 120.095 485.282 119.765 485.378C119.434 485.474 119.071 485.613 118.677 485.794C118.389 485.954 118.186 486.034 118.069 486.034C117.909 486.034 117.775 485.975 117.669 485.858C117.573 485.741 117.525 485.591 117.525 485.41C117.525 485.25 117.567 485.111 117.653 484.994C117.749 484.866 117.898 484.743 118.101 484.626C118.474 484.423 118.911 484.263 119.413 484.146C119.914 484.018 120.399 483.954 120.869 483.954ZM120.373 490.866C120.959 490.866 121.439 490.669 121.813 490.274C122.186 489.869 122.373 489.351 122.373 488.722V488.306H122.085C121.253 488.306 120.613 488.343 120.165 488.418C119.717 488.493 119.397 488.621 119.205 488.802C119.013 488.973 118.917 489.223 118.917 489.554C118.917 489.938 119.055 490.253 119.333 490.498C119.61 490.743 119.957 490.866 120.373 490.866ZM129.975 490.802C130.21 490.823 130.375 490.887 130.471 490.994C130.578 491.09 130.631 491.229 130.631 491.41C130.631 491.623 130.546 491.789 130.375 491.906C130.215 492.013 129.975 492.055 129.655 492.034L129.223 492.002C128.359 491.938 127.714 491.677 127.287 491.218C126.861 490.749 126.647 490.061 126.647 489.154V485.394H125.687C125.218 485.394 124.983 485.186 124.983 484.77C124.983 484.578 125.042 484.429 125.159 484.322C125.287 484.205 125.463 484.146 125.687 484.146H126.647V482.498C126.647 482.253 126.717 482.061 126.855 481.922C127.005 481.783 127.202 481.714 127.447 481.714C127.693 481.714 127.89 481.783 128.039 481.922C128.189 482.061 128.263 482.253 128.263 482.498V484.146H129.847C130.071 484.146 130.242 484.205 130.359 484.322C130.487 484.429 130.551 484.578 130.551 484.77C130.551 484.973 130.487 485.127 130.359 485.234C130.242 485.341 130.071 485.394 129.847 485.394H128.263V489.266C128.263 489.767 128.365 490.135 128.567 490.37C128.781 490.605 129.101 490.738 129.527 490.77L129.975 490.802ZM132.608 492.034C132.373 492.034 132.176 491.97 132.016 491.842C131.867 491.714 131.792 491.522 131.792 491.266V484.77C131.792 484.514 131.867 484.322 132.016 484.194C132.176 484.055 132.373 483.986 132.608 483.986C132.843 483.986 133.035 484.055 133.184 484.194C133.333 484.322 133.408 484.514 133.408 484.77V491.266C133.408 491.522 133.333 491.714 133.184 491.842C133.035 491.97 132.843 492.034 132.608 492.034ZM132.608 482.418C132.299 482.418 132.053 482.333 131.872 482.162C131.691 481.991 131.6 481.767 131.6 481.49C131.6 481.213 131.691 480.994 131.872 480.834C132.053 480.663 132.299 480.578 132.608 480.578C132.907 480.578 133.147 480.663 133.328 480.834C133.52 480.994 133.616 481.213 133.616 481.49C133.616 481.767 133.525 481.991 133.344 482.162C133.163 482.333 132.917 482.418 132.608 482.418ZM139.059 492.066C138.291 492.066 137.614 491.901 137.027 491.57C136.451 491.239 136.003 490.77 135.683 490.162C135.374 489.543 135.219 488.829 135.219 488.018C135.219 487.197 135.374 486.482 135.683 485.874C136.003 485.255 136.451 484.781 137.027 484.45C137.614 484.119 138.291 483.954 139.059 483.954C139.827 483.954 140.499 484.119 141.075 484.45C141.662 484.781 142.11 485.255 142.419 485.874C142.739 486.482 142.899 487.197 142.899 488.018C142.899 488.829 142.739 489.543 142.419 490.162C142.11 490.77 141.662 491.239 141.075 491.57C140.499 491.901 139.827 492.066 139.059 492.066ZM139.059 490.786C139.774 490.786 140.318 490.551 140.691 490.082C141.075 489.613 141.267 488.925 141.267 488.018C141.267 487.122 141.075 486.439 140.691 485.97C140.307 485.49 139.763 485.25 139.059 485.25C138.355 485.25 137.811 485.49 137.427 485.97C137.043 486.439 136.851 487.122 136.851 488.018C136.851 488.925 137.038 489.613 137.411 490.082C137.795 490.551 138.344 490.786 139.059 490.786ZM148.906 483.954C150.773 483.954 151.706 485.005 151.706 487.106V491.266C151.706 491.511 151.631 491.703 151.482 491.842C151.343 491.97 151.146 492.034 150.89 492.034C150.645 492.034 150.447 491.965 150.298 491.826C150.159 491.687 150.09 491.501 150.09 491.266V487.186C150.09 486.525 149.957 486.039 149.69 485.73C149.434 485.421 149.029 485.266 148.474 485.266C147.823 485.266 147.301 485.469 146.906 485.874C146.511 486.279 146.314 486.823 146.314 487.506V491.266C146.314 491.501 146.239 491.687 146.09 491.826C145.951 491.965 145.759 492.034 145.514 492.034C145.269 492.034 145.071 491.965 144.922 491.826C144.773 491.687 144.698 491.501 144.698 491.266V484.754C144.698 484.53 144.773 484.349 144.922 484.21C145.082 484.061 145.279 483.986 145.514 483.986C145.749 483.986 145.935 484.055 146.074 484.194C146.213 484.333 146.282 484.514 146.282 484.738V485.394C146.538 484.925 146.895 484.567 147.354 484.322C147.813 484.077 148.33 483.954 148.906 483.954Z" fill="#030229"/>
<g opacity="0.4">
<path fill-rule="evenodd" clip-rule="evenodd" d="M49.7071 483.82C49.7071 485.203 50.039 486.018 50.7695 486.957C51.3231 487.649 51.5 488.538 51.5 489.502C51.5 490.464 51.2128 491.378 50.6373 492.12C49.884 493.01 48.8215 493.578 47.7372 493.676C46.1659 493.824 44.5937 493.948 43.0005 493.948C41.4063 493.948 39.835 493.874 38.2638 493.676C37.1785 493.578 36.116 493.01 35.3637 492.12C34.7882 491.378 34.5 490.464 34.5 489.502C34.5 488.538 34.6779 487.649 35.2305 486.957C35.9838 486.018 36.2939 485.203 36.2939 483.82V483.35C36.2939 481.498 36.7133 480.287 37.577 479.101C38.8611 477.372 40.9194 476.335 42.9558 476.335H43.0452C45.1254 476.335 47.2502 477.422 48.5125 479.226C49.3314 480.387 49.7071 481.547 49.7071 483.35V483.82ZM40.0737 496.225C40.0737 495.67 40.5358 495.416 40.9632 495.307C41.4631 495.191 44.5093 495.191 45.0092 495.307C45.4365 495.416 45.8987 495.67 45.8987 496.225C45.8738 496.753 45.5926 497.221 45.204 497.518C44.7001 497.95 44.1087 498.224 43.4906 498.323C43.1487 498.372 42.8128 498.373 42.4828 498.323C41.8636 498.224 41.2723 497.95 40.7694 497.517C40.3798 497.221 40.0985 496.753 40.0737 496.225Z" fill="#030229"/>
</g>
<g opacity="0.4">
<path fill-rule="evenodd" clip-rule="evenodd" d="M47.4109 410.752L47.4119 411.577C50.1665 411.815 51.9862 413.882 51.9891 417.052L52 426.331C52.0039 429.787 50.0322 431.914 46.8718 431.919L39.1519 431.93C36.0112 431.935 34.0148 429.757 34.0109 426.291L34 417.122C33.9961 413.931 35.7515 411.869 38.5062 411.591L38.5052 410.765C38.5042 410.281 38.83 409.916 39.2644 409.916C39.6989 409.915 40.0247 410.279 40.0257 410.763L40.0267 411.533L45.8914 411.525L45.8904 410.754C45.8894 410.27 46.2152 409.907 46.6497 409.905C47.0742 409.904 47.4099 410.268 47.4109 410.752ZM35.5215 417.462L50.4696 417.44V417.054C50.4272 414.688 49.349 413.446 47.4138 413.261L47.4148 414.109C47.4148 414.582 47.0801 414.958 46.6556 414.958C46.2211 414.959 45.8943 414.584 45.8943 414.111L45.8933 413.22L40.0286 413.228L40.0296 414.119C40.0296 414.593 39.7048 414.967 39.2703 414.967C38.8359 414.969 38.5091 414.595 38.5091 414.121L38.5081 413.274C36.5828 413.486 35.5175 414.732 35.5205 417.119L35.5215 417.462ZM46.2399 422.464V422.476C46.2498 422.983 46.625 423.367 47.0801 423.356C47.5244 423.344 47.8789 422.924 47.869 422.418C47.8483 421.934 47.4918 421.539 47.0485 421.54C46.5943 421.551 46.2389 421.958 46.2399 422.464ZM47.0554 427.406C46.6013 427.395 46.235 426.978 46.234 426.472C46.2241 425.966 46.5884 425.546 47.0426 425.534H47.0525C47.5165 425.534 47.8927 425.951 47.8927 426.469C47.8937 426.986 47.5185 427.405 47.0554 427.406ZM42.1721 422.482C42.1919 422.988 42.568 423.383 43.0222 423.361C43.4665 423.338 43.821 422.92 43.8012 422.414C43.7903 421.918 43.425 421.533 42.9807 421.534C42.5266 421.556 42.1711 421.976 42.1721 422.482ZM43.0261 427.357C42.572 427.379 42.1968 426.984 42.176 426.477C42.176 425.971 42.5305 425.553 42.9847 425.53C43.429 425.529 43.7953 425.914 43.8051 426.408C43.8259 426.915 43.4704 427.334 43.0261 427.357ZM38.1043 422.52C38.1241 423.027 38.5002 423.423 38.9544 423.4C39.3987 423.378 39.7531 422.959 39.7324 422.452C39.7225 421.957 39.3572 421.572 38.9119 421.573C38.4578 421.595 38.1033 422.014 38.1043 422.52ZM38.9584 427.362C38.5042 427.385 38.129 426.989 38.1083 426.483C38.1073 425.977 38.4627 425.557 38.9169 425.535C39.3612 425.534 39.7275 425.919 39.7374 426.415C39.7581 426.921 39.4036 427.34 38.9584 427.362Z" fill="#030229"/>
</g>
<path opacity="0.5" d="M75.368 426.062C74.2267 426.062 73.2507 425.827 72.44 425.358C71.6293 424.889 71.0053 424.222 70.568 423.358C70.1413 422.483 69.928 421.454 69.928 420.27C69.928 419.385 70.0507 418.59 70.296 417.886C70.5413 417.171 70.8933 416.563 71.352 416.062C71.8213 415.55 72.392 415.161 73.064 414.894C73.7467 414.627 74.5147 414.494 75.368 414.494C75.9973 414.494 76.6 414.579 77.176 414.75C77.7627 414.921 78.2693 415.166 78.696 415.486C78.8773 415.603 78.9947 415.747 79.048 415.918C79.112 416.078 79.1227 416.233 79.08 416.382C79.048 416.531 78.9787 416.659 78.872 416.766C78.7653 416.862 78.6267 416.915 78.456 416.926C78.296 416.937 78.12 416.878 77.928 416.75C77.576 416.483 77.1867 416.286 76.76 416.158C76.3333 416.03 75.8853 415.966 75.416 415.966C74.6053 415.966 73.9227 416.137 73.368 416.478C72.8133 416.809 72.392 417.294 72.104 417.934C71.816 418.574 71.672 419.353 71.672 420.27C71.672 421.187 71.816 421.971 72.104 422.622C72.392 423.262 72.8133 423.753 73.368 424.094C73.9227 424.425 74.6053 424.59 75.416 424.59C75.8853 424.59 76.3333 424.526 76.76 424.398C77.1973 424.259 77.608 424.057 77.992 423.79C78.184 423.673 78.3547 423.619 78.504 423.63C78.664 423.641 78.7973 423.694 78.904 423.79C79.0107 423.886 79.08 424.009 79.112 424.158C79.1547 424.297 79.1493 424.446 79.096 424.606C79.0533 424.755 78.952 424.883 78.792 424.99C78.3547 425.342 77.8373 425.609 77.24 425.79C76.6427 425.971 76.0187 426.062 75.368 426.062ZM83.1789 426.062C82.6349 426.062 82.1442 425.955 81.7069 425.742C81.2802 425.529 80.9442 425.241 80.6989 424.878C80.4535 424.515 80.3309 424.105 80.3309 423.646C80.3309 423.07 80.4749 422.617 80.7629 422.286C81.0615 421.945 81.5469 421.705 82.2189 421.566C82.9015 421.417 83.8189 421.342 84.9709 421.342H85.7229V422.334H84.9869C84.2189 422.334 83.6109 422.371 83.1629 422.446C82.7149 422.521 82.3949 422.649 82.2029 422.83C82.0215 423.001 81.9309 423.241 81.9309 423.55C81.9309 423.955 82.0695 424.286 82.3469 424.542C82.6242 424.787 83.0082 424.91 83.4989 424.91C83.8935 424.91 84.2402 424.819 84.5389 424.638C84.8375 424.446 85.0722 424.19 85.2429 423.87C85.4242 423.55 85.5149 423.182 85.5149 422.766V420.926C85.5149 420.318 85.3869 419.881 85.1309 419.614C84.8749 419.347 84.4535 419.214 83.8669 419.214C83.5255 419.214 83.1682 419.257 82.7949 419.342C82.4322 419.427 82.0535 419.571 81.6589 419.774C81.4775 419.859 81.3229 419.886 81.1949 419.854C81.0669 419.822 80.9655 419.753 80.8909 419.646C80.8162 419.529 80.7735 419.406 80.7629 419.278C80.7629 419.139 80.7949 419.006 80.8589 418.878C80.9335 418.75 81.0562 418.654 81.2269 418.59C81.6962 418.366 82.1602 418.206 82.6189 418.11C83.0775 418.014 83.5095 417.966 83.9149 417.966C84.6295 417.966 85.2162 418.078 85.6749 418.302C86.1442 418.526 86.4909 418.867 86.7149 419.326C86.9389 419.785 87.0509 420.377 87.0509 421.102V425.214C87.0509 425.47 86.9869 425.673 86.8589 425.822C86.7309 425.961 86.5442 426.03 86.2989 426.03C86.0642 426.03 85.8775 425.961 85.7389 425.822C85.6002 425.673 85.5309 425.47 85.5309 425.214V424.174H85.6749C85.5895 424.569 85.4295 424.91 85.1949 425.198C84.9709 425.475 84.6882 425.689 84.3469 425.838C84.0055 425.987 83.6162 426.062 83.1789 426.062ZM91.7886 426.062C90.9566 426.062 90.3273 425.822 89.9006 425.342C89.4846 424.851 89.2766 424.147 89.2766 423.23V415.342C89.2766 415.075 89.346 414.873 89.4846 414.734C89.6233 414.595 89.8206 414.526 90.0766 414.526C90.3326 414.526 90.53 414.595 90.6686 414.734C90.818 414.873 90.8926 415.075 90.8926 415.342V423.134C90.8926 423.667 90.9993 424.067 91.2126 424.334C91.4366 424.59 91.7566 424.718 92.1726 424.718C92.2686 424.718 92.354 424.718 92.4286 424.718C92.5033 424.707 92.578 424.697 92.6526 424.686C92.7806 424.675 92.8713 424.713 92.9246 424.798C92.978 424.873 93.0046 425.033 93.0046 425.278C93.0046 425.502 92.9566 425.678 92.8606 425.806C92.7646 425.923 92.61 425.998 92.3966 426.03C92.3006 426.041 92.1993 426.046 92.0926 426.046C91.986 426.057 91.8846 426.062 91.7886 426.062ZM97.7531 426.062C96.8998 426.062 96.1638 425.902 95.5451 425.582C94.9371 425.251 94.4625 424.787 94.1211 424.19C93.7905 423.582 93.6251 422.862 93.6251 422.03C93.6251 421.219 93.7905 420.51 94.1211 419.902C94.4518 419.294 94.9051 418.819 95.4811 418.478C96.0571 418.137 96.7131 417.966 97.4491 417.966C97.9931 417.966 98.4785 418.057 98.9051 418.238C99.3318 418.409 99.6945 418.665 99.9931 419.006C100.302 419.337 100.532 419.742 100.681 420.222C100.841 420.702 100.921 421.241 100.921 421.838C100.921 422.019 100.868 422.158 100.761 422.254C100.654 422.339 100.494 422.382 100.281 422.382H94.9051V421.39H99.8331L99.5611 421.614C99.5611 421.081 99.4811 420.627 99.3211 420.254C99.1718 419.881 98.9425 419.598 98.6331 419.406C98.3345 419.203 97.9611 419.102 97.5131 419.102C97.0118 419.102 96.5851 419.219 96.2331 419.454C95.8918 419.689 95.6305 420.014 95.4491 420.43C95.2678 420.846 95.1771 421.331 95.1771 421.886V421.982C95.1771 422.921 95.3958 423.63 95.8331 424.11C96.2811 424.579 96.9265 424.814 97.7691 424.814C98.0891 424.814 98.4251 424.771 98.7771 424.686C99.1398 424.601 99.4811 424.457 99.8011 424.254C99.9825 424.147 100.142 424.099 100.281 424.11C100.43 424.121 100.548 424.169 100.633 424.254C100.729 424.339 100.788 424.446 100.809 424.574C100.83 424.702 100.809 424.835 100.745 424.974C100.681 425.102 100.569 425.219 100.409 425.326C100.046 425.571 99.6251 425.758 99.1451 425.886C98.6651 426.003 98.2011 426.062 97.7531 426.062ZM103.483 426.03C103.227 426.03 103.03 425.961 102.891 425.822C102.752 425.673 102.683 425.47 102.683 425.214V418.814C102.683 418.547 102.752 418.345 102.891 418.206C103.03 418.067 103.222 417.998 103.467 417.998C103.723 417.998 103.915 418.067 104.043 418.206C104.182 418.345 104.251 418.547 104.251 418.814V420.062L104.075 419.774C104.31 419.177 104.678 418.729 105.179 418.43C105.68 418.121 106.256 417.966 106.907 417.966C107.526 417.966 108.038 418.083 108.443 418.318C108.859 418.542 109.168 418.889 109.371 419.358C109.574 419.817 109.675 420.398 109.675 421.102V425.214C109.675 425.47 109.606 425.673 109.467 425.822C109.328 425.961 109.131 426.03 108.875 426.03C108.608 426.03 108.406 425.961 108.267 425.822C108.128 425.673 108.059 425.47 108.059 425.214V421.198C108.059 420.526 107.926 420.035 107.659 419.726C107.403 419.417 106.998 419.262 106.443 419.262C105.792 419.262 105.27 419.465 104.875 419.87C104.491 420.275 104.299 420.819 104.299 421.502V425.214C104.299 425.758 104.027 426.03 103.483 426.03ZM114.878 426.062C114.195 426.062 113.592 425.902 113.07 425.582C112.558 425.251 112.158 424.782 111.87 424.174C111.582 423.555 111.438 422.835 111.438 422.014C111.438 421.171 111.582 420.451 111.87 419.854C112.158 419.257 112.558 418.793 113.07 418.462C113.592 418.131 114.195 417.966 114.878 417.966C115.56 417.966 116.147 418.137 116.638 418.478C117.139 418.809 117.475 419.257 117.646 419.822H117.47V415.342C117.47 415.075 117.539 414.873 117.678 414.734C117.816 414.595 118.014 414.526 118.27 414.526C118.526 414.526 118.723 414.595 118.862 414.734C119.011 414.873 119.086 415.075 119.086 415.342V425.214C119.086 425.47 119.016 425.673 118.878 425.822C118.739 425.961 118.542 426.03 118.286 426.03C118.03 426.03 117.832 425.961 117.694 425.822C117.555 425.673 117.486 425.47 117.486 425.214V423.806L117.662 424.158C117.491 424.734 117.155 425.198 116.654 425.55C116.163 425.891 115.571 426.062 114.878 426.062ZM115.294 424.814C115.731 424.814 116.115 424.707 116.446 424.494C116.776 424.281 117.032 423.966 117.214 423.55C117.406 423.134 117.502 422.622 117.502 422.014C117.502 421.097 117.299 420.403 116.894 419.934C116.488 419.465 115.955 419.23 115.294 419.23C114.846 419.23 114.456 419.337 114.126 419.55C113.795 419.753 113.534 420.062 113.342 420.478C113.16 420.894 113.07 421.406 113.07 422.014C113.07 422.921 113.272 423.614 113.678 424.094C114.083 424.574 114.622 424.814 115.294 424.814ZM123.851 426.062C123.307 426.062 122.816 425.955 122.379 425.742C121.952 425.529 121.616 425.241 121.371 424.878C121.125 424.515 121.003 424.105 121.003 423.646C121.003 423.07 121.147 422.617 121.435 422.286C121.733 421.945 122.219 421.705 122.891 421.566C123.573 421.417 124.491 421.342 125.643 421.342H126.395V422.334H125.659C124.891 422.334 124.283 422.371 123.835 422.446C123.387 422.521 123.067 422.649 122.875 422.83C122.693 423.001 122.603 423.241 122.603 423.55C122.603 423.955 122.741 424.286 123.019 424.542C123.296 424.787 123.68 424.91 124.171 424.91C124.565 424.91 124.912 424.819 125.211 424.638C125.509 424.446 125.744 424.19 125.915 423.87C126.096 423.55 126.187 423.182 126.187 422.766V420.926C126.187 420.318 126.059 419.881 125.803 419.614C125.547 419.347 125.125 419.214 124.539 419.214C124.197 419.214 123.84 419.257 123.467 419.342C123.104 419.427 122.725 419.571 122.331 419.774C122.149 419.859 121.995 419.886 121.867 419.854C121.739 419.822 121.637 419.753 121.563 419.646C121.488 419.529 121.445 419.406 121.435 419.278C121.435 419.139 121.467 419.006 121.531 418.878C121.605 418.75 121.728 418.654 121.899 418.59C122.368 418.366 122.832 418.206 123.291 418.11C123.749 418.014 124.181 417.966 124.587 417.966C125.301 417.966 125.888 418.078 126.347 418.302C126.816 418.526 127.163 418.867 127.387 419.326C127.611 419.785 127.723 420.377 127.723 421.102V425.214C127.723 425.47 127.659 425.673 127.531 425.822C127.403 425.961 127.216 426.03 126.971 426.03C126.736 426.03 126.549 425.961 126.411 425.822C126.272 425.673 126.203 425.47 126.203 425.214V424.174H126.347C126.261 424.569 126.101 424.91 125.867 425.198C125.643 425.475 125.36 425.689 125.019 425.838C124.677 425.987 124.288 426.062 123.851 426.062ZM130.765 426.03C130.498 426.03 130.295 425.961 130.157 425.822C130.018 425.673 129.949 425.47 129.949 425.214V418.814C129.949 418.547 130.018 418.345 130.157 418.206C130.295 418.067 130.487 417.998 130.733 417.998C130.989 417.998 131.181 418.067 131.309 418.206C131.447 418.345 131.517 418.547 131.517 418.814V419.982H131.357C131.527 419.342 131.842 418.857 132.301 418.526C132.759 418.195 133.346 418.003 134.061 417.95C134.253 417.939 134.402 417.987 134.509 418.094C134.626 418.201 134.69 418.366 134.701 418.59C134.722 418.814 134.674 418.995 134.557 419.134C134.439 419.262 134.258 419.337 134.013 419.358L133.709 419.39C133.015 419.454 132.487 419.673 132.125 420.046C131.762 420.419 131.581 420.931 131.581 421.582V425.214C131.581 425.47 131.511 425.673 131.373 425.822C131.245 425.961 131.042 426.03 130.765 426.03Z" fill="#030229"/>
<path opacity="0.5" d="M74.04 359.401C73.2293 359.401 72.456 359.289 71.72 359.065C70.9947 358.841 70.4133 358.532 69.976 358.137C69.7733 357.966 69.672 357.748 69.672 357.481C69.672 357.289 69.7253 357.129 69.832 357.001C69.9387 356.862 70.0667 356.793 70.216 356.793C70.3653 356.793 70.5467 356.862 70.76 357.001C71.7093 357.705 72.792 358.057 74.008 358.057C74.8613 358.057 75.5173 357.897 75.976 357.577C76.4347 357.257 76.664 356.798 76.664 356.201C76.664 355.732 76.4507 355.38 76.024 355.145C75.5973 354.91 74.9147 354.686 73.976 354.473C73.08 354.281 72.344 354.062 71.768 353.817C71.192 353.572 70.7387 353.241 70.408 352.825C70.088 352.398 69.928 351.86 69.928 351.209C69.928 350.558 70.104 349.982 70.456 349.481C70.8187 348.969 71.32 348.574 71.96 348.297C72.6 348.009 73.3307 347.865 74.152 347.865C74.9093 347.865 75.608 347.972 76.248 348.185C76.888 348.398 77.432 348.713 77.88 349.129C78.0933 349.31 78.2 349.529 78.2 349.785C78.2 349.966 78.1413 350.126 78.024 350.265C77.9173 350.404 77.7893 350.473 77.64 350.473C77.5013 350.473 77.3253 350.404 77.112 350.265C76.6213 349.892 76.1573 349.625 75.72 349.465C75.2933 349.294 74.776 349.209 74.168 349.209C73.3467 349.209 72.7067 349.38 72.248 349.721C71.7893 350.052 71.56 350.516 71.56 351.113C71.56 351.625 71.7627 352.014 72.168 352.281C72.5733 352.537 73.224 352.772 74.12 352.985C75.0587 353.198 75.816 353.422 76.392 353.657C76.9787 353.881 77.4427 354.196 77.784 354.601C78.136 354.996 78.312 355.508 78.312 356.137C78.312 356.777 78.1307 357.348 77.768 357.849C77.416 358.34 76.9147 358.724 76.264 359.001C75.624 359.268 74.8827 359.401 74.04 359.401ZM83.4953 359.385C82.7379 359.385 82.0713 359.22 81.4953 358.889C80.9299 358.558 80.4873 358.089 80.1673 357.481C79.8579 356.873 79.7033 356.169 79.7033 355.369C79.7033 354.558 79.8633 353.844 80.1833 353.225C80.5139 352.606 80.9726 352.126 81.5593 351.785C82.1459 351.444 82.8179 351.273 83.5753 351.273C83.9806 351.273 84.3859 351.332 84.7913 351.449C85.2073 351.566 85.5753 351.726 85.8953 351.929C86.2366 352.164 86.4073 352.436 86.4073 352.745C86.4073 352.926 86.3593 353.081 86.2633 353.209C86.1673 353.326 86.0446 353.385 85.8953 353.385C85.7993 353.385 85.7033 353.364 85.6073 353.321C85.5113 353.268 85.3886 353.193 85.2393 353.097C84.9726 352.926 84.7219 352.798 84.4873 352.713C84.2633 352.617 83.9913 352.569 83.6713 352.569C82.9459 352.569 82.3806 352.814 81.9753 353.305C81.5806 353.796 81.3832 354.478 81.3832 355.353C81.3832 356.228 81.5806 356.905 81.9753 357.385C82.3699 357.854 82.9299 358.089 83.6553 358.089C83.9753 358.089 84.2579 358.041 84.5033 357.945C84.7486 357.849 84.9993 357.721 85.2553 357.561C85.3726 357.486 85.4899 357.422 85.6073 357.369C85.7246 357.316 85.8313 357.289 85.9273 357.289C86.0766 357.289 86.1993 357.353 86.2953 357.481C86.3913 357.598 86.4393 357.748 86.4393 357.929C86.4393 358.078 86.3966 358.217 86.3113 358.345C86.2366 358.462 86.1033 358.585 85.9113 358.713C85.5913 358.926 85.2179 359.092 84.7913 359.209C84.3646 359.326 83.9326 359.385 83.4953 359.385ZM92.1096 351.273C93.9656 351.273 94.8936 352.324 94.8936 354.425V358.585C94.8936 358.82 94.819 359.006 94.6696 359.145C94.5203 359.284 94.323 359.353 94.0776 359.353C93.8323 359.353 93.635 359.284 93.4856 359.145C93.347 359.006 93.2776 358.82 93.2776 358.585V354.441C93.2776 353.801 93.1443 353.332 92.8776 353.033C92.6216 352.734 92.2163 352.585 91.6616 352.585C91.011 352.585 90.4883 352.788 90.0936 353.193C89.699 353.598 89.5016 354.142 89.5016 354.825V358.585C89.5016 358.82 89.427 359.006 89.2776 359.145C89.139 359.284 88.947 359.353 88.7016 359.353C88.4563 359.353 88.259 359.284 88.1096 359.145C87.9603 359.006 87.8856 358.82 87.8856 358.585V348.681C87.8856 348.446 87.9603 348.26 88.1096 348.121C88.2696 347.982 88.4723 347.913 88.7176 347.913C88.9523 347.913 89.139 347.982 89.2776 348.121C89.427 348.249 89.5016 348.425 89.5016 348.649V352.649C89.7683 352.201 90.1256 351.86 90.5736 351.625C91.0216 351.39 91.5336 351.273 92.1096 351.273ZM103.216 357.305C103.366 357.305 103.488 357.364 103.584 357.481C103.68 357.598 103.728 357.748 103.728 357.929C103.728 358.238 103.536 358.5 103.152 358.713C102.779 358.926 102.368 359.092 101.92 359.209C101.483 359.326 101.062 359.385 100.656 359.385C99.419 359.385 98.443 359.028 97.7284 358.313C97.0137 357.588 96.6564 356.601 96.6564 355.353C96.6564 354.553 96.811 353.844 97.1204 353.225C97.4404 352.606 97.883 352.126 98.4484 351.785C99.0244 351.444 99.675 351.273 100.4 351.273C101.446 351.273 102.272 351.609 102.88 352.281C103.488 352.953 103.792 353.86 103.792 355.001C103.792 355.428 103.6 355.641 103.216 355.641H98.2724C98.379 357.294 99.1737 358.121 100.656 358.121C101.051 358.121 101.392 358.068 101.68 357.961C101.968 357.854 102.272 357.716 102.592 357.545C102.624 357.524 102.71 357.481 102.848 357.417C102.998 357.342 103.12 357.305 103.216 357.305ZM100.432 352.457C99.8137 352.457 99.3177 352.654 98.9444 353.049C98.571 353.444 98.347 353.998 98.2724 354.713H102.4C102.368 353.988 102.182 353.433 101.84 353.049C101.51 352.654 101.04 352.457 100.432 352.457ZM111.957 347.913C112.202 347.913 112.4 347.982 112.549 348.121C112.698 348.26 112.773 348.446 112.773 348.681V358.569C112.773 358.814 112.698 359.006 112.549 359.145C112.41 359.284 112.218 359.353 111.973 359.353C111.728 359.353 111.53 359.284 111.381 359.145C111.242 359.006 111.173 358.814 111.173 358.569V357.929C110.938 358.398 110.597 358.761 110.149 359.017C109.701 359.262 109.184 359.385 108.597 359.385C107.925 359.385 107.322 359.214 106.789 358.873C106.266 358.532 105.856 358.052 105.557 357.433C105.269 356.814 105.125 356.105 105.125 355.305C105.125 354.494 105.269 353.785 105.557 353.177C105.856 352.569 106.266 352.1 106.789 351.769C107.312 351.438 107.914 351.273 108.597 351.273C109.184 351.273 109.696 351.401 110.133 351.657C110.581 351.902 110.922 352.254 111.157 352.713V348.649C111.157 348.425 111.226 348.249 111.365 348.121C111.514 347.982 111.712 347.913 111.957 347.913ZM108.981 358.105C109.674 358.105 110.213 357.865 110.597 357.385C110.981 356.905 111.173 356.222 111.173 355.337C111.173 354.452 110.981 353.769 110.597 353.289C110.224 352.809 109.685 352.569 108.981 352.569C108.277 352.569 107.728 352.809 107.333 353.289C106.949 353.758 106.757 354.43 106.757 355.305C106.757 356.18 106.954 356.868 107.349 357.369C107.744 357.86 108.288 358.105 108.981 358.105ZM121.074 351.305C121.32 351.305 121.512 351.374 121.65 351.513C121.8 351.652 121.874 351.844 121.874 352.089V358.601C121.874 358.825 121.8 359.006 121.65 359.145C121.501 359.284 121.304 359.353 121.058 359.353C120.834 359.353 120.653 359.289 120.514 359.161C120.376 359.022 120.306 358.841 120.306 358.617V358.009C120.061 358.457 119.72 358.798 119.282 359.033C118.856 359.268 118.376 359.385 117.842 359.385C115.944 359.385 114.994 358.34 114.994 356.249V352.089C114.994 351.844 115.064 351.652 115.202 351.513C115.352 351.374 115.554 351.305 115.81 351.305C116.056 351.305 116.248 351.374 116.386 351.513C116.536 351.652 116.61 351.844 116.61 352.089V356.233C116.61 356.862 116.738 357.326 116.994 357.625C117.25 357.924 117.645 358.073 118.178 358.073C118.808 358.073 119.309 357.87 119.682 357.465C120.066 357.06 120.258 356.521 120.258 355.849V352.089C120.258 351.854 120.333 351.668 120.482 351.529C120.632 351.38 120.829 351.305 121.074 351.305ZM124.952 359.353C124.717 359.353 124.52 359.289 124.36 359.161C124.21 359.033 124.136 358.841 124.136 358.585V348.697C124.136 348.441 124.21 348.249 124.36 348.121C124.52 347.982 124.717 347.913 124.952 347.913C125.186 347.913 125.378 347.982 125.528 348.121C125.677 348.249 125.752 348.441 125.752 348.697V358.585C125.752 358.841 125.677 359.033 125.528 359.161C125.378 359.289 125.186 359.353 124.952 359.353ZM134.123 357.305C134.272 357.305 134.395 357.364 134.491 357.481C134.587 357.598 134.635 357.748 134.635 357.929C134.635 358.238 134.443 358.5 134.059 358.713C133.685 358.926 133.275 359.092 132.827 359.209C132.389 359.326 131.968 359.385 131.563 359.385C130.325 359.385 129.349 359.028 128.635 358.313C127.92 357.588 127.563 356.601 127.563 355.353C127.563 354.553 127.717 353.844 128.027 353.225C128.347 352.606 128.789 352.126 129.355 351.785C129.931 351.444 130.581 351.273 131.307 351.273C132.352 351.273 133.179 351.609 133.787 352.281C134.395 352.953 134.699 353.86 134.699 355.001C134.699 355.428 134.507 355.641 134.123 355.641H129.179C129.285 357.294 130.08 358.121 131.563 358.121C131.957 358.121 132.299 358.068 132.587 357.961C132.875 357.854 133.179 357.716 133.499 357.545C133.531 357.524 133.616 357.481 133.755 357.417C133.904 357.342 134.027 357.305 134.123 357.305ZM131.339 352.457C130.72 352.457 130.224 352.654 129.851 353.049C129.477 353.444 129.253 353.998 129.179 354.713H133.307C133.275 353.988 133.088 353.433 132.747 353.049C132.416 352.654 131.947 352.457 131.339 352.457Z" fill="#030229"/>
<g opacity="0.4">
<path fill-rule="evenodd" clip-rule="evenodd" d="M38.81 343.476H47.191C50.28 343.476 52 345.436 52 348.795V360.17C52 363.584 50.28 365.5 47.191 365.5H38.81C35.77 365.5 34 363.584 34 360.17V348.795C34 345.436 35.77 343.476 38.81 343.476ZM39.08 348.607V348.596H42.069C42.5 348.596 42.85 348.982 42.85 349.454C42.85 349.94 42.5 350.325 42.069 350.325H39.08C38.649 350.325 38.3 349.94 38.3 349.466C38.3 348.993 38.649 348.607 39.08 348.607ZM39.08 355.303H46.92C47.35 355.303 47.7 354.918 47.7 354.444C47.7 353.97 47.35 353.584 46.92 353.584H39.08C38.649 353.584 38.3 353.97 38.3 354.444C38.3 354.918 38.649 355.303 39.08 355.303ZM39.08 360.336H46.92C47.319 360.292 47.62 359.916 47.62 359.477C47.62 359.025 47.319 358.651 46.92 358.607H39.08C38.78 358.574 38.49 358.728 38.33 359.014C38.17 359.289 38.17 359.653 38.33 359.939C38.49 360.215 38.78 360.38 39.08 360.336Z" fill="#030229"/>
</g>
<path opacity="0.5" d="M71.144 293.385C70.8773 293.385 70.6693 293.31 70.52 293.161C70.3813 293.012 70.312 292.804 70.312 292.537V282.729C70.312 282.452 70.3813 282.244 70.52 282.105C70.6693 281.956 70.8773 281.881 71.144 281.881C71.4107 281.881 71.6133 281.956 71.752 282.105C71.9013 282.244 71.976 282.452 71.976 282.729V292.537C71.976 292.804 71.9067 293.012 71.768 293.161C71.6293 293.31 71.4213 293.385 71.144 293.385ZM75.2173 293.385C74.9613 293.385 74.7639 293.316 74.6253 293.177C74.4866 293.028 74.4173 292.825 74.4173 292.569V286.169C74.4173 285.902 74.4866 285.7 74.6253 285.561C74.7639 285.422 74.9559 285.353 75.2013 285.353C75.4573 285.353 75.6493 285.422 75.7773 285.561C75.9159 285.7 75.9853 285.902 75.9853 286.169V287.417L75.8093 287.129C76.0439 286.532 76.4119 286.084 76.9133 285.785C77.4146 285.476 77.9906 285.321 78.6413 285.321C79.2599 285.321 79.7719 285.438 80.1773 285.673C80.5933 285.897 80.9026 286.244 81.1053 286.713C81.3079 287.172 81.4093 287.753 81.4093 288.457V292.569C81.4093 292.825 81.3399 293.028 81.2013 293.177C81.0626 293.316 80.8653 293.385 80.6093 293.385C80.3426 293.385 80.1399 293.316 80.0013 293.177C79.8626 293.028 79.7933 292.825 79.7933 292.569V288.553C79.7933 287.881 79.6599 287.39 79.3933 287.081C79.1373 286.772 78.7319 286.617 78.1773 286.617C77.5266 286.617 77.0039 286.82 76.6093 287.225C76.2253 287.63 76.0333 288.174 76.0333 288.857V292.569C76.0333 293.113 75.7613 293.385 75.2173 293.385ZM86.5819 293.385C86.3579 293.385 86.1605 293.326 85.9899 293.209C85.8299 293.092 85.6965 292.91 85.5899 292.665L82.9179 286.457C82.8325 286.265 82.8005 286.084 82.8219 285.913C82.8432 285.742 82.9232 285.609 83.0619 285.513C83.2005 285.406 83.3872 285.353 83.6219 285.353C83.8245 285.353 83.9845 285.401 84.1019 285.497C84.2192 285.593 84.3259 285.758 84.4219 285.993L86.8379 291.945H86.3899L88.8539 285.993C88.9499 285.758 89.0565 285.593 89.1739 285.497C89.3019 285.401 89.4779 285.353 89.7019 285.353C89.8939 285.353 90.0432 285.406 90.1499 285.513C90.2672 285.609 90.3365 285.742 90.3579 285.913C90.3899 286.073 90.3632 286.249 90.2779 286.441L87.5739 292.665C87.4779 292.91 87.3445 293.092 87.1739 293.209C87.0032 293.326 86.8059 293.385 86.5819 293.385ZM95.1218 293.417C94.3324 293.417 93.6498 293.252 93.0738 292.921C92.5084 292.59 92.0658 292.121 91.7458 291.513C91.4258 290.905 91.2658 290.19 91.2658 289.369C91.2658 288.74 91.3564 288.18 91.5378 287.689C91.7191 287.198 91.9751 286.777 92.3058 286.425C92.6471 286.062 93.0524 285.79 93.5218 285.609C94.0018 285.417 94.5351 285.321 95.1218 285.321C95.9004 285.321 96.5724 285.486 97.1378 285.817C97.7138 286.148 98.1618 286.617 98.4818 287.225C98.8018 287.822 98.9618 288.537 98.9618 289.369C98.9618 289.988 98.8711 290.548 98.6898 291.049C98.5084 291.55 98.2471 291.977 97.9058 292.329C97.5751 292.681 97.1698 292.953 96.6898 293.145C96.2204 293.326 95.6978 293.417 95.1218 293.417ZM95.1218 292.169C95.5591 292.169 95.9431 292.062 96.2738 291.849C96.6044 291.636 96.8604 291.321 97.0418 290.905C97.2338 290.489 97.3298 289.977 97.3298 289.369C97.3298 288.452 97.1271 287.758 96.7218 287.289C96.3164 286.82 95.7831 286.585 95.1218 286.585C94.6738 286.585 94.2844 286.692 93.9538 286.905C93.6231 287.108 93.3618 287.417 93.1698 287.833C92.9884 288.249 92.8978 288.761 92.8978 289.369C92.8978 290.276 93.1004 290.969 93.5058 291.449C93.9111 291.929 94.4498 292.169 95.1218 292.169ZM101.577 293.369C101.321 293.369 101.123 293.294 100.985 293.145C100.846 292.985 100.777 292.766 100.777 292.489V286.249C100.777 285.972 100.846 285.758 100.985 285.609C101.123 285.46 101.321 285.385 101.577 285.385C101.833 285.385 102.03 285.46 102.169 285.609C102.318 285.758 102.393 285.972 102.393 286.249V292.489C102.393 292.766 102.323 292.985 102.185 293.145C102.046 293.294 101.843 293.369 101.577 293.369ZM101.577 283.721C101.257 283.721 101.006 283.641 100.825 283.481C100.654 283.321 100.569 283.097 100.569 282.809C100.569 282.51 100.654 282.286 100.825 282.137C101.006 281.977 101.257 281.897 101.577 281.897C101.897 281.897 102.142 281.977 102.313 282.137C102.494 282.286 102.585 282.51 102.585 282.809C102.585 283.097 102.494 283.321 102.313 283.481C102.142 283.641 101.897 283.721 101.577 283.721ZM108.107 293.417C107.307 293.417 106.614 293.252 106.027 292.921C105.451 292.58 105.003 292.105 104.683 291.497C104.363 290.878 104.203 290.153 104.203 289.321C104.203 288.702 104.294 288.148 104.475 287.657C104.657 287.156 104.913 286.734 105.243 286.393C105.585 286.052 105.995 285.79 106.475 285.609C106.966 285.417 107.51 285.321 108.107 285.321C108.481 285.321 108.87 285.38 109.275 285.497C109.691 285.604 110.075 285.785 110.427 286.041C110.566 286.126 110.651 286.233 110.683 286.361C110.726 286.478 110.731 286.601 110.699 286.729C110.678 286.857 110.619 286.969 110.523 287.065C110.438 287.15 110.331 287.204 110.203 287.225C110.075 287.236 109.937 287.198 109.787 287.113C109.531 286.932 109.27 286.804 109.003 286.729C108.737 286.644 108.481 286.601 108.235 286.601C107.851 286.601 107.51 286.665 107.211 286.793C106.923 286.91 106.678 287.086 106.475 287.321C106.273 287.545 106.118 287.828 106.011 288.169C105.915 288.51 105.867 288.9 105.867 289.337C105.867 290.212 106.07 290.9 106.475 291.401C106.891 291.892 107.478 292.137 108.235 292.137C108.481 292.137 108.737 292.1 109.003 292.025C109.27 291.95 109.531 291.822 109.787 291.641C109.937 291.556 110.075 291.524 110.203 291.545C110.331 291.566 110.433 291.625 110.507 291.721C110.593 291.806 110.646 291.913 110.667 292.041C110.699 292.158 110.694 292.281 110.651 292.409C110.609 292.537 110.518 292.644 110.379 292.729C110.038 292.974 109.665 293.15 109.259 293.257C108.865 293.364 108.481 293.417 108.107 293.417ZM115.644 293.417C114.79 293.417 114.054 293.257 113.436 292.937C112.828 292.606 112.353 292.142 112.012 291.545C111.681 290.937 111.516 290.217 111.516 289.385C111.516 288.574 111.681 287.865 112.012 287.257C112.342 286.649 112.796 286.174 113.372 285.833C113.948 285.492 114.604 285.321 115.34 285.321C115.884 285.321 116.369 285.412 116.796 285.593C117.222 285.764 117.585 286.02 117.884 286.361C118.193 286.692 118.422 287.097 118.572 287.577C118.732 288.057 118.812 288.596 118.812 289.193C118.812 289.374 118.758 289.513 118.652 289.609C118.545 289.694 118.385 289.737 118.172 289.737H112.796V288.745H117.724L117.452 288.969C117.452 288.436 117.372 287.982 117.212 287.609C117.062 287.236 116.833 286.953 116.524 286.761C116.225 286.558 115.852 286.457 115.404 286.457C114.902 286.457 114.476 286.574 114.124 286.809C113.782 287.044 113.521 287.369 113.34 287.785C113.158 288.201 113.068 288.686 113.068 289.241V289.337C113.068 290.276 113.286 290.985 113.724 291.465C114.172 291.934 114.817 292.169 115.66 292.169C115.98 292.169 116.316 292.126 116.668 292.041C117.03 291.956 117.372 291.812 117.692 291.609C117.873 291.502 118.033 291.454 118.172 291.465C118.321 291.476 118.438 291.524 118.524 291.609C118.62 291.694 118.678 291.801 118.7 291.929C118.721 292.057 118.7 292.19 118.636 292.329C118.572 292.457 118.46 292.574 118.3 292.681C117.937 292.926 117.516 293.113 117.036 293.241C116.556 293.358 116.092 293.417 115.644 293.417Z" fill="#030229"/>
<g opacity="0.4">
<path fill-rule="evenodd" clip-rule="evenodd" d="M52.7872 286.474C52.6518 286.619 52.4681 286.702 52.2747 286.702C51.559 286.702 50.9787 287.323 50.9787 288.078C50.9787 288.838 51.5522 289.456 52.2611 289.464C52.6605 289.468 53 289.766 53 290.194V292.848C53 295.081 51.3075 296.893 49.2186 296.893H46.0658C45.7398 296.893 45.4758 296.611 45.4758 296.262V294.027C45.4758 293.593 45.1567 293.251 44.7505 293.251C44.354 293.251 44.0251 293.593 44.0251 294.027V296.262C44.0251 296.611 43.7611 296.893 43.4362 296.893H36.7814C34.7021 296.893 33 295.082 33 292.848V290.194C33 289.766 33.3395 289.468 33.7389 289.464C34.4487 289.456 35.0213 288.838 35.0213 288.078C35.0213 287.343 34.4603 286.785 33.7253 286.785C33.5319 286.785 33.3482 286.702 33.2128 286.557C33.0774 286.412 33 286.216 33 286.009V283.329C33 281.098 34.706 279.273 36.7911 279.273H43.4362C43.7611 279.273 44.0251 279.556 44.0251 279.904V282.553C44.0251 282.977 44.354 283.329 44.7505 283.329C45.1567 283.329 45.4758 282.977 45.4758 282.553V279.904C45.4758 279.556 45.7398 279.273 46.0658 279.273H49.2186C51.3075 279.273 53 281.084 53 283.319V285.926C53 286.133 52.9226 286.329 52.7872 286.474ZM44.7505 291.244C45.1567 291.244 45.4758 290.892 45.4758 290.468V286.329C45.4758 285.905 45.1567 285.553 44.7505 285.553C44.354 285.553 44.0251 285.905 44.0251 286.329V290.468C44.0251 290.892 44.354 291.244 44.7505 291.244Z" fill="#030229"/>
</g>
<path fill-rule="evenodd" clip-rule="evenodd" d="M38.33 203H47.669C51.07 203 52.99 205.124 53 208.87V219.155C53 222.899 51.07 225.025 47.669 225.025H38.33C34.929 225.025 33 222.899 33 219.155V208.87C33 205.124 34.929 203 38.33 203ZM43.049 220.466C43.48 220.466 43.839 220.113 43.879 219.64V208.418C43.919 208.077 43.77 207.734 43.5 207.548C43.219 207.361 42.879 207.361 42.61 207.548C42.339 207.734 42.19 208.077 42.219 208.418V219.64C42.27 220.113 42.629 220.466 43.049 220.466ZM47.65 220.466C48.07 220.466 48.429 220.113 48.48 219.64V216.028C48.509 215.674 48.36 215.345 48.089 215.158C47.82 214.97 47.48 214.97 47.2 215.158C46.929 215.345 46.78 215.674 46.82 216.028V219.64C46.86 220.113 47.219 220.466 47.65 220.466ZM39.219 219.64C39.179 220.113 38.82 220.466 38.389 220.466C37.959 220.466 37.599 220.113 37.56 219.64V212.03C37.53 211.688 37.679 211.347 37.95 211.16C38.219 210.973 38.56 210.973 38.83 211.16C39.099 211.347 39.25 211.688 39.219 212.03V219.64Z" fill="#605BFF"/>
<path d="M74.872 219.144C74.1147 219.144 73.448 219.048 72.872 218.856C72.296 218.653 71.8107 218.355 71.416 217.96C71.032 217.565 70.7387 217.075 70.536 216.488C70.3333 215.901 70.232 215.224 70.232 214.456V208.44C70.232 208.163 70.3013 207.955 70.44 207.816C70.5893 207.677 70.7973 207.608 71.064 207.608C71.3307 207.608 71.5333 207.677 71.672 207.816C71.8213 207.955 71.896 208.163 71.896 208.44V214.424C71.896 215.523 72.1467 216.344 72.648 216.888C73.16 217.432 73.9013 217.704 74.872 217.704C75.8533 217.704 76.5947 217.432 77.096 216.888C77.5973 216.344 77.848 215.523 77.848 214.424V208.44C77.848 208.163 77.9173 207.955 78.056 207.816C78.2053 207.677 78.408 207.608 78.664 207.608C78.9307 207.608 79.1333 207.677 79.272 207.816C79.4107 207.955 79.48 208.163 79.48 208.44V214.456C79.48 215.48 79.304 216.344 78.952 217.048C78.6107 217.741 78.0987 218.264 77.416 218.616C76.7333 218.968 75.8853 219.144 74.872 219.144ZM82.6704 221.992C82.4144 221.992 82.217 221.923 82.0784 221.784C81.9397 221.645 81.8704 221.443 81.8704 221.176V211.896C81.8704 211.629 81.9397 211.427 82.0784 211.288C82.217 211.149 82.409 211.08 82.6544 211.08C82.9104 211.08 83.1077 211.149 83.2464 211.288C83.385 211.427 83.4544 211.629 83.4544 211.896V213.288L83.2784 212.952C83.449 212.376 83.785 211.917 84.2864 211.576C84.7877 211.224 85.3797 211.048 86.0624 211.048C86.7557 211.048 87.3584 211.213 87.8704 211.544C88.393 211.875 88.793 212.339 89.0704 212.936C89.3584 213.533 89.5024 214.253 89.5024 215.096C89.5024 215.917 89.3584 216.637 89.0704 217.256C88.793 217.864 88.3984 218.333 87.8864 218.664C87.3744 218.984 86.7664 219.144 86.0624 219.144C85.3904 219.144 84.8037 218.973 84.3024 218.632C83.801 218.291 83.465 217.837 83.2944 217.272H83.4864V221.176C83.4864 221.443 83.4117 221.645 83.2624 221.784C83.1237 221.923 82.9264 221.992 82.6704 221.992ZM85.6624 217.896C86.1104 217.896 86.4997 217.789 86.8304 217.576C87.161 217.363 87.417 217.048 87.5984 216.632C87.7797 216.216 87.8704 215.704 87.8704 215.096C87.8704 214.179 87.6677 213.485 87.2624 213.016C86.8677 212.547 86.3344 212.312 85.6624 212.312C85.225 212.312 84.8357 212.419 84.4944 212.632C84.1637 212.835 83.9077 213.144 83.7264 213.56C83.545 213.976 83.4544 214.488 83.4544 215.096C83.4544 216.003 83.657 216.696 84.0624 217.176C84.4677 217.656 85.001 217.896 85.6624 217.896ZM93.8355 219.144C93.0035 219.144 92.3742 218.904 91.9475 218.424C91.5315 217.933 91.3235 217.229 91.3235 216.312V208.424C91.3235 208.157 91.3928 207.955 91.5315 207.816C91.6702 207.677 91.8675 207.608 92.1235 207.608C92.3795 207.608 92.5768 207.677 92.7155 207.816C92.8648 207.955 92.9395 208.157 92.9395 208.424V216.216C92.9395 216.749 93.0462 217.149 93.2595 217.416C93.4835 217.672 93.8035 217.8 94.2195 217.8C94.3155 217.8 94.4008 217.8 94.4755 217.8C94.5502 217.789 94.6248 217.779 94.6995 217.768C94.8275 217.757 94.9182 217.795 94.9715 217.88C95.0248 217.955 95.0515 218.115 95.0515 218.36C95.0515 218.584 95.0035 218.76 94.9075 218.888C94.8115 219.005 94.6568 219.08 94.4435 219.112C94.3475 219.123 94.2462 219.128 94.1395 219.128C94.0328 219.139 93.9315 219.144 93.8355 219.144ZM99.528 219.144C98.7387 219.144 98.056 218.979 97.48 218.648C96.9147 218.317 96.472 217.848 96.152 217.24C95.832 216.632 95.672 215.917 95.672 215.096C95.672 214.467 95.7627 213.907 95.944 213.416C96.1253 212.925 96.3813 212.504 96.712 212.152C97.0533 211.789 97.4587 211.517 97.928 211.336C98.408 211.144 98.9413 211.048 99.528 211.048C100.307 211.048 100.979 211.213 101.544 211.544C102.12 211.875 102.568 212.344 102.888 212.952C103.208 213.549 103.368 214.264 103.368 215.096C103.368 215.715 103.277 216.275 103.096 216.776C102.915 217.277 102.653 217.704 102.312 218.056C101.981 218.408 101.576 218.68 101.096 218.872C100.627 219.053 100.104 219.144 99.528 219.144ZM99.528 217.896C99.9653 217.896 100.349 217.789 100.68 217.576C101.011 217.363 101.267 217.048 101.448 216.632C101.64 216.216 101.736 215.704 101.736 215.096C101.736 214.179 101.533 213.485 101.128 213.016C100.723 212.547 100.189 212.312 99.528 212.312C99.08 212.312 98.6907 212.419 98.36 212.632C98.0293 212.835 97.768 213.144 97.576 213.56C97.3947 213.976 97.304 214.488 97.304 215.096C97.304 216.003 97.5067 216.696 97.912 217.176C98.3173 217.656 98.856 217.896 99.528 217.896ZM107.679 219.144C107.135 219.144 106.644 219.037 106.207 218.824C105.78 218.611 105.444 218.323 105.199 217.96C104.954 217.597 104.831 217.187 104.831 216.728C104.831 216.152 104.975 215.699 105.263 215.368C105.562 215.027 106.047 214.787 106.719 214.648C107.402 214.499 108.319 214.424 109.471 214.424H110.223V215.416H109.487C108.719 215.416 108.111 215.453 107.663 215.528C107.215 215.603 106.895 215.731 106.703 215.912C106.522 216.083 106.431 216.323 106.431 216.632C106.431 217.037 106.57 217.368 106.847 217.624C107.124 217.869 107.508 217.992 107.999 217.992C108.394 217.992 108.74 217.901 109.039 217.72C109.338 217.528 109.572 217.272 109.743 216.952C109.924 216.632 110.015 216.264 110.015 215.848V214.008C110.015 213.4 109.887 212.963 109.631 212.696C109.375 212.429 108.954 212.296 108.367 212.296C108.026 212.296 107.668 212.339 107.295 212.424C106.932 212.509 106.554 212.653 106.159 212.856C105.978 212.941 105.823 212.968 105.695 212.936C105.567 212.904 105.466 212.835 105.391 212.728C105.316 212.611 105.274 212.488 105.263 212.36C105.263 212.221 105.295 212.088 105.359 211.96C105.434 211.832 105.556 211.736 105.727 211.672C106.196 211.448 106.66 211.288 107.119 211.192C107.578 211.096 108.01 211.048 108.415 211.048C109.13 211.048 109.716 211.16 110.175 211.384C110.644 211.608 110.991 211.949 111.215 212.408C111.439 212.867 111.551 213.459 111.551 214.184V218.296C111.551 218.552 111.487 218.755 111.359 218.904C111.231 219.043 111.044 219.112 110.799 219.112C110.564 219.112 110.378 219.043 110.239 218.904C110.1 218.755 110.031 218.552 110.031 218.296V217.256H110.175C110.09 217.651 109.93 217.992 109.695 218.28C109.471 218.557 109.188 218.771 108.847 218.92C108.506 219.069 108.116 219.144 107.679 219.144ZM116.753 219.144C116.07 219.144 115.467 218.984 114.945 218.664C114.433 218.333 114.033 217.864 113.745 217.256C113.457 216.637 113.313 215.917 113.313 215.096C113.313 214.253 113.457 213.533 113.745 212.936C114.033 212.339 114.433 211.875 114.945 211.544C115.467 211.213 116.07 211.048 116.753 211.048C117.435 211.048 118.022 211.219 118.513 211.56C119.014 211.891 119.35 212.339 119.521 212.904H119.345V208.424C119.345 208.157 119.414 207.955 119.553 207.816C119.691 207.677 119.889 207.608 120.145 207.608C120.401 207.608 120.598 207.677 120.737 207.816C120.886 207.955 120.961 208.157 120.961 208.424V218.296C120.961 218.552 120.891 218.755 120.753 218.904C120.614 219.043 120.417 219.112 120.161 219.112C119.905 219.112 119.707 219.043 119.569 218.904C119.43 218.755 119.361 218.552 119.361 218.296V216.888L119.537 217.24C119.366 217.816 119.03 218.28 118.529 218.632C118.038 218.973 117.446 219.144 116.753 219.144ZM117.169 217.896C117.606 217.896 117.99 217.789 118.321 217.576C118.651 217.363 118.907 217.048 119.089 216.632C119.281 216.216 119.377 215.704 119.377 215.096C119.377 214.179 119.174 213.485 118.769 213.016C118.363 212.547 117.83 212.312 117.169 212.312C116.721 212.312 116.331 212.419 116.001 212.632C115.67 212.835 115.409 213.144 115.217 213.56C115.035 213.976 114.945 214.488 114.945 215.096C114.945 216.003 115.147 216.696 115.553 217.176C115.958 217.656 116.497 217.896 117.169 217.896Z" fill="#605BFF"/>
<path opacity="0.2" d="M0 190H48C50.7614 190 53 192.239 53 195V233C53 235.761 50.7614 238 48 238H0V190Z" fill="url(#paint0_linear_22_2305)"/>
<path d="M71.208 159C70.92 159 70.696 158.925 70.536 158.776C70.3867 158.616 70.312 158.392 70.312 158.104V148.616C70.312 148.328 70.3867 148.109 70.536 147.96C70.696 147.8 70.92 147.72 71.208 147.72H74.296C76.152 147.72 77.5813 148.205 78.584 149.176C79.5973 150.136 80.104 151.528 80.104 153.352C80.104 154.259 79.976 155.064 79.72 155.768C79.464 156.472 79.0853 157.064 78.584 157.544C78.0933 158.013 77.4907 158.376 76.776 158.632C76.0613 158.877 75.2347 159 74.296 159H71.208ZM71.976 157.608H74.2C74.904 157.608 75.512 157.523 76.024 157.352C76.5467 157.171 76.984 156.904 77.336 156.552C77.688 156.2 77.9493 155.757 78.12 155.224C78.2907 154.691 78.376 154.067 78.376 153.352C78.376 151.933 78.024 150.872 77.32 150.168C76.6267 149.464 75.5867 149.112 74.2 149.112H71.976V157.608ZM84.6476 159.144C84.1036 159.144 83.613 159.037 83.1756 158.824C82.749 158.611 82.413 158.323 82.1676 157.96C81.9223 157.597 81.7996 157.187 81.7996 156.728C81.7996 156.152 81.9436 155.699 82.2316 155.368C82.5303 155.027 83.0156 154.787 83.6876 154.648C84.3703 154.499 85.2876 154.424 86.4396 154.424H87.1916V155.416H86.4556C85.6876 155.416 85.0796 155.453 84.6316 155.528C84.1836 155.603 83.8636 155.731 83.6716 155.912C83.4903 156.083 83.3996 156.323 83.3996 156.632C83.3996 157.037 83.5383 157.368 83.8156 157.624C84.093 157.869 84.477 157.992 84.9676 157.992C85.3623 157.992 85.709 157.901 86.0076 157.72C86.3063 157.528 86.541 157.272 86.7116 156.952C86.893 156.632 86.9836 156.264 86.9836 155.848V154.008C86.9836 153.4 86.8556 152.963 86.5996 152.696C86.3436 152.429 85.9223 152.296 85.3356 152.296C84.9943 152.296 84.637 152.339 84.2636 152.424C83.901 152.509 83.5223 152.653 83.1276 152.856C82.9463 152.941 82.7916 152.968 82.6636 152.936C82.5356 152.904 82.4343 152.835 82.3596 152.728C82.285 152.611 82.2423 152.488 82.2316 152.36C82.2316 152.221 82.2636 152.088 82.3276 151.96C82.4023 151.832 82.525 151.736 82.6956 151.672C83.165 151.448 83.629 151.288 84.0876 151.192C84.5463 151.096 84.9783 151.048 85.3836 151.048C86.0983 151.048 86.685 151.16 87.1436 151.384C87.613 151.608 87.9596 151.949 88.1836 152.408C88.4076 152.867 88.5196 153.459 88.5196 154.184V158.296C88.5196 158.552 88.4556 158.755 88.3276 158.904C88.1996 159.043 88.013 159.112 87.7676 159.112C87.533 159.112 87.3463 159.043 87.2076 158.904C87.069 158.755 86.9996 158.552 86.9996 158.296V157.256H87.1436C87.0583 157.651 86.8983 157.992 86.6636 158.28C86.4396 158.557 86.157 158.771 85.8156 158.92C85.4743 159.069 85.085 159.144 84.6476 159.144ZM93.4814 159.144C93.012 159.144 92.5267 159.091 92.0254 158.984C91.5347 158.877 91.0814 158.696 90.6654 158.44C90.5267 158.344 90.4307 158.237 90.3774 158.12C90.324 158.003 90.3027 157.885 90.3134 157.768C90.3347 157.64 90.3827 157.533 90.4574 157.448C90.5427 157.352 90.644 157.293 90.7614 157.272C90.8894 157.251 91.0227 157.277 91.1614 157.352C91.5774 157.587 91.9774 157.752 92.3614 157.848C92.7454 157.933 93.124 157.976 93.4974 157.976C94.0627 157.976 94.4894 157.875 94.7774 157.672C95.0654 157.469 95.2094 157.197 95.2094 156.856C95.2094 156.579 95.1134 156.365 94.9214 156.216C94.7294 156.056 94.4414 155.933 94.0574 155.848L92.5374 155.544C91.876 155.405 91.3747 155.16 91.0334 154.808C90.692 154.456 90.5214 154.008 90.5214 153.464C90.5214 152.973 90.6547 152.547 90.9214 152.184C91.188 151.821 91.5614 151.544 92.0414 151.352C92.5214 151.149 93.076 151.048 93.7054 151.048C94.1747 151.048 94.6174 151.107 95.0334 151.224C95.4494 151.341 95.8334 151.517 96.1854 151.752C96.324 151.827 96.4147 151.928 96.4574 152.056C96.5 152.173 96.5054 152.291 96.4734 152.408C96.452 152.525 96.3987 152.632 96.3134 152.728C96.228 152.813 96.1214 152.867 95.9934 152.888C95.876 152.899 95.7427 152.867 95.5934 152.792C95.2734 152.589 94.9534 152.445 94.6334 152.36C94.324 152.275 94.0147 152.232 93.7054 152.232C93.14 152.232 92.7134 152.339 92.4254 152.552C92.148 152.755 92.0094 153.032 92.0094 153.384C92.0094 153.651 92.0947 153.869 92.2654 154.04C92.436 154.211 92.7027 154.333 93.0654 154.408L94.5854 154.712C95.2787 154.851 95.8014 155.085 96.1534 155.416C96.516 155.747 96.6974 156.195 96.6974 156.76C96.6974 157.496 96.404 158.077 95.8174 158.504C95.2307 158.931 94.452 159.144 93.4814 159.144ZM99.2954 159.112C99.0394 159.112 98.842 159.043 98.7034 158.904C98.5647 158.755 98.4954 158.552 98.4954 158.296V148.424C98.4954 148.157 98.5647 147.955 98.7034 147.816C98.842 147.677 99.0394 147.608 99.2954 147.608C99.5514 147.608 99.7487 147.677 99.8874 147.816C100.037 147.955 100.111 148.157 100.111 148.424V152.856H99.8874C100.122 152.259 100.49 151.811 100.991 151.512C101.493 151.203 102.069 151.048 102.719 151.048C103.338 151.048 103.85 151.165 104.255 151.4C104.671 151.624 104.981 151.971 105.183 152.44C105.386 152.899 105.487 153.48 105.487 154.184V158.296C105.487 158.552 105.418 158.755 105.279 158.904C105.141 159.043 104.943 159.112 104.687 159.112C104.421 159.112 104.218 159.043 104.079 158.904C103.941 158.755 103.871 158.552 103.871 158.296V154.28C103.871 153.608 103.738 153.117 103.471 152.808C103.215 152.499 102.81 152.344 102.255 152.344C101.605 152.344 101.082 152.547 100.687 152.952C100.303 153.357 100.111 153.901 100.111 154.584V158.296C100.111 158.84 99.8394 159.112 99.2954 159.112ZM111.906 159.144C111.223 159.144 110.631 158.973 110.13 158.632C109.629 158.28 109.293 157.816 109.122 157.24L109.298 156.952V158.296C109.298 158.552 109.229 158.755 109.09 158.904C108.951 159.043 108.759 159.112 108.514 159.112C108.258 159.112 108.061 159.043 107.922 158.904C107.783 158.755 107.714 158.552 107.714 158.296V148.424C107.714 148.157 107.783 147.955 107.922 147.816C108.061 147.677 108.258 147.608 108.514 147.608C108.77 147.608 108.967 147.677 109.106 147.816C109.255 147.955 109.33 148.157 109.33 148.424V152.904H109.138C109.309 152.339 109.645 151.891 110.146 151.56C110.647 151.219 111.234 151.048 111.906 151.048C112.61 151.048 113.218 151.213 113.73 151.544C114.242 151.875 114.637 152.339 114.914 152.936C115.202 153.533 115.346 154.253 115.346 155.096C115.346 155.917 115.202 156.637 114.914 157.256C114.637 157.864 114.237 158.333 113.714 158.664C113.202 158.984 112.599 159.144 111.906 159.144ZM111.506 157.896C111.954 157.896 112.343 157.789 112.674 157.576C113.005 157.363 113.261 157.048 113.442 156.632C113.623 156.216 113.714 155.704 113.714 155.096C113.714 154.179 113.511 153.485 113.106 153.016C112.711 152.547 112.178 152.312 111.506 152.312C111.069 152.312 110.679 152.419 110.338 152.632C110.007 152.835 109.751 153.144 109.57 153.56C109.389 153.976 109.298 154.488 109.298 155.096C109.298 156.003 109.501 156.696 109.906 157.176C110.311 157.656 110.845 157.896 111.506 157.896ZM120.559 159.144C119.77 159.144 119.087 158.979 118.511 158.648C117.946 158.317 117.503 157.848 117.183 157.24C116.863 156.632 116.703 155.917 116.703 155.096C116.703 154.467 116.794 153.907 116.975 153.416C117.157 152.925 117.413 152.504 117.743 152.152C118.085 151.789 118.49 151.517 118.959 151.336C119.439 151.144 119.973 151.048 120.559 151.048C121.338 151.048 122.01 151.213 122.575 151.544C123.151 151.875 123.599 152.344 123.919 152.952C124.239 153.549 124.399 154.264 124.399 155.096C124.399 155.715 124.309 156.275 124.127 156.776C123.946 157.277 123.685 157.704 123.343 158.056C123.013 158.408 122.607 158.68 122.127 158.872C121.658 159.053 121.135 159.144 120.559 159.144ZM120.559 157.896C120.997 157.896 121.381 157.789 121.711 157.576C122.042 157.363 122.298 157.048 122.479 156.632C122.671 156.216 122.767 155.704 122.767 155.096C122.767 154.179 122.565 153.485 122.159 153.016C121.754 152.547 121.221 152.312 120.559 152.312C120.111 152.312 119.722 152.419 119.391 152.632C119.061 152.835 118.799 153.144 118.607 153.56C118.426 153.976 118.335 154.488 118.335 155.096C118.335 156.003 118.538 156.696 118.943 157.176C119.349 157.656 119.887 157.896 120.559 157.896ZM128.71 159.144C128.166 159.144 127.675 159.037 127.238 158.824C126.811 158.611 126.475 158.323 126.23 157.96C125.985 157.597 125.862 157.187 125.862 156.728C125.862 156.152 126.006 155.699 126.294 155.368C126.593 155.027 127.078 154.787 127.75 154.648C128.433 154.499 129.35 154.424 130.502 154.424H131.254V155.416H130.518C129.75 155.416 129.142 155.453 128.694 155.528C128.246 155.603 127.926 155.731 127.734 155.912C127.553 156.083 127.462 156.323 127.462 156.632C127.462 157.037 127.601 157.368 127.878 157.624C128.155 157.869 128.539 157.992 129.03 157.992C129.425 157.992 129.771 157.901 130.07 157.72C130.369 157.528 130.603 157.272 130.774 156.952C130.955 156.632 131.046 156.264 131.046 155.848V154.008C131.046 153.4 130.918 152.963 130.662 152.696C130.406 152.429 129.985 152.296 129.398 152.296C129.057 152.296 128.699 152.339 128.326 152.424C127.963 152.509 127.585 152.653 127.19 152.856C127.009 152.941 126.854 152.968 126.726 152.936C126.598 152.904 126.497 152.835 126.422 152.728C126.347 152.611 126.305 152.488 126.294 152.36C126.294 152.221 126.326 152.088 126.39 151.96C126.465 151.832 126.587 151.736 126.758 151.672C127.227 151.448 127.691 151.288 128.15 151.192C128.609 151.096 129.041 151.048 129.446 151.048C130.161 151.048 130.747 151.16 131.206 151.384C131.675 151.608 132.022 151.949 132.246 152.408C132.47 152.867 132.582 153.459 132.582 154.184V158.296C132.582 158.552 132.518 158.755 132.39 158.904C132.262 159.043 132.075 159.112 131.83 159.112C131.595 159.112 131.409 159.043 131.27 158.904C131.131 158.755 131.062 158.552 131.062 158.296V157.256H131.206C131.121 157.651 130.961 157.992 130.726 158.28C130.502 158.557 130.219 158.771 129.878 158.92C129.537 159.069 129.147 159.144 128.71 159.144ZM135.624 159.112C135.357 159.112 135.155 159.043 135.016 158.904C134.877 158.755 134.808 158.552 134.808 158.296V151.896C134.808 151.629 134.877 151.427 135.016 151.288C135.155 151.149 135.347 151.08 135.592 151.08C135.848 151.08 136.04 151.149 136.168 151.288C136.307 151.427 136.376 151.629 136.376 151.896V153.064H136.216C136.387 152.424 136.701 151.939 137.16 151.608C137.619 151.277 138.205 151.085 138.92 151.032C139.112 151.021 139.261 151.069 139.368 151.176C139.485 151.283 139.549 151.448 139.56 151.672C139.581 151.896 139.533 152.077 139.416 152.216C139.299 152.344 139.117 152.419 138.872 152.44L138.568 152.472C137.875 152.536 137.347 152.755 136.984 153.128C136.621 153.501 136.44 154.013 136.44 154.664V158.296C136.44 158.552 136.371 158.755 136.232 158.904C136.104 159.043 135.901 159.112 135.624 159.112ZM143.643 159.144C142.961 159.144 142.358 158.984 141.835 158.664C141.323 158.333 140.923 157.864 140.635 157.256C140.347 156.637 140.203 155.917 140.203 155.096C140.203 154.253 140.347 153.533 140.635 152.936C140.923 152.339 141.323 151.875 141.835 151.544C142.358 151.213 142.961 151.048 143.643 151.048C144.326 151.048 144.913 151.219 145.403 151.56C145.905 151.891 146.241 152.339 146.411 152.904H146.235V148.424C146.235 148.157 146.305 147.955 146.443 147.816C146.582 147.677 146.779 147.608 147.035 147.608C147.291 147.608 147.489 147.677 147.627 147.816C147.777 147.955 147.851 148.157 147.851 148.424V158.296C147.851 158.552 147.782 158.755 147.643 158.904C147.505 159.043 147.307 159.112 147.051 159.112C146.795 159.112 146.598 159.043 146.459 158.904C146.321 158.755 146.251 158.552 146.251 158.296V156.888L146.427 157.24C146.257 157.816 145.921 158.28 145.419 158.632C144.929 158.973 144.337 159.144 143.643 159.144ZM144.059 157.896C144.497 157.896 144.881 157.789 145.211 157.576C145.542 157.363 145.798 157.048 145.979 156.632C146.171 156.216 146.267 155.704 146.267 155.096C146.267 154.179 146.065 153.485 145.659 153.016C145.254 152.547 144.721 152.312 144.059 152.312C143.611 152.312 143.222 152.419 142.891 152.632C142.561 152.835 142.299 153.144 142.107 153.56C141.926 153.976 141.835 154.488 141.835 155.096C141.835 156.003 142.038 156.696 142.443 157.176C142.849 157.656 143.387 157.896 144.059 157.896Z" fill="#9A9AA9"/>
<path fill-rule="evenodd" clip-rule="evenodd" d="M35.54 144H38.92C40.33 144 41.46 145.15 41.46 146.561V149.97C41.46 151.39 40.33 152.53 38.92 152.53H35.54C34.14 152.53 33 151.39 33 149.97V146.561C33 145.15 34.14 144 35.54 144ZM35.54 155.47H38.92C40.33 155.47 41.46 156.611 41.46 158.031V161.44C41.46 162.85 40.33 164 38.92 164H35.54C34.14 164 33 162.85 33 161.44V158.031C33 156.611 34.14 155.47 35.54 155.47ZM50.4601 144H47.0801C45.6701 144 44.5401 145.15 44.5401 146.561V149.97C44.5401 151.39 45.6701 152.53 47.0801 152.53H50.4601C51.8601 152.53 53.0001 151.39 53.0001 149.97V146.561C53.0001 145.15 51.8601 144 50.4601 144ZM47.0801 155.47H50.4601C51.8601 155.47 53.0001 156.611 53.0001 158.031V161.44C53.0001 162.85 51.8601 164 50.4601 164H47.0801C45.6701 164 44.5401 162.85 44.5401 161.44V158.031C44.5401 156.611 45.6701 155.47 47.0801 155.47Z" fill="#9A9AA9"/>
<path fill-rule="evenodd" clip-rule="evenodd" d="M97.9998 71.0966L98 71C98 59.402 88.598 50 77 50C66.1757 50 57.2641 58.1895 56.1234 68.7105L67.79 74.4142C68.3617 73.6184 69.2953 73.1 70.35 73.1C71.2427 73.1 72.0487 73.4714 72.6219 74.068L81.9002 66.4134C81.9198 64.6906 83.3225 63.3 85.05 63.3C86.6572 63.3 87.9833 64.5037 88.1759 66.0587L97.9998 71.0966ZM73.4857 75.9482L82.5994 68.4294C83.1769 69.1434 84.0601 69.6 85.05 69.6C86.1912 69.6 87.1907 68.9931 87.7433 68.0845L97.8775 73.2815C96.7404 83.8063 87.8271 92 77 92C65.402 92 56 82.598 56 71C56 70.9588 56.0001 70.9177 56.0004 70.8766L67.2016 76.3528C67.2559 78.0449 68.6447 79.4 70.35 79.4C72.0897 79.4 73.5 77.9897 73.5 76.25C73.5 76.1482 73.4952 76.0475 73.4857 75.9482Z" fill="#605BFF"/>
<path fill-rule="evenodd" clip-rule="evenodd" d="M97.9998 71.0966L98 71C98 59.402 88.598 50 77 50C66.1757 50 57.2641 58.1895 56.1234 68.7105L67.79 74.4142C68.3617 73.6184 69.2953 73.1 70.35 73.1C71.2427 73.1 72.0487 73.4714 72.6219 74.068L81.9002 66.4134C81.9198 64.6906 83.3225 63.3 85.05 63.3C86.6572 63.3 87.9833 64.5037 88.1759 66.0587L97.9998 71.0966ZM73.4857 75.9482L82.5994 68.4294C83.1769 69.1434 84.0601 69.6 85.05 69.6C86.1912 69.6 87.1907 68.9931 87.7433 68.0845L97.8775 73.2815C96.7404 83.8063 87.8271 92 77 92C65.402 92 56 82.598 56 71C56 70.9588 56.0001 70.9177 56.0004 70.8766L67.2016 76.3528C67.2559 78.0449 68.6447 79.4 70.35 79.4C72.0897 79.4 73.5 77.9897 73.5 76.25C73.5 76.1482 73.4952 76.0475 73.4857 75.9482Z" fill="#605BFF"/>
<path d="M124.928 70.288C125.904 70.56 126.656 71.048 127.184 71.752C127.728 72.456 128 73.336 128 74.392C128 75.848 127.496 76.984 126.488 77.8C125.496 78.6 124.104 79 122.312 79H116.192C115.808 79 115.504 78.896 115.28 78.688C115.072 78.464 114.968 78.168 114.968 77.8V63.28C114.968 62.912 115.072 62.624 115.28 62.416C115.504 62.192 115.808 62.08 116.192 62.08H122.048C123.792 62.08 125.152 62.472 126.128 63.256C127.12 64.024 127.616 65.104 127.616 66.496C127.616 67.392 127.376 68.168 126.896 68.824C126.432 69.48 125.776 69.968 124.928 70.288ZM117.392 69.4H121.664C124.032 69.4 125.216 68.504 125.216 66.712C125.216 65.816 124.92 65.152 124.328 64.72C123.752 64.288 122.864 64.072 121.664 64.072H117.392V69.4ZM122.048 77.008C123.28 77.008 124.184 76.784 124.76 76.336C125.336 75.888 125.624 75.192 125.624 74.248C125.624 73.288 125.328 72.576 124.736 72.112C124.16 71.632 123.264 71.392 122.048 71.392H117.392V77.008H122.048ZM135.866 67C137.418 67 138.57 67.392 139.322 68.176C140.09 68.96 140.474 70.152 140.474 71.752V77.968C140.474 78.336 140.37 78.624 140.162 78.832C139.954 79.024 139.666 79.12 139.298 79.12C138.946 79.12 138.666 79.016 138.458 78.808C138.25 78.6 138.146 78.32 138.146 77.968V77.08C137.842 77.752 137.386 78.272 136.778 78.64C136.186 78.992 135.49 79.168 134.69 79.168C133.922 79.168 133.218 79.016 132.578 78.712C131.954 78.392 131.458 77.96 131.09 77.416C130.722 76.872 130.538 76.256 130.538 75.568C130.522 74.704 130.738 74.032 131.186 73.552C131.634 73.056 132.362 72.704 133.37 72.496C134.378 72.272 135.778 72.16 137.57 72.16H138.122V71.464C138.122 70.568 137.938 69.92 137.57 69.52C137.202 69.12 136.61 68.92 135.794 68.92C135.234 68.92 134.706 68.992 134.21 69.136C133.714 69.28 133.17 69.488 132.578 69.76C132.146 70 131.842 70.12 131.666 70.12C131.426 70.12 131.226 70.032 131.066 69.856C130.922 69.68 130.85 69.456 130.85 69.184C130.85 68.944 130.914 68.736 131.042 68.56C131.186 68.368 131.41 68.184 131.714 68.008C132.274 67.704 132.93 67.464 133.682 67.288C134.434 67.096 135.162 67 135.866 67ZM135.122 77.368C136.002 77.368 136.722 77.072 137.282 76.48C137.842 75.872 138.122 75.096 138.122 74.152V73.528H137.69C136.442 73.528 135.482 73.584 134.81 73.696C134.138 73.808 133.658 74 133.37 74.272C133.082 74.528 132.938 74.904 132.938 75.4C132.938 75.976 133.146 76.448 133.562 76.816C133.978 77.184 134.498 77.368 135.122 77.368ZM147.869 79.168C146.237 79.168 144.901 78.832 143.861 78.16C143.573 77.984 143.365 77.8 143.237 77.608C143.125 77.416 143.069 77.2 143.069 76.96C143.069 76.704 143.141 76.488 143.285 76.312C143.429 76.136 143.613 76.048 143.837 76.048C144.045 76.048 144.373 76.176 144.821 76.432C145.301 76.688 145.765 76.896 146.213 77.056C146.677 77.216 147.253 77.296 147.941 77.296C148.709 77.296 149.309 77.16 149.741 76.888C150.173 76.616 150.389 76.232 150.389 75.736C150.389 75.416 150.301 75.16 150.125 74.968C149.965 74.776 149.677 74.608 149.261 74.464C148.845 74.304 148.229 74.136 147.413 73.96C146.005 73.656 144.989 73.248 144.365 72.736C143.757 72.208 143.453 71.496 143.453 70.6C143.453 69.912 143.653 69.296 144.053 68.752C144.453 68.192 145.005 67.76 145.709 67.456C146.413 67.152 147.213 67 148.109 67C148.749 67 149.373 67.088 149.981 67.264C150.589 67.424 151.125 67.664 151.589 67.984C152.117 68.336 152.381 68.744 152.381 69.208C152.381 69.464 152.301 69.68 152.141 69.856C151.997 70.032 151.821 70.12 151.613 70.12C151.469 70.12 151.325 70.088 151.181 70.024C151.037 69.96 150.845 69.856 150.605 69.712C150.173 69.456 149.765 69.256 149.381 69.112C149.013 68.968 148.549 68.896 147.989 68.896C147.317 68.896 146.773 69.04 146.357 69.328C145.957 69.616 145.757 70.008 145.757 70.504C145.757 70.952 145.941 71.304 146.309 71.56C146.693 71.8 147.405 72.032 148.445 72.256C149.517 72.48 150.357 72.736 150.965 73.024C151.573 73.312 152.005 73.672 152.261 74.104C152.533 74.52 152.669 75.056 152.669 75.712C152.669 76.752 152.229 77.592 151.349 78.232C150.485 78.856 149.325 79.168 147.869 79.168ZM164.536 76.048C164.76 76.048 164.944 76.136 165.088 76.312C165.232 76.488 165.304 76.712 165.304 76.984C165.304 77.448 165.016 77.84 164.44 78.16C163.88 78.48 163.264 78.728 162.592 78.904C161.936 79.08 161.304 79.168 160.696 79.168C158.84 79.168 157.376 78.632 156.304 77.56C155.232 76.472 154.696 74.992 154.696 73.12C154.696 71.92 154.928 70.856 155.392 69.928C155.872 69 156.536 68.28 157.384 67.768C158.248 67.256 159.224 67 160.312 67C161.88 67 163.12 67.504 164.032 68.512C164.944 69.52 165.4 70.88 165.4 72.592C165.4 73.232 165.112 73.552 164.536 73.552H157.12C157.28 76.032 158.472 77.272 160.696 77.272C161.288 77.272 161.8 77.192 162.232 77.032C162.664 76.872 163.12 76.664 163.6 76.408C163.648 76.376 163.776 76.312 163.984 76.216C164.208 76.104 164.392 76.048 164.536 76.048ZM160.36 68.776C159.432 68.776 158.688 69.072 158.128 69.664C157.568 70.256 157.232 71.088 157.12 72.16H163.312C163.264 71.072 162.984 70.24 162.472 69.664C161.976 69.072 161.272 68.776 160.36 68.776Z" fill="#030229"/>
<defs>
<linearGradient id="paint0_linear_22_2305" x1="0" y1="214" x2="48.3625" y2="214" gradientUnits="userSpaceOnUse">
<stop stop-color="#ACA9FF"/>
<stop offset="1" stop-color="#ACA9FF" stop-opacity="0"/>
</linearGradient>
</defs>
</svg>
