<svg width="154" height="425" viewBox="0 0 154 425" fill="none" xmlns="http://www.w3.org/2000/svg">
<path opacity="0.5" d="M74.04 417.045C73.2293 417.045 72.456 416.933 71.72 416.709C70.9947 416.485 70.4133 416.176 69.976 415.781C69.7733 415.61 69.672 415.392 69.672 415.125C69.672 414.933 69.7253 414.773 69.832 414.645C69.9387 414.506 70.0667 414.437 70.216 414.437C70.3653 414.437 70.5467 414.506 70.76 414.645C71.7093 415.349 72.792 415.701 74.008 415.701C74.8613 415.701 75.5173 415.541 75.976 415.221C76.4347 414.901 76.664 414.442 76.664 413.845C76.664 413.376 76.4507 413.024 76.024 412.789C75.5973 412.554 74.9147 412.33 73.976 412.117C73.08 411.925 72.344 411.706 71.768 411.461C71.192 411.216 70.7387 410.885 70.408 410.469C70.088 410.042 69.928 409.504 69.928 408.853C69.928 408.202 70.104 407.626 70.456 407.125C70.8187 406.613 71.32 406.218 71.96 405.941C72.6 405.653 73.3307 405.509 74.152 405.509C74.9093 405.509 75.608 405.616 76.248 405.829C76.888 406.042 77.432 406.357 77.88 406.773C78.0933 406.954 78.2 407.173 78.2 407.429C78.2 407.61 78.1413 407.77 78.024 407.909C77.9173 408.048 77.7893 408.117 77.64 408.117C77.5013 408.117 77.3253 408.048 77.112 407.909C76.6213 407.536 76.1573 407.269 75.72 407.109C75.2933 406.938 74.776 406.853 74.168 406.853C73.3467 406.853 72.7067 407.024 72.248 407.365C71.7893 407.696 71.56 408.16 71.56 408.757C71.56 409.269 71.7627 409.658 72.168 409.925C72.5733 410.181 73.224 410.416 74.12 410.629C75.0587 410.842 75.816 411.066 76.392 411.301C76.9787 411.525 77.4427 411.84 77.784 412.245C78.136 412.64 78.312 413.152 78.312 413.781C78.312 414.421 78.1307 414.992 77.768 415.493C77.416 415.984 76.9147 416.368 76.264 416.645C75.624 416.912 74.8827 417.045 74.04 417.045ZM86.2633 414.949C86.4126 414.949 86.5353 415.008 86.6313 415.125C86.7273 415.242 86.7753 415.392 86.7753 415.573C86.7753 415.882 86.5833 416.144 86.1993 416.357C85.8259 416.57 85.4153 416.736 84.9673 416.853C84.5299 416.97 84.1086 417.029 83.7033 417.029C82.4659 417.029 81.4899 416.672 80.7753 415.957C80.0606 415.232 79.7033 414.245 79.7033 412.997C79.7033 412.197 79.8579 411.488 80.1673 410.869C80.4873 410.25 80.9299 409.77 81.4953 409.429C82.0713 409.088 82.7219 408.917 83.4473 408.917C84.4926 408.917 85.3193 409.253 85.9273 409.925C86.5353 410.597 86.8393 411.504 86.8393 412.645C86.8393 413.072 86.6473 413.285 86.2633 413.285H81.3193C81.4259 414.938 82.2206 415.765 83.7033 415.765C84.0979 415.765 84.4393 415.712 84.7273 415.605C85.0153 415.498 85.3193 415.36 85.6393 415.189C85.6713 415.168 85.7566 415.125 85.8953 415.061C86.0446 414.986 86.1673 414.949 86.2633 414.949ZM83.4793 410.101C82.8606 410.101 82.3646 410.298 81.9913 410.693C81.6179 411.088 81.3939 411.642 81.3193 412.357H85.4473C85.4153 411.632 85.2286 411.077 84.8873 410.693C84.5566 410.298 84.0873 410.101 83.4793 410.101ZM92.3659 415.765C92.6005 415.786 92.7659 415.85 92.8619 415.957C92.9685 416.053 93.0219 416.192 93.0219 416.373C93.0219 416.586 92.9365 416.752 92.7659 416.869C92.6059 416.976 92.3659 417.018 92.0459 416.997L91.6139 416.965C90.7499 416.901 90.1045 416.64 89.6779 416.181C89.2512 415.712 89.0379 415.024 89.0379 414.117V410.357H88.0779C87.6085 410.357 87.3739 410.149 87.3739 409.733C87.3739 409.541 87.4325 409.392 87.5499 409.285C87.6779 409.168 87.8539 409.109 88.0779 409.109H89.0379V407.461C89.0379 407.216 89.1072 407.024 89.2459 406.885C89.3952 406.746 89.5925 406.677 89.8379 406.677C90.0832 406.677 90.2805 406.746 90.4299 406.885C90.5792 407.024 90.6539 407.216 90.6539 407.461V409.109H92.2379C92.4619 409.109 92.6325 409.168 92.7499 409.285C92.8779 409.392 92.9419 409.541 92.9419 409.733C92.9419 409.936 92.8779 410.09 92.7499 410.197C92.6325 410.304 92.4619 410.357 92.2379 410.357H90.6539V414.229C90.6539 414.73 90.7552 415.098 90.9579 415.333C91.1712 415.568 91.4912 415.701 91.9179 415.733L92.3659 415.765ZM97.9753 415.765C98.2099 415.786 98.3753 415.85 98.4713 415.957C98.5779 416.053 98.6313 416.192 98.6313 416.373C98.6313 416.586 98.5459 416.752 98.3753 416.869C98.2153 416.976 97.9753 417.018 97.6553 416.997L97.2233 416.965C96.3593 416.901 95.7139 416.64 95.2873 416.181C94.8606 415.712 94.6473 415.024 94.6473 414.117V410.357H93.6873C93.2179 410.357 92.9832 410.149 92.9832 409.733C92.9832 409.541 93.0419 409.392 93.1593 409.285C93.2873 409.168 93.4633 409.109 93.6873 409.109H94.6473V407.461C94.6473 407.216 94.7166 407.024 94.8553 406.885C95.0046 406.746 95.2019 406.677 95.4473 406.677C95.6926 406.677 95.8899 406.746 96.0393 406.885C96.1886 407.024 96.2633 407.216 96.2633 407.461V409.109H97.8473C98.0713 409.109 98.2419 409.168 98.3593 409.285C98.4873 409.392 98.5513 409.541 98.5513 409.733C98.5513 409.936 98.4873 410.09 98.3593 410.197C98.2419 410.304 98.0713 410.357 97.8473 410.357H96.2633V414.229C96.2633 414.73 96.3646 415.098 96.5673 415.333C96.7806 415.568 97.1006 415.701 97.5273 415.733L97.9753 415.765ZM100.608 416.997C100.373 416.997 100.176 416.933 100.016 416.805C99.8665 416.677 99.7919 416.485 99.7919 416.229V409.733C99.7919 409.477 99.8665 409.285 100.016 409.157C100.176 409.018 100.373 408.949 100.608 408.949C100.843 408.949 101.035 409.018 101.184 409.157C101.333 409.285 101.408 409.477 101.408 409.733V416.229C101.408 416.485 101.333 416.677 101.184 416.805C101.035 416.933 100.843 416.997 100.608 416.997ZM100.608 407.381C100.299 407.381 100.053 407.296 99.8719 407.125C99.6905 406.954 99.5999 406.73 99.5999 406.453C99.5999 406.176 99.6905 405.957 99.8719 405.797C100.053 405.626 100.299 405.541 100.608 405.541C100.907 405.541 101.147 405.626 101.328 405.797C101.52 405.957 101.616 406.176 101.616 406.453C101.616 406.73 101.525 406.954 101.344 407.125C101.163 407.296 100.917 407.381 100.608 407.381ZM107.875 408.917C109.742 408.917 110.675 409.968 110.675 412.069V416.229C110.675 416.474 110.6 416.666 110.451 416.805C110.312 416.933 110.115 416.997 109.859 416.997C109.614 416.997 109.416 416.928 109.267 416.789C109.128 416.65 109.059 416.464 109.059 416.229V412.149C109.059 411.488 108.926 411.002 108.659 410.693C108.403 410.384 107.998 410.229 107.443 410.229C106.792 410.229 106.27 410.432 105.875 410.837C105.48 411.242 105.283 411.786 105.283 412.469V416.229C105.283 416.464 105.208 416.65 105.059 416.789C104.92 416.928 104.728 416.997 104.483 416.997C104.238 416.997 104.04 416.928 103.891 416.789C103.742 416.65 103.667 416.464 103.667 416.229V409.717C103.667 409.493 103.742 409.312 103.891 409.173C104.051 409.024 104.248 408.949 104.483 408.949C104.718 408.949 104.904 409.018 105.043 409.157C105.182 409.296 105.251 409.477 105.251 409.701V410.357C105.507 409.888 105.864 409.53 106.323 409.285C106.782 409.04 107.299 408.917 107.875 408.917ZM119.35 408.949C119.595 408.949 119.787 409.024 119.926 409.173C120.075 409.312 120.15 409.498 120.15 409.733V416.293C120.15 417.488 119.83 418.389 119.19 418.997C118.56 419.605 117.627 419.909 116.39 419.909C115.238 419.909 114.278 419.69 113.51 419.253C113.115 419.029 112.918 418.762 112.918 418.453C112.918 418.272 112.966 418.122 113.062 418.005C113.168 417.888 113.296 417.829 113.446 417.829C113.584 417.829 113.803 417.909 114.102 418.069C114.486 418.25 114.843 418.389 115.174 418.485C115.504 418.592 115.899 418.645 116.358 418.645C117.83 418.645 118.566 417.904 118.566 416.421V415.189C118.342 415.658 118 416.026 117.542 416.293C117.083 416.549 116.55 416.677 115.942 416.677C115.259 416.677 114.651 416.517 114.118 416.197C113.584 415.877 113.168 415.424 112.87 414.837C112.582 414.25 112.438 413.573 112.438 412.805C112.438 412.037 112.587 411.36 112.886 410.773C113.184 410.186 113.595 409.733 114.118 409.413C114.651 409.082 115.259 408.917 115.942 408.917C116.539 408.917 117.062 409.045 117.51 409.301C117.968 409.557 118.315 409.92 118.55 410.389V409.717C118.55 409.482 118.619 409.296 118.758 409.157C118.907 409.018 119.104 408.949 119.35 408.949ZM116.326 415.397C117.019 415.397 117.563 415.168 117.958 414.709C118.352 414.25 118.55 413.616 118.55 412.805C118.55 412.005 118.352 411.376 117.958 410.917C117.574 410.448 117.03 410.213 116.326 410.213C115.622 410.213 115.067 410.442 114.662 410.901C114.267 411.36 114.07 411.994 114.07 412.805C114.07 413.616 114.272 414.25 114.678 414.709C115.083 415.168 115.632 415.397 116.326 415.397ZM125.121 417.029C124.033 417.029 123.143 416.805 122.449 416.357C122.257 416.24 122.119 416.117 122.033 415.989C121.959 415.861 121.921 415.717 121.921 415.557C121.921 415.386 121.969 415.242 122.065 415.125C122.161 415.008 122.284 414.949 122.433 414.949C122.572 414.949 122.791 415.034 123.089 415.205C123.409 415.376 123.719 415.514 124.017 415.621C124.327 415.728 124.711 415.781 125.169 415.781C125.681 415.781 126.081 415.69 126.369 415.509C126.657 415.328 126.801 415.072 126.801 414.741C126.801 414.528 126.743 414.357 126.625 414.229C126.519 414.101 126.327 413.989 126.049 413.893C125.772 413.786 125.361 413.674 124.817 413.557C123.879 413.354 123.201 413.082 122.785 412.741C122.38 412.389 122.177 411.914 122.177 411.317C122.177 410.858 122.311 410.448 122.577 410.085C122.844 409.712 123.212 409.424 123.681 409.221C124.151 409.018 124.684 408.917 125.281 408.917C125.708 408.917 126.124 408.976 126.529 409.093C126.935 409.2 127.292 409.36 127.601 409.573C127.953 409.808 128.129 410.08 128.129 410.389C128.129 410.56 128.076 410.704 127.969 410.821C127.873 410.938 127.756 410.997 127.617 410.997C127.521 410.997 127.425 410.976 127.329 410.933C127.233 410.89 127.105 410.821 126.945 410.725C126.657 410.554 126.385 410.421 126.129 410.325C125.884 410.229 125.575 410.181 125.201 410.181C124.753 410.181 124.391 410.277 124.113 410.469C123.847 410.661 123.713 410.922 123.713 411.253C123.713 411.552 123.836 411.786 124.081 411.957C124.337 412.117 124.812 412.272 125.505 412.421C126.22 412.57 126.78 412.741 127.185 412.933C127.591 413.125 127.879 413.365 128.049 413.653C128.231 413.93 128.321 414.288 128.321 414.725C128.321 415.418 128.028 415.978 127.441 416.405C126.865 416.821 126.092 417.029 125.121 417.029Z" fill="#030229"/>
<g opacity="0.4">
<path fill-rule="evenodd" clip-rule="evenodd" d="M51.4023 413.518C51.7599 413.727 52.0359 414.057 52.23 414.388C52.6082 415.07 52.5775 415.907 52.2096 416.645L51.4942 417.967C51.1161 418.671 50.411 419.112 49.6854 419.112C49.3277 419.112 48.9291 419.002 48.6021 418.781C48.3364 418.594 48.0298 418.528 47.7028 418.528C46.691 418.528 45.8428 419.442 45.8121 420.532C45.8121 421.799 44.8719 422.79 43.6967 422.79H42.3068C41.1214 422.79 40.1812 421.799 40.1812 420.532C40.1607 419.442 39.3125 418.528 38.3008 418.528C37.9635 418.528 37.6569 418.594 37.4014 418.781C37.0744 419.002 36.6656 419.112 36.3182 419.112C35.5824 419.112 34.8772 418.671 34.4991 417.967L33.7939 416.645C33.4158 415.929 33.3954 415.07 33.7735 414.388C33.937 414.057 34.2436 413.727 34.5911 413.518C34.8772 413.363 35.0612 413.11 35.2349 412.813C35.7459 411.866 35.4393 410.621 34.5706 410.06C33.5589 409.432 33.2319 408.033 33.8144 406.943L34.4991 405.644C35.0918 404.553 36.359 404.168 37.381 404.807C38.2701 405.335 39.4249 404.983 39.9461 404.047C40.1096 403.739 40.2016 403.408 40.1812 403.078C40.1607 402.648 40.2731 402.241 40.4673 401.91C40.8454 401.228 41.5301 400.787 42.2762 400.765H43.7171C44.4734 400.765 45.1581 401.228 45.5362 401.91C45.7202 402.241 45.8428 402.648 45.8121 403.078C45.7917 403.408 45.8837 403.739 46.0472 404.047C46.5684 404.983 47.7232 405.335 48.6225 404.807C49.6343 404.168 50.9117 404.553 51.4942 405.644L52.1789 406.943C52.7717 408.033 52.4447 409.432 51.4227 410.06C50.554 410.621 50.2474 411.866 50.7686 412.813C50.9322 413.11 51.1161 413.363 51.4023 413.518ZM40.1096 411.789C40.1096 413.518 41.4075 414.894 43.012 414.894C44.6165 414.894 45.8837 413.518 45.8837 411.789C45.8837 410.06 44.6165 408.672 43.012 408.672C41.4075 408.672 40.1096 410.06 40.1096 411.789Z" fill="#030229"/>
</g>
<path opacity="0.5" d="M78.792 338.594C79.0267 338.594 79.2133 338.674 79.352 338.834C79.5013 338.983 79.576 339.181 79.576 339.426V349.202C79.576 349.447 79.5013 349.65 79.352 349.81C79.2027 349.959 79.0107 350.034 78.776 350.034C78.4987 350.034 78.2853 349.927 78.136 349.714L71.864 341.442V349.202C71.864 349.447 71.7893 349.65 71.64 349.81C71.5013 349.959 71.3147 350.034 71.08 350.034C70.8453 350.034 70.6587 349.959 70.52 349.81C70.3813 349.661 70.312 349.458 70.312 349.202V339.426C70.312 339.181 70.3867 338.983 70.536 338.834C70.6853 338.674 70.8773 338.594 71.112 338.594C71.3893 338.594 71.6027 338.701 71.752 338.914L78.024 347.202V339.426C78.024 339.181 78.0933 338.983 78.232 338.834C78.3707 338.674 78.5573 338.594 78.792 338.594ZM85.4026 350.066C84.6346 350.066 83.9573 349.901 83.3706 349.57C82.7946 349.239 82.3466 348.77 82.0266 348.162C81.7173 347.543 81.5626 346.829 81.5626 346.018C81.5626 345.197 81.7173 344.482 82.0266 343.874C82.3466 343.255 82.7946 342.781 83.3706 342.45C83.9573 342.119 84.6346 341.954 85.4026 341.954C86.1706 341.954 86.8426 342.119 87.4186 342.45C88.0053 342.781 88.4533 343.255 88.7626 343.874C89.0826 344.482 89.2426 345.197 89.2426 346.018C89.2426 346.829 89.0826 347.543 88.7626 348.162C88.4533 348.77 88.0053 349.239 87.4186 349.57C86.8426 349.901 86.1706 350.066 85.4026 350.066ZM85.4026 348.786C86.1173 348.786 86.6613 348.551 87.0346 348.082C87.4186 347.613 87.6106 346.925 87.6106 346.018C87.6106 345.122 87.4186 344.439 87.0346 343.97C86.6506 343.49 86.1066 343.25 85.4026 343.25C84.6986 343.25 84.1546 343.49 83.7706 343.97C83.3866 344.439 83.1946 345.122 83.1946 346.018C83.1946 346.925 83.3813 347.613 83.7546 348.082C84.1386 348.551 84.688 348.786 85.4026 348.786ZM94.8346 348.802C95.0693 348.823 95.2346 348.887 95.3306 348.994C95.4373 349.09 95.4906 349.229 95.4906 349.41C95.4906 349.623 95.4053 349.789 95.2346 349.906C95.0746 350.013 94.8346 350.055 94.5146 350.034L94.0826 350.002C93.2186 349.938 92.5733 349.677 92.1466 349.218C91.72 348.749 91.5066 348.061 91.5066 347.154V343.394H90.5466C90.0773 343.394 89.8426 343.186 89.8426 342.77C89.8426 342.578 89.9013 342.429 90.0186 342.322C90.1466 342.205 90.3226 342.146 90.5466 342.146H91.5066V340.498C91.5066 340.253 91.576 340.061 91.7146 339.922C91.864 339.783 92.0613 339.714 92.3066 339.714C92.552 339.714 92.7493 339.783 92.8986 339.922C93.048 340.061 93.1226 340.253 93.1226 340.498V342.146H94.7066C94.9306 342.146 95.1013 342.205 95.2186 342.322C95.3466 342.429 95.4106 342.578 95.4106 342.77C95.4106 342.973 95.3466 343.127 95.2186 343.234C95.1013 343.341 94.9306 343.394 94.7066 343.394H93.1226V347.266C93.1226 347.767 93.224 348.135 93.4266 348.37C93.64 348.605 93.96 348.738 94.3866 348.77L94.8346 348.802ZM97.4673 350.034C97.2326 350.034 97.0353 349.97 96.8753 349.842C96.7259 349.714 96.6513 349.522 96.6513 349.266V342.77C96.6513 342.514 96.7259 342.322 96.8753 342.194C97.0353 342.055 97.2326 341.986 97.4673 341.986C97.7019 341.986 97.8939 342.055 98.0433 342.194C98.1926 342.322 98.2673 342.514 98.2673 342.77V349.266C98.2673 349.522 98.1926 349.714 98.0433 349.842C97.8939 349.97 97.7019 350.034 97.4673 350.034ZM97.4673 340.418C97.1579 340.418 96.9126 340.333 96.7313 340.162C96.5499 339.991 96.4593 339.767 96.4593 339.49C96.4593 339.213 96.5499 338.994 96.7313 338.834C96.9126 338.663 97.1579 338.578 97.4673 338.578C97.7659 338.578 98.0059 338.663 98.1873 338.834C98.3793 338.994 98.4753 339.213 98.4753 339.49C98.4753 339.767 98.3846 339.991 98.2033 340.162C98.0219 340.333 97.7766 340.418 97.4673 340.418ZM106.798 340.418C106.489 340.418 106.244 340.333 106.062 340.162C105.881 339.991 105.79 339.767 105.79 339.49C105.79 339.213 105.881 338.994 106.062 338.834C106.244 338.663 106.489 338.578 106.798 338.578C107.097 338.578 107.337 338.663 107.518 338.834C107.71 338.994 107.806 339.213 107.806 339.49C107.806 339.767 107.716 339.991 107.534 340.162C107.353 340.333 107.108 340.418 106.798 340.418ZM106.894 342.146C107.118 342.146 107.289 342.205 107.406 342.322C107.534 342.429 107.598 342.578 107.598 342.77V349.266C107.598 349.522 107.524 349.714 107.374 349.842C107.225 349.97 107.033 350.034 106.798 350.034C106.564 350.034 106.366 349.97 106.206 349.842C106.057 349.714 105.982 349.522 105.982 349.266V343.394H102.638V349.25C102.638 349.506 102.558 349.703 102.398 349.842C102.249 349.97 102.057 350.034 101.822 350.034C101.588 350.034 101.396 349.97 101.246 349.842C101.097 349.703 101.022 349.506 101.022 349.25V343.394H100.062C99.8383 343.394 99.6623 343.341 99.5343 343.234C99.4169 343.117 99.3582 342.962 99.3582 342.77C99.3582 342.578 99.4169 342.429 99.5343 342.322C99.6623 342.205 99.8383 342.146 100.062 342.146H101.022V341.97C101.022 340.989 101.273 340.221 101.774 339.666C102.276 339.101 102.985 338.775 103.902 338.69L104.286 338.658L104.494 338.642C104.964 338.642 105.198 338.839 105.198 339.234C105.198 339.607 104.99 339.821 104.574 339.874L104.206 339.906C103.673 339.949 103.278 340.119 103.022 340.418C102.766 340.706 102.638 341.133 102.638 341.698V342.146H106.894ZM113.198 350.066C112.441 350.066 111.774 349.901 111.198 349.57C110.633 349.239 110.19 348.77 109.87 348.162C109.561 347.554 109.406 346.85 109.406 346.05C109.406 345.239 109.566 344.525 109.886 343.906C110.217 343.287 110.676 342.807 111.262 342.466C111.849 342.125 112.521 341.954 113.278 341.954C113.684 341.954 114.089 342.013 114.494 342.13C114.91 342.247 115.278 342.407 115.598 342.61C115.94 342.845 116.11 343.117 116.11 343.426C116.11 343.607 116.062 343.762 115.966 343.89C115.87 344.007 115.748 344.066 115.598 344.066C115.502 344.066 115.406 344.045 115.31 344.002C115.214 343.949 115.092 343.874 114.942 343.778C114.676 343.607 114.425 343.479 114.19 343.394C113.966 343.298 113.694 343.25 113.374 343.25C112.649 343.25 112.084 343.495 111.678 343.986C111.284 344.477 111.086 345.159 111.086 346.034C111.086 346.909 111.284 347.586 111.678 348.066C112.073 348.535 112.633 348.77 113.358 348.77C113.678 348.77 113.961 348.722 114.206 348.626C114.452 348.53 114.702 348.402 114.958 348.242C115.076 348.167 115.193 348.103 115.31 348.05C115.428 347.997 115.534 347.97 115.63 347.97C115.78 347.97 115.902 348.034 115.998 348.162C116.094 348.279 116.142 348.429 116.142 348.61C116.142 348.759 116.1 348.898 116.014 349.026C115.94 349.143 115.806 349.266 115.614 349.394C115.294 349.607 114.921 349.773 114.494 349.89C114.068 350.007 113.636 350.066 113.198 350.066ZM120.869 341.954C121.903 341.954 122.671 342.215 123.173 342.738C123.685 343.261 123.941 344.055 123.941 345.122V349.266C123.941 349.511 123.871 349.703 123.733 349.842C123.594 349.97 123.402 350.034 123.157 350.034C122.922 350.034 122.735 349.965 122.597 349.826C122.458 349.687 122.389 349.501 122.389 349.266V348.674C122.186 349.122 121.882 349.469 121.477 349.714C121.082 349.949 120.618 350.066 120.085 350.066C119.573 350.066 119.103 349.965 118.677 349.762C118.261 349.549 117.93 349.261 117.685 348.898C117.439 348.535 117.317 348.125 117.317 347.666C117.306 347.09 117.45 346.642 117.749 346.322C118.047 345.991 118.533 345.757 119.205 345.618C119.877 345.469 120.81 345.394 122.005 345.394H122.373V344.93C122.373 344.333 122.25 343.901 122.005 343.634C121.759 343.367 121.365 343.234 120.821 343.234C120.447 343.234 120.095 343.282 119.765 343.378C119.434 343.474 119.071 343.613 118.677 343.794C118.389 343.954 118.186 344.034 118.069 344.034C117.909 344.034 117.775 343.975 117.669 343.858C117.573 343.741 117.525 343.591 117.525 343.41C117.525 343.25 117.567 343.111 117.653 342.994C117.749 342.866 117.898 342.743 118.101 342.626C118.474 342.423 118.911 342.263 119.413 342.146C119.914 342.018 120.399 341.954 120.869 341.954ZM120.373 348.866C120.959 348.866 121.439 348.669 121.813 348.274C122.186 347.869 122.373 347.351 122.373 346.722V346.306H122.085C121.253 346.306 120.613 346.343 120.165 346.418C119.717 346.493 119.397 346.621 119.205 346.802C119.013 346.973 118.917 347.223 118.917 347.554C118.917 347.938 119.055 348.253 119.333 348.498C119.61 348.743 119.957 348.866 120.373 348.866ZM129.975 348.802C130.21 348.823 130.375 348.887 130.471 348.994C130.578 349.09 130.631 349.229 130.631 349.41C130.631 349.623 130.546 349.789 130.375 349.906C130.215 350.013 129.975 350.055 129.655 350.034L129.223 350.002C128.359 349.938 127.714 349.677 127.287 349.218C126.861 348.749 126.647 348.061 126.647 347.154V343.394H125.687C125.218 343.394 124.983 343.186 124.983 342.77C124.983 342.578 125.042 342.429 125.159 342.322C125.287 342.205 125.463 342.146 125.687 342.146H126.647V340.498C126.647 340.253 126.717 340.061 126.855 339.922C127.005 339.783 127.202 339.714 127.447 339.714C127.693 339.714 127.89 339.783 128.039 339.922C128.189 340.061 128.263 340.253 128.263 340.498V342.146H129.847C130.071 342.146 130.242 342.205 130.359 342.322C130.487 342.429 130.551 342.578 130.551 342.77C130.551 342.973 130.487 343.127 130.359 343.234C130.242 343.341 130.071 343.394 129.847 343.394H128.263V347.266C128.263 347.767 128.365 348.135 128.567 348.37C128.781 348.605 129.101 348.738 129.527 348.77L129.975 348.802ZM132.608 350.034C132.373 350.034 132.176 349.97 132.016 349.842C131.867 349.714 131.792 349.522 131.792 349.266V342.77C131.792 342.514 131.867 342.322 132.016 342.194C132.176 342.055 132.373 341.986 132.608 341.986C132.843 341.986 133.035 342.055 133.184 342.194C133.333 342.322 133.408 342.514 133.408 342.77V349.266C133.408 349.522 133.333 349.714 133.184 349.842C133.035 349.97 132.843 350.034 132.608 350.034ZM132.608 340.418C132.299 340.418 132.053 340.333 131.872 340.162C131.691 339.991 131.6 339.767 131.6 339.49C131.6 339.213 131.691 338.994 131.872 338.834C132.053 338.663 132.299 338.578 132.608 338.578C132.907 338.578 133.147 338.663 133.328 338.834C133.52 338.994 133.616 339.213 133.616 339.49C133.616 339.767 133.525 339.991 133.344 340.162C133.163 340.333 132.917 340.418 132.608 340.418ZM139.059 350.066C138.291 350.066 137.614 349.901 137.027 349.57C136.451 349.239 136.003 348.77 135.683 348.162C135.374 347.543 135.219 346.829 135.219 346.018C135.219 345.197 135.374 344.482 135.683 343.874C136.003 343.255 136.451 342.781 137.027 342.45C137.614 342.119 138.291 341.954 139.059 341.954C139.827 341.954 140.499 342.119 141.075 342.45C141.662 342.781 142.11 343.255 142.419 343.874C142.739 344.482 142.899 345.197 142.899 346.018C142.899 346.829 142.739 347.543 142.419 348.162C142.11 348.77 141.662 349.239 141.075 349.57C140.499 349.901 139.827 350.066 139.059 350.066ZM139.059 348.786C139.774 348.786 140.318 348.551 140.691 348.082C141.075 347.613 141.267 346.925 141.267 346.018C141.267 345.122 141.075 344.439 140.691 343.97C140.307 343.49 139.763 343.25 139.059 343.25C138.355 343.25 137.811 343.49 137.427 343.97C137.043 344.439 136.851 345.122 136.851 346.018C136.851 346.925 137.038 347.613 137.411 348.082C137.795 348.551 138.344 348.786 139.059 348.786ZM148.906 341.954C150.773 341.954 151.706 343.005 151.706 345.106V349.266C151.706 349.511 151.631 349.703 151.482 349.842C151.343 349.97 151.146 350.034 150.89 350.034C150.645 350.034 150.447 349.965 150.298 349.826C150.159 349.687 150.09 349.501 150.09 349.266V345.186C150.09 344.525 149.957 344.039 149.69 343.73C149.434 343.421 149.029 343.266 148.474 343.266C147.823 343.266 147.301 343.469 146.906 343.874C146.511 344.279 146.314 344.823 146.314 345.506V349.266C146.314 349.501 146.239 349.687 146.09 349.826C145.951 349.965 145.759 350.034 145.514 350.034C145.269 350.034 145.071 349.965 144.922 349.826C144.773 349.687 144.698 349.501 144.698 349.266V342.754C144.698 342.53 144.773 342.349 144.922 342.21C145.082 342.061 145.279 341.986 145.514 341.986C145.749 341.986 145.935 342.055 146.074 342.194C146.213 342.333 146.282 342.514 146.282 342.738V343.394C146.538 342.925 146.895 342.567 147.354 342.322C147.813 342.077 148.33 341.954 148.906 341.954Z" fill="#030229"/>
<g opacity="0.4">
<path fill-rule="evenodd" clip-rule="evenodd" d="M49.7071 341.82C49.7071 343.203 50.039 344.018 50.7695 344.957C51.3231 345.649 51.5 346.538 51.5 347.502C51.5 348.464 51.2128 349.378 50.6373 350.12C49.884 351.01 48.8215 351.578 47.7372 351.676C46.1659 351.824 44.5937 351.948 43.0005 351.948C41.4063 351.948 39.835 351.874 38.2638 351.676C37.1785 351.578 36.116 351.01 35.3637 350.12C34.7882 349.378 34.5 348.464 34.5 347.502C34.5 346.538 34.6779 345.649 35.2305 344.957C35.9838 344.018 36.2939 343.203 36.2939 341.82V341.35C36.2939 339.498 36.7133 338.287 37.577 337.101C38.8611 335.372 40.9194 334.335 42.9558 334.335H43.0452C45.1254 334.335 47.2502 335.422 48.5125 337.226C49.3314 338.387 49.7071 339.547 49.7071 341.35V341.82ZM40.0737 354.225C40.0737 353.67 40.5358 353.416 40.9632 353.307C41.4631 353.191 44.5093 353.191 45.0092 353.307C45.4365 353.416 45.8987 353.67 45.8987 354.225C45.8738 354.753 45.5926 355.221 45.204 355.518C44.7001 355.95 44.1087 356.224 43.4906 356.323C43.1487 356.372 42.8128 356.373 42.4828 356.323C41.8636 356.224 41.2723 355.95 40.7694 355.517C40.3798 355.221 40.0985 354.753 40.0737 354.225Z" fill="#030229"/>
</g>
<g opacity="0.4">
<path fill-rule="evenodd" clip-rule="evenodd" d="M47.4109 268.752L47.4119 269.577C50.1665 269.815 51.9862 271.882 51.9891 275.052L52 284.331C52.0039 287.787 50.0322 289.914 46.8718 289.919L39.1519 289.93C36.0112 289.935 34.0148 287.757 34.0109 284.291L34 275.122C33.9961 271.931 35.7515 269.869 38.5062 269.591L38.5052 268.765C38.5042 268.281 38.83 267.916 39.2644 267.916C39.6989 267.915 40.0247 268.279 40.0257 268.763L40.0267 269.533L45.8914 269.525L45.8904 268.754C45.8894 268.27 46.2152 267.907 46.6497 267.905C47.0742 267.904 47.4099 268.268 47.4109 268.752ZM35.5215 275.462L50.4696 275.44V275.054C50.4272 272.688 49.349 271.446 47.4138 271.261L47.4148 272.109C47.4148 272.582 47.0801 272.958 46.6556 272.958C46.2211 272.959 45.8943 272.584 45.8943 272.111L45.8933 271.22L40.0286 271.228L40.0296 272.119C40.0296 272.593 39.7048 272.967 39.2703 272.967C38.8359 272.969 38.5091 272.595 38.5091 272.121L38.5081 271.274C36.5828 271.486 35.5175 272.732 35.5205 275.119L35.5215 275.462ZM46.2399 280.464V280.476C46.2498 280.983 46.625 281.367 47.0801 281.356C47.5244 281.344 47.8789 280.924 47.869 280.418C47.8483 279.934 47.4918 279.539 47.0485 279.54C46.5943 279.551 46.2389 279.958 46.2399 280.464ZM47.0554 285.406C46.6013 285.395 46.235 284.978 46.234 284.472C46.2241 283.966 46.5884 283.546 47.0426 283.534H47.0525C47.5165 283.534 47.8927 283.951 47.8927 284.469C47.8937 284.986 47.5185 285.405 47.0554 285.406ZM42.1721 280.482C42.1919 280.988 42.568 281.383 43.0222 281.361C43.4665 281.338 43.821 280.92 43.8012 280.414C43.7903 279.918 43.425 279.533 42.9807 279.534C42.5266 279.556 42.1711 279.976 42.1721 280.482ZM43.0261 285.357C42.572 285.379 42.1968 284.984 42.176 284.477C42.176 283.971 42.5305 283.553 42.9847 283.53C43.429 283.529 43.7953 283.914 43.8051 284.408C43.8259 284.915 43.4704 285.334 43.0261 285.357ZM38.1043 280.52C38.1241 281.027 38.5002 281.423 38.9544 281.4C39.3987 281.378 39.7531 280.959 39.7324 280.452C39.7225 279.957 39.3572 279.572 38.9119 279.573C38.4578 279.595 38.1033 280.014 38.1043 280.52ZM38.9584 285.362C38.5042 285.385 38.129 284.989 38.1083 284.483C38.1073 283.977 38.4627 283.557 38.9169 283.535C39.3612 283.534 39.7275 283.919 39.7374 284.415C39.7581 284.921 39.4036 285.34 38.9584 285.362Z" fill="#030229"/>
</g>
<path opacity="0.5" d="M75.368 284.062C74.2267 284.062 73.2507 283.827 72.44 283.358C71.6293 282.889 71.0053 282.222 70.568 281.358C70.1413 280.483 69.928 279.454 69.928 278.27C69.928 277.385 70.0507 276.59 70.296 275.886C70.5413 275.171 70.8933 274.563 71.352 274.062C71.8213 273.55 72.392 273.161 73.064 272.894C73.7467 272.627 74.5147 272.494 75.368 272.494C75.9973 272.494 76.6 272.579 77.176 272.75C77.7627 272.921 78.2693 273.166 78.696 273.486C78.8773 273.603 78.9947 273.747 79.048 273.918C79.112 274.078 79.1227 274.233 79.08 274.382C79.048 274.531 78.9787 274.659 78.872 274.766C78.7653 274.862 78.6267 274.915 78.456 274.926C78.296 274.937 78.12 274.878 77.928 274.75C77.576 274.483 77.1867 274.286 76.76 274.158C76.3333 274.03 75.8853 273.966 75.416 273.966C74.6053 273.966 73.9227 274.137 73.368 274.478C72.8133 274.809 72.392 275.294 72.104 275.934C71.816 276.574 71.672 277.353 71.672 278.27C71.672 279.187 71.816 279.971 72.104 280.622C72.392 281.262 72.8133 281.753 73.368 282.094C73.9227 282.425 74.6053 282.59 75.416 282.59C75.8853 282.59 76.3333 282.526 76.76 282.398C77.1973 282.259 77.608 282.057 77.992 281.79C78.184 281.673 78.3547 281.619 78.504 281.63C78.664 281.641 78.7973 281.694 78.904 281.79C79.0107 281.886 79.08 282.009 79.112 282.158C79.1547 282.297 79.1493 282.446 79.096 282.606C79.0533 282.755 78.952 282.883 78.792 282.99C78.3547 283.342 77.8373 283.609 77.24 283.79C76.6427 283.971 76.0187 284.062 75.368 284.062ZM83.1789 284.062C82.6349 284.062 82.1442 283.955 81.7069 283.742C81.2802 283.529 80.9442 283.241 80.6989 282.878C80.4535 282.515 80.3309 282.105 80.3309 281.646C80.3309 281.07 80.4749 280.617 80.7629 280.286C81.0615 279.945 81.5469 279.705 82.2189 279.566C82.9015 279.417 83.8189 279.342 84.9709 279.342H85.7229V280.334H84.9869C84.2189 280.334 83.6109 280.371 83.1629 280.446C82.7149 280.521 82.3949 280.649 82.2029 280.83C82.0215 281.001 81.9309 281.241 81.9309 281.55C81.9309 281.955 82.0695 282.286 82.3469 282.542C82.6242 282.787 83.0082 282.91 83.4989 282.91C83.8935 282.91 84.2402 282.819 84.5389 282.638C84.8375 282.446 85.0722 282.19 85.2429 281.87C85.4242 281.55 85.5149 281.182 85.5149 280.766V278.926C85.5149 278.318 85.3869 277.881 85.1309 277.614C84.8749 277.347 84.4535 277.214 83.8669 277.214C83.5255 277.214 83.1682 277.257 82.7949 277.342C82.4322 277.427 82.0535 277.571 81.6589 277.774C81.4775 277.859 81.3229 277.886 81.1949 277.854C81.0669 277.822 80.9655 277.753 80.8909 277.646C80.8162 277.529 80.7735 277.406 80.7629 277.278C80.7629 277.139 80.7949 277.006 80.8589 276.878C80.9335 276.75 81.0562 276.654 81.2269 276.59C81.6962 276.366 82.1602 276.206 82.6189 276.11C83.0775 276.014 83.5095 275.966 83.9149 275.966C84.6295 275.966 85.2162 276.078 85.6749 276.302C86.1442 276.526 86.4909 276.867 86.7149 277.326C86.9389 277.785 87.0509 278.377 87.0509 279.102V283.214C87.0509 283.47 86.9869 283.673 86.8589 283.822C86.7309 283.961 86.5442 284.03 86.2989 284.03C86.0642 284.03 85.8775 283.961 85.7389 283.822C85.6002 283.673 85.5309 283.47 85.5309 283.214V282.174H85.6749C85.5895 282.569 85.4295 282.91 85.1949 283.198C84.9709 283.475 84.6882 283.689 84.3469 283.838C84.0055 283.987 83.6162 284.062 83.1789 284.062ZM91.7886 284.062C90.9566 284.062 90.3273 283.822 89.9006 283.342C89.4846 282.851 89.2766 282.147 89.2766 281.23V273.342C89.2766 273.075 89.346 272.873 89.4846 272.734C89.6233 272.595 89.8206 272.526 90.0766 272.526C90.3326 272.526 90.53 272.595 90.6686 272.734C90.818 272.873 90.8926 273.075 90.8926 273.342V281.134C90.8926 281.667 90.9993 282.067 91.2126 282.334C91.4366 282.59 91.7566 282.718 92.1726 282.718C92.2686 282.718 92.354 282.718 92.4286 282.718C92.5033 282.707 92.578 282.697 92.6526 282.686C92.7806 282.675 92.8713 282.713 92.9246 282.798C92.978 282.873 93.0046 283.033 93.0046 283.278C93.0046 283.502 92.9566 283.678 92.8606 283.806C92.7646 283.923 92.61 283.998 92.3966 284.03C92.3006 284.041 92.1993 284.046 92.0926 284.046C91.986 284.057 91.8846 284.062 91.7886 284.062ZM97.7531 284.062C96.8998 284.062 96.1638 283.902 95.5451 283.582C94.9371 283.251 94.4625 282.787 94.1211 282.19C93.7905 281.582 93.6251 280.862 93.6251 280.03C93.6251 279.219 93.7905 278.51 94.1211 277.902C94.4518 277.294 94.9051 276.819 95.4811 276.478C96.0571 276.137 96.7131 275.966 97.4491 275.966C97.9931 275.966 98.4785 276.057 98.9051 276.238C99.3318 276.409 99.6945 276.665 99.9931 277.006C100.302 277.337 100.532 277.742 100.681 278.222C100.841 278.702 100.921 279.241 100.921 279.838C100.921 280.019 100.868 280.158 100.761 280.254C100.654 280.339 100.494 280.382 100.281 280.382H94.9051V279.39H99.8331L99.5611 279.614C99.5611 279.081 99.4811 278.627 99.3211 278.254C99.1718 277.881 98.9425 277.598 98.6331 277.406C98.3345 277.203 97.9611 277.102 97.5131 277.102C97.0118 277.102 96.5851 277.219 96.2331 277.454C95.8918 277.689 95.6305 278.014 95.4491 278.43C95.2678 278.846 95.1771 279.331 95.1771 279.886V279.982C95.1771 280.921 95.3958 281.63 95.8331 282.11C96.2811 282.579 96.9265 282.814 97.7691 282.814C98.0891 282.814 98.4251 282.771 98.7771 282.686C99.1398 282.601 99.4811 282.457 99.8011 282.254C99.9825 282.147 100.142 282.099 100.281 282.11C100.43 282.121 100.548 282.169 100.633 282.254C100.729 282.339 100.788 282.446 100.809 282.574C100.83 282.702 100.809 282.835 100.745 282.974C100.681 283.102 100.569 283.219 100.409 283.326C100.046 283.571 99.6251 283.758 99.1451 283.886C98.6651 284.003 98.2011 284.062 97.7531 284.062ZM103.483 284.03C103.227 284.03 103.03 283.961 102.891 283.822C102.752 283.673 102.683 283.47 102.683 283.214V276.814C102.683 276.547 102.752 276.345 102.891 276.206C103.03 276.067 103.222 275.998 103.467 275.998C103.723 275.998 103.915 276.067 104.043 276.206C104.182 276.345 104.251 276.547 104.251 276.814V278.062L104.075 277.774C104.31 277.177 104.678 276.729 105.179 276.43C105.68 276.121 106.256 275.966 106.907 275.966C107.526 275.966 108.038 276.083 108.443 276.318C108.859 276.542 109.168 276.889 109.371 277.358C109.574 277.817 109.675 278.398 109.675 279.102V283.214C109.675 283.47 109.606 283.673 109.467 283.822C109.328 283.961 109.131 284.03 108.875 284.03C108.608 284.03 108.406 283.961 108.267 283.822C108.128 283.673 108.059 283.47 108.059 283.214V279.198C108.059 278.526 107.926 278.035 107.659 277.726C107.403 277.417 106.998 277.262 106.443 277.262C105.792 277.262 105.27 277.465 104.875 277.87C104.491 278.275 104.299 278.819 104.299 279.502V283.214C104.299 283.758 104.027 284.03 103.483 284.03ZM114.878 284.062C114.195 284.062 113.592 283.902 113.07 283.582C112.558 283.251 112.158 282.782 111.87 282.174C111.582 281.555 111.438 280.835 111.438 280.014C111.438 279.171 111.582 278.451 111.87 277.854C112.158 277.257 112.558 276.793 113.07 276.462C113.592 276.131 114.195 275.966 114.878 275.966C115.56 275.966 116.147 276.137 116.638 276.478C117.139 276.809 117.475 277.257 117.646 277.822H117.47V273.342C117.47 273.075 117.539 272.873 117.678 272.734C117.816 272.595 118.014 272.526 118.27 272.526C118.526 272.526 118.723 272.595 118.862 272.734C119.011 272.873 119.086 273.075 119.086 273.342V283.214C119.086 283.47 119.016 283.673 118.878 283.822C118.739 283.961 118.542 284.03 118.286 284.03C118.03 284.03 117.832 283.961 117.694 283.822C117.555 283.673 117.486 283.47 117.486 283.214V281.806L117.662 282.158C117.491 282.734 117.155 283.198 116.654 283.55C116.163 283.891 115.571 284.062 114.878 284.062ZM115.294 282.814C115.731 282.814 116.115 282.707 116.446 282.494C116.776 282.281 117.032 281.966 117.214 281.55C117.406 281.134 117.502 280.622 117.502 280.014C117.502 279.097 117.299 278.403 116.894 277.934C116.488 277.465 115.955 277.23 115.294 277.23C114.846 277.23 114.456 277.337 114.126 277.55C113.795 277.753 113.534 278.062 113.342 278.478C113.16 278.894 113.07 279.406 113.07 280.014C113.07 280.921 113.272 281.614 113.678 282.094C114.083 282.574 114.622 282.814 115.294 282.814ZM123.851 284.062C123.307 284.062 122.816 283.955 122.379 283.742C121.952 283.529 121.616 283.241 121.371 282.878C121.125 282.515 121.003 282.105 121.003 281.646C121.003 281.07 121.147 280.617 121.435 280.286C121.733 279.945 122.219 279.705 122.891 279.566C123.573 279.417 124.491 279.342 125.643 279.342H126.395V280.334H125.659C124.891 280.334 124.283 280.371 123.835 280.446C123.387 280.521 123.067 280.649 122.875 280.83C122.693 281.001 122.603 281.241 122.603 281.55C122.603 281.955 122.741 282.286 123.019 282.542C123.296 282.787 123.68 282.91 124.171 282.91C124.565 282.91 124.912 282.819 125.211 282.638C125.509 282.446 125.744 282.19 125.915 281.87C126.096 281.55 126.187 281.182 126.187 280.766V278.926C126.187 278.318 126.059 277.881 125.803 277.614C125.547 277.347 125.125 277.214 124.539 277.214C124.197 277.214 123.84 277.257 123.467 277.342C123.104 277.427 122.725 277.571 122.331 277.774C122.149 277.859 121.995 277.886 121.867 277.854C121.739 277.822 121.637 277.753 121.563 277.646C121.488 277.529 121.445 277.406 121.435 277.278C121.435 277.139 121.467 277.006 121.531 276.878C121.605 276.75 121.728 276.654 121.899 276.59C122.368 276.366 122.832 276.206 123.291 276.11C123.749 276.014 124.181 275.966 124.587 275.966C125.301 275.966 125.888 276.078 126.347 276.302C126.816 276.526 127.163 276.867 127.387 277.326C127.611 277.785 127.723 278.377 127.723 279.102V283.214C127.723 283.47 127.659 283.673 127.531 283.822C127.403 283.961 127.216 284.03 126.971 284.03C126.736 284.03 126.549 283.961 126.411 283.822C126.272 283.673 126.203 283.47 126.203 283.214V282.174H126.347C126.261 282.569 126.101 282.91 125.867 283.198C125.643 283.475 125.36 283.689 125.019 283.838C124.677 283.987 124.288 284.062 123.851 284.062ZM130.765 284.03C130.498 284.03 130.295 283.961 130.157 283.822C130.018 283.673 129.949 283.47 129.949 283.214V276.814C129.949 276.547 130.018 276.345 130.157 276.206C130.295 276.067 130.487 275.998 130.733 275.998C130.989 275.998 131.181 276.067 131.309 276.206C131.447 276.345 131.517 276.547 131.517 276.814V277.982H131.357C131.527 277.342 131.842 276.857 132.301 276.526C132.759 276.195 133.346 276.003 134.061 275.95C134.253 275.939 134.402 275.987 134.509 276.094C134.626 276.201 134.69 276.366 134.701 276.59C134.722 276.814 134.674 276.995 134.557 277.134C134.439 277.262 134.258 277.337 134.013 277.358L133.709 277.39C133.015 277.454 132.487 277.673 132.125 278.046C131.762 278.419 131.581 278.931 131.581 279.582V283.214C131.581 283.47 131.511 283.673 131.373 283.822C131.245 283.961 131.042 284.03 130.765 284.03Z" fill="#030229"/>
<path opacity="0.5" d="M74.04 217.401C73.2293 217.401 72.456 217.289 71.72 217.065C70.9947 216.841 70.4133 216.532 69.976 216.137C69.7733 215.966 69.672 215.748 69.672 215.481C69.672 215.289 69.7253 215.129 69.832 215.001C69.9387 214.862 70.0667 214.793 70.216 214.793C70.3653 214.793 70.5467 214.862 70.76 215.001C71.7093 215.705 72.792 216.057 74.008 216.057C74.8613 216.057 75.5173 215.897 75.976 215.577C76.4347 215.257 76.664 214.798 76.664 214.201C76.664 213.732 76.4507 213.38 76.024 213.145C75.5973 212.91 74.9147 212.686 73.976 212.473C73.08 212.281 72.344 212.062 71.768 211.817C71.192 211.572 70.7387 211.241 70.408 210.825C70.088 210.398 69.928 209.86 69.928 209.209C69.928 208.558 70.104 207.982 70.456 207.481C70.8187 206.969 71.32 206.574 71.96 206.297C72.6 206.009 73.3307 205.865 74.152 205.865C74.9093 205.865 75.608 205.972 76.248 206.185C76.888 206.398 77.432 206.713 77.88 207.129C78.0933 207.31 78.2 207.529 78.2 207.785C78.2 207.966 78.1413 208.126 78.024 208.265C77.9173 208.404 77.7893 208.473 77.64 208.473C77.5013 208.473 77.3253 208.404 77.112 208.265C76.6213 207.892 76.1573 207.625 75.72 207.465C75.2933 207.294 74.776 207.209 74.168 207.209C73.3467 207.209 72.7067 207.38 72.248 207.721C71.7893 208.052 71.56 208.516 71.56 209.113C71.56 209.625 71.7627 210.014 72.168 210.281C72.5733 210.537 73.224 210.772 74.12 210.985C75.0587 211.198 75.816 211.422 76.392 211.657C76.9787 211.881 77.4427 212.196 77.784 212.601C78.136 212.996 78.312 213.508 78.312 214.137C78.312 214.777 78.1307 215.348 77.768 215.849C77.416 216.34 76.9147 216.724 76.264 217.001C75.624 217.268 74.8827 217.401 74.04 217.401ZM83.4953 217.385C82.7379 217.385 82.0713 217.22 81.4953 216.889C80.9299 216.558 80.4873 216.089 80.1673 215.481C79.8579 214.873 79.7033 214.169 79.7033 213.369C79.7033 212.558 79.8633 211.844 80.1833 211.225C80.5139 210.606 80.9726 210.126 81.5593 209.785C82.1459 209.444 82.8179 209.273 83.5753 209.273C83.9806 209.273 84.3859 209.332 84.7913 209.449C85.2073 209.566 85.5753 209.726 85.8953 209.929C86.2366 210.164 86.4073 210.436 86.4073 210.745C86.4073 210.926 86.3593 211.081 86.2633 211.209C86.1673 211.326 86.0446 211.385 85.8953 211.385C85.7993 211.385 85.7033 211.364 85.6073 211.321C85.5113 211.268 85.3886 211.193 85.2393 211.097C84.9726 210.926 84.7219 210.798 84.4873 210.713C84.2633 210.617 83.9913 210.569 83.6713 210.569C82.9459 210.569 82.3806 210.814 81.9753 211.305C81.5806 211.796 81.3832 212.478 81.3832 213.353C81.3832 214.228 81.5806 214.905 81.9753 215.385C82.3699 215.854 82.9299 216.089 83.6553 216.089C83.9753 216.089 84.2579 216.041 84.5033 215.945C84.7486 215.849 84.9993 215.721 85.2553 215.561C85.3726 215.486 85.4899 215.422 85.6073 215.369C85.7246 215.316 85.8313 215.289 85.9273 215.289C86.0766 215.289 86.1993 215.353 86.2953 215.481C86.3913 215.598 86.4393 215.748 86.4393 215.929C86.4393 216.078 86.3966 216.217 86.3113 216.345C86.2366 216.462 86.1033 216.585 85.9113 216.713C85.5913 216.926 85.2179 217.092 84.7913 217.209C84.3646 217.326 83.9326 217.385 83.4953 217.385ZM92.1096 209.273C93.9656 209.273 94.8936 210.324 94.8936 212.425V216.585C94.8936 216.82 94.819 217.006 94.6696 217.145C94.5203 217.284 94.323 217.353 94.0776 217.353C93.8323 217.353 93.635 217.284 93.4856 217.145C93.347 217.006 93.2776 216.82 93.2776 216.585V212.441C93.2776 211.801 93.1443 211.332 92.8776 211.033C92.6216 210.734 92.2163 210.585 91.6616 210.585C91.011 210.585 90.4883 210.788 90.0936 211.193C89.699 211.598 89.5016 212.142 89.5016 212.825V216.585C89.5016 216.82 89.427 217.006 89.2776 217.145C89.139 217.284 88.947 217.353 88.7016 217.353C88.4563 217.353 88.259 217.284 88.1096 217.145C87.9603 217.006 87.8856 216.82 87.8856 216.585V206.681C87.8856 206.446 87.9603 206.26 88.1096 206.121C88.2696 205.982 88.4723 205.913 88.7176 205.913C88.9523 205.913 89.139 205.982 89.2776 206.121C89.427 206.249 89.5016 206.425 89.5016 206.649V210.649C89.7683 210.201 90.1256 209.86 90.5736 209.625C91.0216 209.39 91.5336 209.273 92.1096 209.273ZM103.216 215.305C103.366 215.305 103.488 215.364 103.584 215.481C103.68 215.598 103.728 215.748 103.728 215.929C103.728 216.238 103.536 216.5 103.152 216.713C102.779 216.926 102.368 217.092 101.92 217.209C101.483 217.326 101.062 217.385 100.656 217.385C99.419 217.385 98.443 217.028 97.7284 216.313C97.0137 215.588 96.6564 214.601 96.6564 213.353C96.6564 212.553 96.811 211.844 97.1204 211.225C97.4404 210.606 97.883 210.126 98.4484 209.785C99.0244 209.444 99.675 209.273 100.4 209.273C101.446 209.273 102.272 209.609 102.88 210.281C103.488 210.953 103.792 211.86 103.792 213.001C103.792 213.428 103.6 213.641 103.216 213.641H98.2724C98.379 215.294 99.1737 216.121 100.656 216.121C101.051 216.121 101.392 216.068 101.68 215.961C101.968 215.854 102.272 215.716 102.592 215.545C102.624 215.524 102.71 215.481 102.848 215.417C102.998 215.342 103.12 215.305 103.216 215.305ZM100.432 210.457C99.8137 210.457 99.3177 210.654 98.9444 211.049C98.571 211.444 98.347 211.998 98.2724 212.713H102.4C102.368 211.988 102.182 211.433 101.84 211.049C101.51 210.654 101.04 210.457 100.432 210.457ZM111.957 205.913C112.202 205.913 112.4 205.982 112.549 206.121C112.698 206.26 112.773 206.446 112.773 206.681V216.569C112.773 216.814 112.698 217.006 112.549 217.145C112.41 217.284 112.218 217.353 111.973 217.353C111.728 217.353 111.53 217.284 111.381 217.145C111.242 217.006 111.173 216.814 111.173 216.569V215.929C110.938 216.398 110.597 216.761 110.149 217.017C109.701 217.262 109.184 217.385 108.597 217.385C107.925 217.385 107.322 217.214 106.789 216.873C106.266 216.532 105.856 216.052 105.557 215.433C105.269 214.814 105.125 214.105 105.125 213.305C105.125 212.494 105.269 211.785 105.557 211.177C105.856 210.569 106.266 210.1 106.789 209.769C107.312 209.438 107.914 209.273 108.597 209.273C109.184 209.273 109.696 209.401 110.133 209.657C110.581 209.902 110.922 210.254 111.157 210.713V206.649C111.157 206.425 111.226 206.249 111.365 206.121C111.514 205.982 111.712 205.913 111.957 205.913ZM108.981 216.105C109.674 216.105 110.213 215.865 110.597 215.385C110.981 214.905 111.173 214.222 111.173 213.337C111.173 212.452 110.981 211.769 110.597 211.289C110.224 210.809 109.685 210.569 108.981 210.569C108.277 210.569 107.728 210.809 107.333 211.289C106.949 211.758 106.757 212.43 106.757 213.305C106.757 214.18 106.954 214.868 107.349 215.369C107.744 215.86 108.288 216.105 108.981 216.105ZM121.074 209.305C121.32 209.305 121.512 209.374 121.65 209.513C121.8 209.652 121.874 209.844 121.874 210.089V216.601C121.874 216.825 121.8 217.006 121.65 217.145C121.501 217.284 121.304 217.353 121.058 217.353C120.834 217.353 120.653 217.289 120.514 217.161C120.376 217.022 120.306 216.841 120.306 216.617V216.009C120.061 216.457 119.72 216.798 119.282 217.033C118.856 217.268 118.376 217.385 117.842 217.385C115.944 217.385 114.994 216.34 114.994 214.249V210.089C114.994 209.844 115.064 209.652 115.202 209.513C115.352 209.374 115.554 209.305 115.81 209.305C116.056 209.305 116.248 209.374 116.386 209.513C116.536 209.652 116.61 209.844 116.61 210.089V214.233C116.61 214.862 116.738 215.326 116.994 215.625C117.25 215.924 117.645 216.073 118.178 216.073C118.808 216.073 119.309 215.87 119.682 215.465C120.066 215.06 120.258 214.521 120.258 213.849V210.089C120.258 209.854 120.333 209.668 120.482 209.529C120.632 209.38 120.829 209.305 121.074 209.305ZM124.952 217.353C124.717 217.353 124.52 217.289 124.36 217.161C124.21 217.033 124.136 216.841 124.136 216.585V206.697C124.136 206.441 124.21 206.249 124.36 206.121C124.52 205.982 124.717 205.913 124.952 205.913C125.186 205.913 125.378 205.982 125.528 206.121C125.677 206.249 125.752 206.441 125.752 206.697V216.585C125.752 216.841 125.677 217.033 125.528 217.161C125.378 217.289 125.186 217.353 124.952 217.353ZM134.123 215.305C134.272 215.305 134.395 215.364 134.491 215.481C134.587 215.598 134.635 215.748 134.635 215.929C134.635 216.238 134.443 216.5 134.059 216.713C133.685 216.926 133.275 217.092 132.827 217.209C132.389 217.326 131.968 217.385 131.563 217.385C130.325 217.385 129.349 217.028 128.635 216.313C127.92 215.588 127.563 214.601 127.563 213.353C127.563 212.553 127.717 211.844 128.027 211.225C128.347 210.606 128.789 210.126 129.355 209.785C129.931 209.444 130.581 209.273 131.307 209.273C132.352 209.273 133.179 209.609 133.787 210.281C134.395 210.953 134.699 211.86 134.699 213.001C134.699 213.428 134.507 213.641 134.123 213.641H129.179C129.285 215.294 130.08 216.121 131.563 216.121C131.957 216.121 132.299 216.068 132.587 215.961C132.875 215.854 133.179 215.716 133.499 215.545C133.531 215.524 133.616 215.481 133.755 215.417C133.904 215.342 134.027 215.305 134.123 215.305ZM131.339 210.457C130.72 210.457 130.224 210.654 129.851 211.049C129.477 211.444 129.253 211.998 129.179 212.713H133.307C133.275 211.988 133.088 211.433 132.747 211.049C132.416 210.654 131.947 210.457 131.339 210.457Z" fill="#030229"/>
<g opacity="0.4">
<path fill-rule="evenodd" clip-rule="evenodd" d="M38.81 201.476H47.191C50.28 201.476 52 203.436 52 206.795V218.17C52 221.584 50.28 223.5 47.191 223.5H38.81C35.77 223.5 34 221.584 34 218.17V206.795C34 203.436 35.77 201.476 38.81 201.476ZM39.08 206.607V206.596H42.069C42.5 206.596 42.85 206.982 42.85 207.454C42.85 207.94 42.5 208.325 42.069 208.325H39.08C38.649 208.325 38.3 207.94 38.3 207.466C38.3 206.993 38.649 206.607 39.08 206.607ZM39.08 213.303H46.92C47.35 213.303 47.7 212.918 47.7 212.444C47.7 211.97 47.35 211.584 46.92 211.584H39.08C38.649 211.584 38.3 211.97 38.3 212.444C38.3 212.918 38.649 213.303 39.08 213.303ZM39.08 218.336H46.92C47.319 218.292 47.62 217.916 47.62 217.477C47.62 217.025 47.319 216.651 46.92 216.607H39.08C38.78 216.574 38.49 216.728 38.33 217.014C38.17 217.289 38.17 217.653 38.33 217.939C38.49 218.215 38.78 218.38 39.08 218.336Z" fill="#030229"/>
</g>
<path opacity="0.5" d="M71.144 151.385C70.8773 151.385 70.6693 151.31 70.52 151.161C70.3813 151.012 70.312 150.804 70.312 150.537V140.729C70.312 140.452 70.3813 140.244 70.52 140.105C70.6693 139.956 70.8773 139.881 71.144 139.881C71.4107 139.881 71.6133 139.956 71.752 140.105C71.9013 140.244 71.976 140.452 71.976 140.729V150.537C71.976 150.804 71.9067 151.012 71.768 151.161C71.6293 151.31 71.4213 151.385 71.144 151.385ZM75.2173 151.385C74.9613 151.385 74.7639 151.316 74.6253 151.177C74.4866 151.028 74.4173 150.825 74.4173 150.569V144.169C74.4173 143.902 74.4866 143.7 74.6253 143.561C74.7639 143.422 74.9559 143.353 75.2013 143.353C75.4573 143.353 75.6493 143.422 75.7773 143.561C75.9159 143.7 75.9853 143.902 75.9853 144.169V145.417L75.8093 145.129C76.0439 144.532 76.4119 144.084 76.9133 143.785C77.4146 143.476 77.9906 143.321 78.6413 143.321C79.2599 143.321 79.7719 143.438 80.1773 143.673C80.5933 143.897 80.9026 144.244 81.1053 144.713C81.3079 145.172 81.4093 145.753 81.4093 146.457V150.569C81.4093 150.825 81.3399 151.028 81.2013 151.177C81.0626 151.316 80.8653 151.385 80.6093 151.385C80.3426 151.385 80.1399 151.316 80.0013 151.177C79.8626 151.028 79.7933 150.825 79.7933 150.569V146.553C79.7933 145.881 79.6599 145.39 79.3933 145.081C79.1373 144.772 78.7319 144.617 78.1773 144.617C77.5266 144.617 77.0039 144.82 76.6093 145.225C76.2253 145.63 76.0333 146.174 76.0333 146.857V150.569C76.0333 151.113 75.7613 151.385 75.2173 151.385ZM86.5819 151.385C86.3579 151.385 86.1605 151.326 85.9899 151.209C85.8299 151.092 85.6965 150.91 85.5899 150.665L82.9179 144.457C82.8325 144.265 82.8005 144.084 82.8219 143.913C82.8432 143.742 82.9232 143.609 83.0619 143.513C83.2005 143.406 83.3872 143.353 83.6219 143.353C83.8245 143.353 83.9845 143.401 84.1019 143.497C84.2192 143.593 84.3259 143.758 84.4219 143.993L86.8379 149.945H86.3899L88.8539 143.993C88.9499 143.758 89.0565 143.593 89.1739 143.497C89.3019 143.401 89.4779 143.353 89.7019 143.353C89.8939 143.353 90.0432 143.406 90.1499 143.513C90.2672 143.609 90.3365 143.742 90.3579 143.913C90.3899 144.073 90.3632 144.249 90.2779 144.441L87.5739 150.665C87.4779 150.91 87.3445 151.092 87.1739 151.209C87.0032 151.326 86.8059 151.385 86.5819 151.385ZM95.1218 151.417C94.3324 151.417 93.6498 151.252 93.0738 150.921C92.5084 150.59 92.0658 150.121 91.7458 149.513C91.4258 148.905 91.2658 148.19 91.2658 147.369C91.2658 146.74 91.3564 146.18 91.5378 145.689C91.7191 145.198 91.9751 144.777 92.3058 144.425C92.6471 144.062 93.0524 143.79 93.5218 143.609C94.0018 143.417 94.5351 143.321 95.1218 143.321C95.9004 143.321 96.5724 143.486 97.1378 143.817C97.7138 144.148 98.1618 144.617 98.4818 145.225C98.8018 145.822 98.9618 146.537 98.9618 147.369C98.9618 147.988 98.8711 148.548 98.6898 149.049C98.5084 149.55 98.2471 149.977 97.9058 150.329C97.5751 150.681 97.1698 150.953 96.6898 151.145C96.2204 151.326 95.6978 151.417 95.1218 151.417ZM95.1218 150.169C95.5591 150.169 95.9431 150.062 96.2738 149.849C96.6044 149.636 96.8604 149.321 97.0418 148.905C97.2338 148.489 97.3298 147.977 97.3298 147.369C97.3298 146.452 97.1271 145.758 96.7218 145.289C96.3164 144.82 95.7831 144.585 95.1218 144.585C94.6738 144.585 94.2844 144.692 93.9538 144.905C93.6231 145.108 93.3618 145.417 93.1698 145.833C92.9884 146.249 92.8978 146.761 92.8978 147.369C92.8978 148.276 93.1004 148.969 93.5058 149.449C93.9111 149.929 94.4498 150.169 95.1218 150.169ZM101.577 151.369C101.321 151.369 101.123 151.294 100.985 151.145C100.846 150.985 100.777 150.766 100.777 150.489V144.249C100.777 143.972 100.846 143.758 100.985 143.609C101.123 143.46 101.321 143.385 101.577 143.385C101.833 143.385 102.03 143.46 102.169 143.609C102.318 143.758 102.393 143.972 102.393 144.249V150.489C102.393 150.766 102.323 150.985 102.185 151.145C102.046 151.294 101.843 151.369 101.577 151.369ZM101.577 141.721C101.257 141.721 101.006 141.641 100.825 141.481C100.654 141.321 100.569 141.097 100.569 140.809C100.569 140.51 100.654 140.286 100.825 140.137C101.006 139.977 101.257 139.897 101.577 139.897C101.897 139.897 102.142 139.977 102.313 140.137C102.494 140.286 102.585 140.51 102.585 140.809C102.585 141.097 102.494 141.321 102.313 141.481C102.142 141.641 101.897 141.721 101.577 141.721ZM108.107 151.417C107.307 151.417 106.614 151.252 106.027 150.921C105.451 150.58 105.003 150.105 104.683 149.497C104.363 148.878 104.203 148.153 104.203 147.321C104.203 146.702 104.294 146.148 104.475 145.657C104.657 145.156 104.913 144.734 105.243 144.393C105.585 144.052 105.995 143.79 106.475 143.609C106.966 143.417 107.51 143.321 108.107 143.321C108.481 143.321 108.87 143.38 109.275 143.497C109.691 143.604 110.075 143.785 110.427 144.041C110.566 144.126 110.651 144.233 110.683 144.361C110.726 144.478 110.731 144.601 110.699 144.729C110.678 144.857 110.619 144.969 110.523 145.065C110.438 145.15 110.331 145.204 110.203 145.225C110.075 145.236 109.937 145.198 109.787 145.113C109.531 144.932 109.27 144.804 109.003 144.729C108.737 144.644 108.481 144.601 108.235 144.601C107.851 144.601 107.51 144.665 107.211 144.793C106.923 144.91 106.678 145.086 106.475 145.321C106.273 145.545 106.118 145.828 106.011 146.169C105.915 146.51 105.867 146.9 105.867 147.337C105.867 148.212 106.07 148.9 106.475 149.401C106.891 149.892 107.478 150.137 108.235 150.137C108.481 150.137 108.737 150.1 109.003 150.025C109.27 149.95 109.531 149.822 109.787 149.641C109.937 149.556 110.075 149.524 110.203 149.545C110.331 149.566 110.433 149.625 110.507 149.721C110.593 149.806 110.646 149.913 110.667 150.041C110.699 150.158 110.694 150.281 110.651 150.409C110.609 150.537 110.518 150.644 110.379 150.729C110.038 150.974 109.665 151.15 109.259 151.257C108.865 151.364 108.481 151.417 108.107 151.417ZM115.644 151.417C114.79 151.417 114.054 151.257 113.436 150.937C112.828 150.606 112.353 150.142 112.012 149.545C111.681 148.937 111.516 148.217 111.516 147.385C111.516 146.574 111.681 145.865 112.012 145.257C112.342 144.649 112.796 144.174 113.372 143.833C113.948 143.492 114.604 143.321 115.34 143.321C115.884 143.321 116.369 143.412 116.796 143.593C117.222 143.764 117.585 144.02 117.884 144.361C118.193 144.692 118.422 145.097 118.572 145.577C118.732 146.057 118.812 146.596 118.812 147.193C118.812 147.374 118.758 147.513 118.652 147.609C118.545 147.694 118.385 147.737 118.172 147.737H112.796V146.745H117.724L117.452 146.969C117.452 146.436 117.372 145.982 117.212 145.609C117.062 145.236 116.833 144.953 116.524 144.761C116.225 144.558 115.852 144.457 115.404 144.457C114.902 144.457 114.476 144.574 114.124 144.809C113.782 145.044 113.521 145.369 113.34 145.785C113.158 146.201 113.068 146.686 113.068 147.241V147.337C113.068 148.276 113.286 148.985 113.724 149.465C114.172 149.934 114.817 150.169 115.66 150.169C115.98 150.169 116.316 150.126 116.668 150.041C117.03 149.956 117.372 149.812 117.692 149.609C117.873 149.502 118.033 149.454 118.172 149.465C118.321 149.476 118.438 149.524 118.524 149.609C118.62 149.694 118.678 149.801 118.7 149.929C118.721 150.057 118.7 150.19 118.636 150.329C118.572 150.457 118.46 150.574 118.3 150.681C117.937 150.926 117.516 151.113 117.036 151.241C116.556 151.358 116.092 151.417 115.644 151.417Z" fill="#030229"/>
<g opacity="0.4">
<path fill-rule="evenodd" clip-rule="evenodd" d="M52.7872 144.474C52.6518 144.619 52.4681 144.702 52.2747 144.702C51.559 144.702 50.9787 145.323 50.9787 146.078C50.9787 146.838 51.5522 147.456 52.2611 147.464C52.6605 147.468 53 147.766 53 148.194V150.848C53 153.081 51.3075 154.893 49.2186 154.893H46.0658C45.7398 154.893 45.4758 154.611 45.4758 154.262V152.027C45.4758 151.593 45.1567 151.251 44.7505 151.251C44.354 151.251 44.0251 151.593 44.0251 152.027V154.262C44.0251 154.611 43.7611 154.893 43.4362 154.893H36.7814C34.7021 154.893 33 153.082 33 150.848V148.194C33 147.766 33.3395 147.468 33.7389 147.464C34.4487 147.456 35.0213 146.838 35.0213 146.078C35.0213 145.343 34.4603 144.785 33.7253 144.785C33.5319 144.785 33.3482 144.702 33.2128 144.557C33.0774 144.412 33 144.216 33 144.009V141.329C33 139.098 34.706 137.273 36.7911 137.273H43.4362C43.7611 137.273 44.0251 137.556 44.0251 137.904V140.553C44.0251 140.977 44.354 141.329 44.7505 141.329C45.1567 141.329 45.4758 140.977 45.4758 140.553V137.904C45.4758 137.556 45.7398 137.273 46.0658 137.273H49.2186C51.3075 137.273 53 139.084 53 141.319V143.926C53 144.133 52.9226 144.329 52.7872 144.474ZM44.7505 149.244C45.1567 149.244 45.4758 148.892 45.4758 148.468V144.329C45.4758 143.905 45.1567 143.553 44.7505 143.553C44.354 143.553 44.0251 143.905 44.0251 144.329V148.468C44.0251 148.892 44.354 149.244 44.7505 149.244Z" fill="#030229"/>
</g>
<path fill-rule="evenodd" clip-rule="evenodd" d="M38.33 61H47.669C51.07 61 52.99 63.1243 53 66.8696V77.1552C53 80.8994 51.07 83.0248 47.669 83.0248H38.33C34.929 83.0248 33 80.8994 33 77.1552V66.8696C33 63.1243 34.929 61 38.33 61ZM43.049 78.4657C43.48 78.4657 43.839 78.1133 43.879 77.6398V66.4181C43.919 66.0767 43.77 65.7342 43.5 65.5481C43.219 65.3609 42.879 65.3609 42.61 65.5481C42.339 65.7342 42.19 66.0767 42.219 66.4181V77.6398C42.27 78.1133 42.629 78.4657 43.049 78.4657ZM47.65 78.4657C48.07 78.4657 48.429 78.1133 48.48 77.6398V74.0277C48.509 73.6742 48.36 73.3449 48.089 73.1577C47.82 72.9705 47.48 72.9705 47.2 73.1577C46.929 73.3449 46.78 73.6742 46.82 74.0277V77.6398C46.86 78.1133 47.219 78.4657 47.65 78.4657ZM39.219 77.6398C39.179 78.1133 38.82 78.4657 38.389 78.4657C37.959 78.4657 37.599 78.1133 37.56 77.6398V70.0302C37.53 69.6877 37.679 69.3474 37.95 69.1602C38.219 68.973 38.56 68.973 38.83 69.1602C39.099 69.3474 39.25 69.6877 39.219 70.0302V77.6398Z" fill="#605BFF"/>
<path d="M74.872 77.144C74.1147 77.144 73.448 77.048 72.872 76.856C72.296 76.6533 71.8107 76.3547 71.416 75.96C71.032 75.5653 70.7387 75.0747 70.536 74.488C70.3333 73.9013 70.232 73.224 70.232 72.456V66.44C70.232 66.1627 70.3013 65.9547 70.44 65.816C70.5893 65.6773 70.7973 65.608 71.064 65.608C71.3307 65.608 71.5333 65.6773 71.672 65.816C71.8213 65.9547 71.896 66.1627 71.896 66.44V72.424C71.896 73.5227 72.1467 74.344 72.648 74.888C73.16 75.432 73.9013 75.704 74.872 75.704C75.8533 75.704 76.5947 75.432 77.096 74.888C77.5973 74.344 77.848 73.5227 77.848 72.424V66.44C77.848 66.1627 77.9173 65.9547 78.056 65.816C78.2053 65.6773 78.408 65.608 78.664 65.608C78.9307 65.608 79.1333 65.6773 79.272 65.816C79.4107 65.9547 79.48 66.1627 79.48 66.44V72.456C79.48 73.48 79.304 74.344 78.952 75.048C78.6107 75.7413 78.0987 76.264 77.416 76.616C76.7333 76.968 75.8853 77.144 74.872 77.144ZM82.6704 79.992C82.4144 79.992 82.217 79.9227 82.0784 79.784C81.9397 79.6453 81.8704 79.4427 81.8704 79.176V69.896C81.8704 69.6293 81.9397 69.4267 82.0784 69.288C82.217 69.1493 82.409 69.08 82.6544 69.08C82.9104 69.08 83.1077 69.1493 83.2464 69.288C83.385 69.4267 83.4544 69.6293 83.4544 69.896V71.288L83.2784 70.952C83.449 70.376 83.785 69.9173 84.2864 69.576C84.7877 69.224 85.3797 69.048 86.0624 69.048C86.7557 69.048 87.3584 69.2133 87.8704 69.544C88.393 69.8747 88.793 70.3387 89.0704 70.936C89.3584 71.5333 89.5024 72.2533 89.5024 73.096C89.5024 73.9173 89.3584 74.6373 89.0704 75.256C88.793 75.864 88.3984 76.3333 87.8864 76.664C87.3744 76.984 86.7664 77.144 86.0624 77.144C85.3904 77.144 84.8037 76.9733 84.3024 76.632C83.801 76.2907 83.465 75.8373 83.2944 75.272H83.4864V79.176C83.4864 79.4427 83.4117 79.6453 83.2624 79.784C83.1237 79.9227 82.9264 79.992 82.6704 79.992ZM85.6624 75.896C86.1104 75.896 86.4997 75.7893 86.8304 75.576C87.161 75.3627 87.417 75.048 87.5984 74.632C87.7797 74.216 87.8704 73.704 87.8704 73.096C87.8704 72.1787 87.6677 71.4853 87.2624 71.016C86.8677 70.5467 86.3344 70.312 85.6624 70.312C85.225 70.312 84.8357 70.4187 84.4944 70.632C84.1637 70.8347 83.9077 71.144 83.7264 71.56C83.545 71.976 83.4544 72.488 83.4544 73.096C83.4544 74.0027 83.657 74.696 84.0624 75.176C84.4677 75.656 85.001 75.896 85.6624 75.896ZM93.8355 77.144C93.0035 77.144 92.3742 76.904 91.9475 76.424C91.5315 75.9333 91.3235 75.2293 91.3235 74.312V66.424C91.3235 66.1573 91.3928 65.9547 91.5315 65.816C91.6702 65.6773 91.8675 65.608 92.1235 65.608C92.3795 65.608 92.5768 65.6773 92.7155 65.816C92.8648 65.9547 92.9395 66.1573 92.9395 66.424V74.216C92.9395 74.7493 93.0462 75.1493 93.2595 75.416C93.4835 75.672 93.8035 75.8 94.2195 75.8C94.3155 75.8 94.4008 75.8 94.4755 75.8C94.5502 75.7893 94.6248 75.7787 94.6995 75.768C94.8275 75.7573 94.9182 75.7947 94.9715 75.88C95.0248 75.9547 95.0515 76.1147 95.0515 76.36C95.0515 76.584 95.0035 76.76 94.9075 76.888C94.8115 77.0053 94.6568 77.08 94.4435 77.112C94.3475 77.1227 94.2462 77.128 94.1395 77.128C94.0328 77.1387 93.9315 77.144 93.8355 77.144ZM99.528 77.144C98.7387 77.144 98.056 76.9787 97.48 76.648C96.9147 76.3173 96.472 75.848 96.152 75.24C95.832 74.632 95.672 73.9173 95.672 73.096C95.672 72.4667 95.7627 71.9067 95.944 71.416C96.1253 70.9253 96.3813 70.504 96.712 70.152C97.0533 69.7893 97.4587 69.5173 97.928 69.336C98.408 69.144 98.9413 69.048 99.528 69.048C100.307 69.048 100.979 69.2133 101.544 69.544C102.12 69.8747 102.568 70.344 102.888 70.952C103.208 71.5493 103.368 72.264 103.368 73.096C103.368 73.7147 103.277 74.2747 103.096 74.776C102.915 75.2773 102.653 75.704 102.312 76.056C101.981 76.408 101.576 76.68 101.096 76.872C100.627 77.0533 100.104 77.144 99.528 77.144ZM99.528 75.896C99.9653 75.896 100.349 75.7893 100.68 75.576C101.011 75.3627 101.267 75.048 101.448 74.632C101.64 74.216 101.736 73.704 101.736 73.096C101.736 72.1787 101.533 71.4853 101.128 71.016C100.723 70.5467 100.189 70.312 99.528 70.312C99.08 70.312 98.6907 70.4187 98.36 70.632C98.0293 70.8347 97.768 71.144 97.576 71.56C97.3947 71.976 97.304 72.488 97.304 73.096C97.304 74.0027 97.5067 74.696 97.912 75.176C98.3173 75.656 98.856 75.896 99.528 75.896ZM107.679 77.144C107.135 77.144 106.644 77.0373 106.207 76.824C105.78 76.6107 105.444 76.3227 105.199 75.96C104.954 75.5973 104.831 75.1867 104.831 74.728C104.831 74.152 104.975 73.6987 105.263 73.368C105.562 73.0267 106.047 72.7867 106.719 72.648C107.402 72.4987 108.319 72.424 109.471 72.424H110.223V73.416H109.487C108.719 73.416 108.111 73.4533 107.663 73.528C107.215 73.6027 106.895 73.7307 106.703 73.912C106.522 74.0827 106.431 74.3227 106.431 74.632C106.431 75.0373 106.57 75.368 106.847 75.624C107.124 75.8693 107.508 75.992 107.999 75.992C108.394 75.992 108.74 75.9013 109.039 75.72C109.338 75.528 109.572 75.272 109.743 74.952C109.924 74.632 110.015 74.264 110.015 73.848V72.008C110.015 71.4 109.887 70.9627 109.631 70.696C109.375 70.4293 108.954 70.296 108.367 70.296C108.026 70.296 107.668 70.3387 107.295 70.424C106.932 70.5093 106.554 70.6533 106.159 70.856C105.978 70.9413 105.823 70.968 105.695 70.936C105.567 70.904 105.466 70.8347 105.391 70.728C105.316 70.6107 105.274 70.488 105.263 70.36C105.263 70.2213 105.295 70.088 105.359 69.96C105.434 69.832 105.556 69.736 105.727 69.672C106.196 69.448 106.66 69.288 107.119 69.192C107.578 69.096 108.01 69.048 108.415 69.048C109.13 69.048 109.716 69.16 110.175 69.384C110.644 69.608 110.991 69.9493 111.215 70.408C111.439 70.8667 111.551 71.4587 111.551 72.184V76.296C111.551 76.552 111.487 76.7547 111.359 76.904C111.231 77.0427 111.044 77.112 110.799 77.112C110.564 77.112 110.378 77.0427 110.239 76.904C110.1 76.7547 110.031 76.552 110.031 76.296V75.256H110.175C110.09 75.6507 109.93 75.992 109.695 76.28C109.471 76.5573 109.188 76.7707 108.847 76.92C108.506 77.0693 108.116 77.144 107.679 77.144ZM116.753 77.144C116.07 77.144 115.467 76.984 114.945 76.664C114.433 76.3333 114.033 75.864 113.745 75.256C113.457 74.6373 113.313 73.9173 113.313 73.096C113.313 72.2533 113.457 71.5333 113.745 70.936C114.033 70.3387 114.433 69.8747 114.945 69.544C115.467 69.2133 116.07 69.048 116.753 69.048C117.435 69.048 118.022 69.2187 118.513 69.56C119.014 69.8907 119.35 70.3387 119.521 70.904H119.345V66.424C119.345 66.1573 119.414 65.9547 119.553 65.816C119.691 65.6773 119.889 65.608 120.145 65.608C120.401 65.608 120.598 65.6773 120.737 65.816C120.886 65.9547 120.961 66.1573 120.961 66.424V76.296C120.961 76.552 120.891 76.7547 120.753 76.904C120.614 77.0427 120.417 77.112 120.161 77.112C119.905 77.112 119.707 77.0427 119.569 76.904C119.43 76.7547 119.361 76.552 119.361 76.296V74.888L119.537 75.24C119.366 75.816 119.03 76.28 118.529 76.632C118.038 76.9733 117.446 77.144 116.753 77.144ZM117.169 75.896C117.606 75.896 117.99 75.7893 118.321 75.576C118.651 75.3627 118.907 75.048 119.089 74.632C119.281 74.216 119.377 73.704 119.377 73.096C119.377 72.1787 119.174 71.4853 118.769 71.016C118.363 70.5467 117.83 70.312 117.169 70.312C116.721 70.312 116.331 70.4187 116.001 70.632C115.67 70.8347 115.409 71.144 115.217 71.56C115.035 71.976 114.945 72.488 114.945 73.096C114.945 74.0027 115.147 74.696 115.553 75.176C115.958 75.656 116.497 75.896 117.169 75.896Z" fill="#605BFF"/>
<path opacity="0.2" d="M0 48H48C50.7614 48 53 50.2386 53 53V91C53 93.7614 50.7614 96 48 96H0V48Z" fill="url(#paint0_linear_22_2636)"/>
<path d="M71.208 17C70.92 17 70.696 16.9253 70.536 16.776C70.3867 16.616 70.312 16.392 70.312 16.104V6.616C70.312 6.328 70.3867 6.10933 70.536 5.96C70.696 5.8 70.92 5.72 71.208 5.72H74.296C76.152 5.72 77.5813 6.20533 78.584 7.176C79.5973 8.136 80.104 9.528 80.104 11.352C80.104 12.2587 79.976 13.064 79.72 13.768C79.464 14.472 79.0853 15.064 78.584 15.544C78.0933 16.0133 77.4907 16.376 76.776 16.632C76.0613 16.8773 75.2347 17 74.296 17H71.208ZM71.976 15.608H74.2C74.904 15.608 75.512 15.5227 76.024 15.352C76.5467 15.1707 76.984 14.904 77.336 14.552C77.688 14.2 77.9493 13.7573 78.12 13.224C78.2907 12.6907 78.376 12.0667 78.376 11.352C78.376 9.93333 78.024 8.872 77.32 8.168C76.6267 7.464 75.5867 7.112 74.2 7.112H71.976V15.608ZM84.6476 17.144C84.1036 17.144 83.613 17.0373 83.1756 16.824C82.749 16.6107 82.413 16.3227 82.1676 15.96C81.9223 15.5973 81.7996 15.1867 81.7996 14.728C81.7996 14.152 81.9436 13.6987 82.2316 13.368C82.5303 13.0267 83.0156 12.7867 83.6876 12.648C84.3703 12.4987 85.2876 12.424 86.4396 12.424H87.1916V13.416H86.4556C85.6876 13.416 85.0796 13.4533 84.6316 13.528C84.1836 13.6027 83.8636 13.7307 83.6716 13.912C83.4903 14.0827 83.3996 14.3227 83.3996 14.632C83.3996 15.0373 83.5383 15.368 83.8156 15.624C84.093 15.8693 84.477 15.992 84.9676 15.992C85.3623 15.992 85.709 15.9013 86.0076 15.72C86.3063 15.528 86.541 15.272 86.7116 14.952C86.893 14.632 86.9836 14.264 86.9836 13.848V12.008C86.9836 11.4 86.8556 10.9627 86.5996 10.696C86.3436 10.4293 85.9223 10.296 85.3356 10.296C84.9943 10.296 84.637 10.3387 84.2636 10.424C83.901 10.5093 83.5223 10.6533 83.1276 10.856C82.9463 10.9413 82.7916 10.968 82.6636 10.936C82.5356 10.904 82.4343 10.8347 82.3596 10.728C82.285 10.6107 82.2423 10.488 82.2316 10.36C82.2316 10.2213 82.2636 10.088 82.3276 9.96C82.4023 9.832 82.525 9.736 82.6956 9.672C83.165 9.448 83.629 9.288 84.0876 9.192C84.5463 9.096 84.9783 9.048 85.3836 9.048C86.0983 9.048 86.685 9.16 87.1436 9.384C87.613 9.608 87.9596 9.94933 88.1836 10.408C88.4076 10.8667 88.5196 11.4587 88.5196 12.184V16.296C88.5196 16.552 88.4556 16.7547 88.3276 16.904C88.1996 17.0427 88.013 17.112 87.7676 17.112C87.533 17.112 87.3463 17.0427 87.2076 16.904C87.069 16.7547 86.9996 16.552 86.9996 16.296V15.256H87.1436C87.0583 15.6507 86.8983 15.992 86.6636 16.28C86.4396 16.5573 86.157 16.7707 85.8156 16.92C85.4743 17.0693 85.085 17.144 84.6476 17.144ZM93.4814 17.144C93.012 17.144 92.5267 17.0907 92.0254 16.984C91.5347 16.8773 91.0814 16.696 90.6654 16.44C90.5267 16.344 90.4307 16.2373 90.3774 16.12C90.324 16.0027 90.3027 15.8853 90.3134 15.768C90.3347 15.64 90.3827 15.5333 90.4574 15.448C90.5427 15.352 90.644 15.2933 90.7614 15.272C90.8894 15.2507 91.0227 15.2773 91.1614 15.352C91.5774 15.5867 91.9774 15.752 92.3614 15.848C92.7454 15.9333 93.124 15.976 93.4974 15.976C94.0627 15.976 94.4894 15.8747 94.7774 15.672C95.0654 15.4693 95.2094 15.1973 95.2094 14.856C95.2094 14.5787 95.1134 14.3653 94.9214 14.216C94.7294 14.056 94.4414 13.9333 94.0574 13.848L92.5374 13.544C91.876 13.4053 91.3747 13.16 91.0334 12.808C90.692 12.456 90.5214 12.008 90.5214 11.464C90.5214 10.9733 90.6547 10.5467 90.9214 10.184C91.188 9.82133 91.5614 9.544 92.0414 9.352C92.5214 9.14933 93.076 9.048 93.7054 9.048C94.1747 9.048 94.6174 9.10667 95.0334 9.224C95.4494 9.34133 95.8334 9.51733 96.1854 9.752C96.324 9.82667 96.4147 9.928 96.4574 10.056C96.5 10.1733 96.5054 10.2907 96.4734 10.408C96.452 10.5253 96.3987 10.632 96.3134 10.728C96.228 10.8133 96.1214 10.8667 95.9934 10.888C95.876 10.8987 95.7427 10.8667 95.5934 10.792C95.2734 10.5893 94.9534 10.4453 94.6334 10.36C94.324 10.2747 94.0147 10.232 93.7054 10.232C93.14 10.232 92.7134 10.3387 92.4254 10.552C92.148 10.7547 92.0094 11.032 92.0094 11.384C92.0094 11.6507 92.0947 11.8693 92.2654 12.04C92.436 12.2107 92.7027 12.3333 93.0654 12.408L94.5854 12.712C95.2787 12.8507 95.8014 13.0853 96.1534 13.416C96.516 13.7467 96.6974 14.1947 96.6974 14.76C96.6974 15.496 96.404 16.0773 95.8174 16.504C95.2307 16.9307 94.452 17.144 93.4814 17.144ZM99.2954 17.112C99.0394 17.112 98.842 17.0427 98.7034 16.904C98.5647 16.7547 98.4954 16.552 98.4954 16.296V6.424C98.4954 6.15733 98.5647 5.95467 98.7034 5.816C98.842 5.67733 99.0394 5.608 99.2954 5.608C99.5514 5.608 99.7487 5.67733 99.8874 5.816C100.037 5.95467 100.111 6.15733 100.111 6.424V10.856H99.8874C100.122 10.2587 100.49 9.81067 100.991 9.512C101.493 9.20267 102.069 9.048 102.719 9.048C103.338 9.048 103.85 9.16533 104.255 9.4C104.671 9.624 104.981 9.97067 105.183 10.44C105.386 10.8987 105.487 11.48 105.487 12.184V16.296C105.487 16.552 105.418 16.7547 105.279 16.904C105.141 17.0427 104.943 17.112 104.687 17.112C104.421 17.112 104.218 17.0427 104.079 16.904C103.941 16.7547 103.871 16.552 103.871 16.296V12.28C103.871 11.608 103.738 11.1173 103.471 10.808C103.215 10.4987 102.81 10.344 102.255 10.344C101.605 10.344 101.082 10.5467 100.687 10.952C100.303 11.3573 100.111 11.9013 100.111 12.584V16.296C100.111 16.84 99.8394 17.112 99.2954 17.112ZM111.906 17.144C111.223 17.144 110.631 16.9733 110.13 16.632C109.629 16.28 109.293 15.816 109.122 15.24L109.298 14.952V16.296C109.298 16.552 109.229 16.7547 109.09 16.904C108.951 17.0427 108.759 17.112 108.514 17.112C108.258 17.112 108.061 17.0427 107.922 16.904C107.783 16.7547 107.714 16.552 107.714 16.296V6.424C107.714 6.15733 107.783 5.95467 107.922 5.816C108.061 5.67733 108.258 5.608 108.514 5.608C108.77 5.608 108.967 5.67733 109.106 5.816C109.255 5.95467 109.33 6.15733 109.33 6.424V10.904H109.138C109.309 10.3387 109.645 9.89067 110.146 9.56C110.647 9.21867 111.234 9.048 111.906 9.048C112.61 9.048 113.218 9.21333 113.73 9.544C114.242 9.87467 114.637 10.3387 114.914 10.936C115.202 11.5333 115.346 12.2533 115.346 13.096C115.346 13.9173 115.202 14.6373 114.914 15.256C114.637 15.864 114.237 16.3333 113.714 16.664C113.202 16.984 112.599 17.144 111.906 17.144ZM111.506 15.896C111.954 15.896 112.343 15.7893 112.674 15.576C113.005 15.3627 113.261 15.048 113.442 14.632C113.623 14.216 113.714 13.704 113.714 13.096C113.714 12.1787 113.511 11.4853 113.106 11.016C112.711 10.5467 112.178 10.312 111.506 10.312C111.069 10.312 110.679 10.4187 110.338 10.632C110.007 10.8347 109.751 11.144 109.57 11.56C109.389 11.976 109.298 12.488 109.298 13.096C109.298 14.0027 109.501 14.696 109.906 15.176C110.311 15.656 110.845 15.896 111.506 15.896ZM120.559 17.144C119.77 17.144 119.087 16.9787 118.511 16.648C117.946 16.3173 117.503 15.848 117.183 15.24C116.863 14.632 116.703 13.9173 116.703 13.096C116.703 12.4667 116.794 11.9067 116.975 11.416C117.157 10.9253 117.413 10.504 117.743 10.152C118.085 9.78933 118.49 9.51733 118.959 9.336C119.439 9.144 119.973 9.048 120.559 9.048C121.338 9.048 122.01 9.21333 122.575 9.544C123.151 9.87467 123.599 10.344 123.919 10.952C124.239 11.5493 124.399 12.264 124.399 13.096C124.399 13.7147 124.309 14.2747 124.127 14.776C123.946 15.2773 123.685 15.704 123.343 16.056C123.013 16.408 122.607 16.68 122.127 16.872C121.658 17.0533 121.135 17.144 120.559 17.144ZM120.559 15.896C120.997 15.896 121.381 15.7893 121.711 15.576C122.042 15.3627 122.298 15.048 122.479 14.632C122.671 14.216 122.767 13.704 122.767 13.096C122.767 12.1787 122.565 11.4853 122.159 11.016C121.754 10.5467 121.221 10.312 120.559 10.312C120.111 10.312 119.722 10.4187 119.391 10.632C119.061 10.8347 118.799 11.144 118.607 11.56C118.426 11.976 118.335 12.488 118.335 13.096C118.335 14.0027 118.538 14.696 118.943 15.176C119.349 15.656 119.887 15.896 120.559 15.896ZM128.71 17.144C128.166 17.144 127.675 17.0373 127.238 16.824C126.811 16.6107 126.475 16.3227 126.23 15.96C125.985 15.5973 125.862 15.1867 125.862 14.728C125.862 14.152 126.006 13.6987 126.294 13.368C126.593 13.0267 127.078 12.7867 127.75 12.648C128.433 12.4987 129.35 12.424 130.502 12.424H131.254V13.416H130.518C129.75 13.416 129.142 13.4533 128.694 13.528C128.246 13.6027 127.926 13.7307 127.734 13.912C127.553 14.0827 127.462 14.3227 127.462 14.632C127.462 15.0373 127.601 15.368 127.878 15.624C128.155 15.8693 128.539 15.992 129.03 15.992C129.425 15.992 129.771 15.9013 130.07 15.72C130.369 15.528 130.603 15.272 130.774 14.952C130.955 14.632 131.046 14.264 131.046 13.848V12.008C131.046 11.4 130.918 10.9627 130.662 10.696C130.406 10.4293 129.985 10.296 129.398 10.296C129.057 10.296 128.699 10.3387 128.326 10.424C127.963 10.5093 127.585 10.6533 127.19 10.856C127.009 10.9413 126.854 10.968 126.726 10.936C126.598 10.904 126.497 10.8347 126.422 10.728C126.347 10.6107 126.305 10.488 126.294 10.36C126.294 10.2213 126.326 10.088 126.39 9.96C126.465 9.832 126.587 9.736 126.758 9.672C127.227 9.448 127.691 9.288 128.15 9.192C128.609 9.096 129.041 9.048 129.446 9.048C130.161 9.048 130.747 9.16 131.206 9.384C131.675 9.608 132.022 9.94933 132.246 10.408C132.47 10.8667 132.582 11.4587 132.582 12.184V16.296C132.582 16.552 132.518 16.7547 132.39 16.904C132.262 17.0427 132.075 17.112 131.83 17.112C131.595 17.112 131.409 17.0427 131.27 16.904C131.131 16.7547 131.062 16.552 131.062 16.296V15.256H131.206C131.121 15.6507 130.961 15.992 130.726 16.28C130.502 16.5573 130.219 16.7707 129.878 16.92C129.537 17.0693 129.147 17.144 128.71 17.144ZM135.624 17.112C135.357 17.112 135.155 17.0427 135.016 16.904C134.877 16.7547 134.808 16.552 134.808 16.296V9.896C134.808 9.62933 134.877 9.42667 135.016 9.288C135.155 9.14933 135.347 9.08 135.592 9.08C135.848 9.08 136.04 9.14933 136.168 9.288C136.307 9.42667 136.376 9.62933 136.376 9.896V11.064H136.216C136.387 10.424 136.701 9.93867 137.16 9.608C137.619 9.27733 138.205 9.08533 138.92 9.032C139.112 9.02133 139.261 9.06933 139.368 9.176C139.485 9.28267 139.549 9.448 139.56 9.672C139.581 9.896 139.533 10.0773 139.416 10.216C139.299 10.344 139.117 10.4187 138.872 10.44L138.568 10.472C137.875 10.536 137.347 10.7547 136.984 11.128C136.621 11.5013 136.44 12.0133 136.44 12.664V16.296C136.44 16.552 136.371 16.7547 136.232 16.904C136.104 17.0427 135.901 17.112 135.624 17.112ZM143.643 17.144C142.961 17.144 142.358 16.984 141.835 16.664C141.323 16.3333 140.923 15.864 140.635 15.256C140.347 14.6373 140.203 13.9173 140.203 13.096C140.203 12.2533 140.347 11.5333 140.635 10.936C140.923 10.3387 141.323 9.87467 141.835 9.544C142.358 9.21333 142.961 9.048 143.643 9.048C144.326 9.048 144.913 9.21867 145.403 9.56C145.905 9.89067 146.241 10.3387 146.411 10.904H146.235V6.424C146.235 6.15733 146.305 5.95467 146.443 5.816C146.582 5.67733 146.779 5.608 147.035 5.608C147.291 5.608 147.489 5.67733 147.627 5.816C147.777 5.95467 147.851 6.15733 147.851 6.424V16.296C147.851 16.552 147.782 16.7547 147.643 16.904C147.505 17.0427 147.307 17.112 147.051 17.112C146.795 17.112 146.598 17.0427 146.459 16.904C146.321 16.7547 146.251 16.552 146.251 16.296V14.888L146.427 15.24C146.257 15.816 145.921 16.28 145.419 16.632C144.929 16.9733 144.337 17.144 143.643 17.144ZM144.059 15.896C144.497 15.896 144.881 15.7893 145.211 15.576C145.542 15.3627 145.798 15.048 145.979 14.632C146.171 14.216 146.267 13.704 146.267 13.096C146.267 12.1787 146.065 11.4853 145.659 11.016C145.254 10.5467 144.721 10.312 144.059 10.312C143.611 10.312 143.222 10.4187 142.891 10.632C142.561 10.8347 142.299 11.144 142.107 11.56C141.926 11.976 141.835 12.488 141.835 13.096C141.835 14.0027 142.038 14.696 142.443 15.176C142.849 15.656 143.387 15.896 144.059 15.896Z" fill="#9A9AA9"/>
<path fill-rule="evenodd" clip-rule="evenodd" d="M35.5399 2H38.9199C40.3299 2 41.4599 3.15 41.4599 4.561V7.97C41.4599 9.39 40.3299 10.53 38.9199 10.53H35.5399C34.1399 10.53 32.9999 9.39 32.9999 7.97V4.561C32.9999 3.15 34.1399 2 35.5399 2ZM35.5399 13.4697H38.9199C40.3299 13.4697 41.4599 14.6107 41.4599 16.0307V19.4397C41.4599 20.8497 40.3299 21.9997 38.9199 21.9997H35.5399C34.1399 21.9997 32.9999 20.8497 32.9999 19.4397V16.0307C32.9999 14.6107 34.1399 13.4697 35.5399 13.4697ZM50.46 2H47.08C45.67 2 44.54 3.15 44.54 4.561V7.97C44.54 9.39 45.67 10.53 47.08 10.53H50.46C51.86 10.53 53 9.39 53 7.97V4.561C53 3.15 51.86 2 50.46 2ZM47.08 13.4697H50.46C51.86 13.4697 53 14.6107 53 16.0307V19.4397C53 20.8497 51.86 21.9997 50.46 21.9997H47.08C45.67 21.9997 44.54 20.8497 44.54 19.4397V16.0307C44.54 14.6107 45.67 13.4697 47.08 13.4697Z" fill="#9A9AA9"/>
<defs>
<linearGradient id="paint0_linear_22_2636" x1="0" y1="72" x2="48.3625" y2="72" gradientUnits="userSpaceOnUse">
<stop stop-color="#ACA9FF"/>
<stop offset="1" stop-color="#ACA9FF" stop-opacity="0"/>
</linearGradient>
</defs>
</svg>
